<?xml version="1.0" encoding="UTF-8" ?>
<!DOCTYPE svg PUBLIC "-//W3C//DTD SVG 1.1//EN" "http://www.w3.org/Graphics/SVG/1.1/DTD/svg11.dtd">
<svg width="350pt" height="388pt" viewBox="0 0 350 388" version="1.1" xmlns="http://www.w3.org/2000/svg">
<g id="#eaea45ff">
<path fill="#eaea45" opacity="1.00" d=" M 113.03 12.07 C 159.60 -6.44 214.76 -3.49 258.29 21.75 C 283.58 36.46 305.00 57.83 319.79 83.08 C 314.11 88.23 308.33 93.28 302.93 98.73 C 301.84 99.88 300.77 101.05 299.65 102.16 C 296.28 105.24 292.89 108.30 289.56 111.42 C 285.92 105.19 282.34 98.89 278.01 93.11 C 277.84 92.89 277.48 92.44 277.31 92.21 C 276.69 91.43 276.08 90.66 275.47 89.88 C 272.96 86.74 270.37 83.65 267.65 80.69 C 266.95 79.95 266.27 79.21 265.56 78.50 C 262.63 75.62 259.62 72.82 256.49 70.16 C 255.74 69.55 254.99 68.94 254.23 68.34 C 251.55 66.28 248.79 64.32 246.00 62.42 C 245.13 61.84 244.25 61.28 243.37 60.74 C 239.88 58.68 236.35 56.69 232.71 54.92 C 232.05 54.62 230.75 54.01 230.09 53.71 C 227.21 52.44 224.30 51.23 221.33 50.18 C 220.33 49.84 219.33 49.51 218.33 49.19 C 215.74 48.38 213.14 47.59 210.52 46.87 C 209.50 46.60 208.48 46.35 207.46 46.12 C 204.15 45.43 200.81 44.89 197.48 44.34 C 196.45 44.18 195.41 44.05 194.38 43.92 C 190.86 43.49 187.32 43.20 183.78 42.97 C 183.00 42.94 181.45 42.87 180.68 42.83 C 177.80 42.75 174.91 42.75 172.03 42.81 C 171.31 42.84 169.86 42.90 169.14 42.93 C 165.61 43.13 162.09 43.38 158.59 43.77 C 157.53 43.89 156.47 44.03 155.42 44.18 C 151.80 44.74 148.18 45.32 144.59 46.04 C 143.62 46.25 142.65 46.48 141.68 46.72 C 139.07 47.41 136.48 48.19 133.90 48.99 C 132.94 49.29 131.99 49.60 131.05 49.93 C 128.01 50.97 125.01 52.15 122.07 53.44 C 121.14 53.86 120.21 54.29 119.30 54.73 C 115.96 56.35 112.70 58.14 109.49 60.00 C 108.60 60.53 107.73 61.07 106.86 61.64 C 103.75 63.73 100.68 65.89 97.69 68.16 C 96.95 68.74 96.22 69.34 95.51 69.95 C 92.37 72.66 89.37 75.51 86.40 78.40 C 85.67 79.13 84.96 79.88 84.26 80.65 C 81.53 83.77 78.91 86.98 76.24 90.16 C 75.59 90.96 74.95 91.77 74.34 92.61 L 73.85 93.34 C 69.72 99.34 66.11 105.67 62.32 111.89 C 58.58 109.15 55.88 105.06 51.55 103.13 C 50.43 101.76 49.34 100.36 48.22 98.99 C 42.86 93.40 37.09 88.22 31.31 83.07 C 50.50 51.87 78.79 25.73 113.03 12.07 M 103.71 21.72 C 76.70 35.64 53.86 57.30 37.79 83.02 C 45.46 90.30 53.39 97.31 61.20 104.44 C 79.99 70.98 113.61 45.75 151.94 40.27 C 174.83 36.87 198.64 37.98 220.70 45.26 C 250.37 54.86 276.02 76.10 291.20 103.33 C 298.31 96.07 305.98 89.44 313.86 83.02 C 299.18 60.89 280.39 41.20 257.61 27.33 C 211.94 -1.08 151.40 -2.82 103.71 21.72 Z" />
</g>
<g id="#ffffffff">
<path fill="#ffffff" opacity="1.00" d=" M 103.71 21.72 C 151.40 -2.82 211.94 -1.08 257.61 27.33 C 280.39 41.20 299.18 60.89 313.86 83.02 C 305.98 89.44 298.31 96.07 291.20 103.33 C 276.02 76.10 250.37 54.86 220.70 45.26 C 198.64 37.98 174.83 36.87 151.94 40.27 C 113.61 45.75 79.99 70.98 61.20 104.44 C 53.39 97.31 45.46 90.30 37.79 83.02 C 53.86 57.30 76.70 35.64 103.71 21.72 M 174.34 10.06 C 174.34 17.55 174.03 25.03 173.82 32.52 C 177.63 32.66 182.99 33.11 184.69 28.76 C 185.87 23.80 186.16 18.29 184.60 13.39 C 182.75 9.45 177.92 10.13 174.34 10.06 M 161.02 10.94 C 159.46 18.42 159.08 26.09 157.43 33.56 C 158.43 33.61 159.43 33.64 160.44 33.67 C 160.63 32.18 160.81 30.69 161.00 29.20 C 162.67 29.03 164.34 28.87 166.01 28.71 C 166.41 30.14 166.82 31.57 167.23 33.00 C 167.96 33.01 169.41 33.03 170.14 33.04 C 168.86 26.65 166.23 20.64 164.67 14.33 C 164.20 12.48 163.59 9.57 161.02 10.94 M 200.90 11.60 C 199.20 19.07 197.71 26.58 196.10 34.06 C 196.85 34.16 198.33 34.36 199.08 34.45 C 200.29 29.71 200.51 24.73 202.22 20.12 C 203.38 25.28 203.96 30.55 205.20 35.69 C 205.77 35.75 206.90 35.88 207.47 35.94 C 209.00 28.62 210.65 21.31 211.90 13.93 C 211.19 13.86 209.79 13.73 209.09 13.67 C 208.23 18.33 207.35 22.99 206.15 27.57 C 203.68 22.62 206.18 14.39 200.90 11.60 M 139.92 14.26 C 141.30 21.60 143.13 28.85 144.37 36.22 C 147.95 35.55 153.16 35.46 154.11 31.02 C 154.75 25.91 153.59 20.43 151.02 15.96 C 148.54 12.11 143.59 13.51 139.92 14.26 M 128.91 17.87 C 131.64 24.91 133.87 32.12 136.35 39.25 C 137.23 38.72 139.69 38.72 138.98 37.11 C 136.86 30.25 134.24 23.53 132.05 16.68 C 131.00 17.08 129.96 17.47 128.91 17.87 M 223.34 17.08 C 219.31 23.72 215.30 30.37 211.14 36.93 C 212.10 37.26 213.06 37.59 214.02 37.93 C 214.81 36.64 215.60 35.36 216.40 34.08 C 217.90 34.44 219.40 34.80 220.90 35.17 C 220.84 36.82 220.78 38.47 220.73 40.12 C 221.64 40.29 222.55 40.47 223.46 40.64 C 224.26 33.06 225.07 25.48 225.96 17.91 C 225.08 17.63 224.21 17.35 223.34 17.08 M 116.35 25.67 C 117.08 31.76 124.81 31.94 127.69 36.35 C 128.90 39.56 125.07 40.74 122.63 40.66 C 124.29 45.79 132.39 40.65 130.70 36.32 C 129.57 30.37 121.85 30.47 119.33 25.72 C 118.62 22.74 122.32 22.26 124.28 21.47 C 121.72 17.62 115.42 21.57 116.35 25.67 M 237.43 23.55 C 232.17 26.07 230.17 32.25 228.49 37.42 C 227.24 41.45 230.85 44.45 234.19 45.76 C 234.91 44.96 235.63 44.15 236.36 43.35 C 233.70 42.51 230.30 40.39 231.99 37.10 C 233.83 31.97 237.20 23.38 244.15 26.98 C 245.24 23.39 239.90 22.53 237.43 23.55 M 101.11 29.46 C 104.58 36.23 108.42 42.80 112.17 49.42 C 113.10 48.94 114.04 48.45 114.98 47.97 C 113.30 44.90 111.54 41.87 109.94 38.75 C 112.92 40.94 115.52 43.55 118.23 46.04 C 119.31 45.68 120.39 45.31 121.47 44.94 C 118.90 42.31 115.91 40.15 113.29 37.58 C 113.74 34.25 113.93 30.38 110.93 28.08 C 107.97 25.03 104.07 28.09 101.11 29.46 M 238.82 47.75 C 239.74 48.13 240.66 48.50 241.59 48.88 C 245.22 42.31 248.62 35.61 252.33 29.07 C 251.68 28.62 250.40 27.72 249.75 27.27 C 245.86 33.95 242.13 40.75 238.82 47.75 M 89.55 36.11 C 93.60 42.59 97.64 49.08 101.81 55.48 C 104.12 54.08 106.46 52.72 108.83 51.42 C 108.60 50.62 108.33 49.83 108.03 49.05 C 106.38 49.87 104.74 50.69 103.10 51.50 C 101.70 49.38 100.32 47.26 98.95 45.12 C 100.31 44.34 101.68 43.55 103.06 42.77 C 102.78 42.17 102.24 40.98 101.97 40.39 C 100.48 41.17 99.00 41.97 97.53 42.76 C 96.23 40.76 94.91 38.77 93.59 36.79 C 95.05 36.00 96.52 35.23 97.99 34.45 C 97.66 33.58 97.33 32.72 97.00 31.85 C 94.51 33.26 92.04 34.70 89.55 36.11 M 260.38 34.46 C 254.59 36.51 251.77 42.97 248.90 47.99 C 245.94 53.43 254.50 58.61 258.58 54.67 C 262.22 51.10 265.14 46.73 267.28 42.12 C 269.32 37.86 264.30 34.09 260.38 34.46 M 82.00 41.05 C 84.81 46.04 87.79 50.95 90.29 56.11 C 86.07 52.35 81.80 48.65 77.60 44.87 C 76.69 45.44 75.79 46.02 74.89 46.59 C 80.94 51.63 87.13 56.50 93.18 61.54 C 93.71 61.16 94.76 60.41 95.28 60.03 C 91.88 53.15 88.18 46.43 84.82 39.54 C 83.88 40.04 82.94 40.54 82.00 41.05 M 275.10 44.03 C 269.96 49.53 265.04 55.27 260.09 60.96 C 260.60 61.41 261.61 62.31 262.12 62.75 C 265.86 59.18 268.86 54.92 272.60 51.34 C 271.10 56.09 268.76 60.54 267.39 65.33 C 266.82 66.53 268.19 68.99 269.36 67.32 C 274.46 62.05 279.17 56.37 284.02 50.85 C 283.37 50.21 282.72 49.56 282.08 48.90 C 278.49 52.60 275.35 56.70 271.78 60.41 C 273.31 55.15 275.67 50.18 277.39 44.98 C 276.82 44.74 275.67 44.27 275.10 44.03 M 68.91 51.86 C 74.10 57.53 79.33 63.17 84.47 68.89 C 85.35 68.24 86.22 67.58 87.11 66.93 C 81.95 61.20 76.63 55.61 71.53 49.84 C 70.65 50.50 69.77 51.17 68.91 51.86 M 61.40 58.69 C 65.33 62.17 69.38 65.52 73.22 69.10 C 67.30 67.94 61.21 61.99 55.42 64.20 C 60.86 69.90 67.16 74.70 72.90 80.10 C 73.41 79.57 74.41 78.51 74.91 77.98 C 71.10 74.50 67.05 71.30 63.40 67.64 C 68.59 69.68 73.83 71.61 78.94 73.84 C 79.42 73.39 80.37 72.47 80.85 72.02 C 75.04 66.93 69.23 61.85 63.54 56.63 C 62.82 57.31 62.11 58.00 61.40 58.69 M 271.11 70.51 C 271.70 71.24 272.30 71.98 272.91 72.71 C 274.30 71.85 275.69 70.98 277.08 70.12 C 278.22 71.30 279.35 72.48 280.49 73.66 C 279.57 74.77 278.66 75.89 277.75 77.01 C 278.19 77.64 279.06 78.89 279.49 79.52 C 284.60 73.31 288.84 66.44 293.57 59.95 C 292.97 59.65 291.78 59.05 291.19 58.75 C 284.38 62.47 277.80 66.60 271.11 70.51 M 282.10 82.37 C 283.82 84.69 285.73 86.88 287.74 88.96 C 288.18 88.50 289.05 87.57 289.49 87.11 C 288.41 85.81 287.33 84.52 286.26 83.23 C 291.82 79.14 297.36 75.04 302.88 70.88 C 302.18 70.13 301.49 69.37 300.80 68.62 C 294.45 73.05 288.38 77.85 282.10 82.37 M 51.00 70.02 C 50.31 70.77 49.63 71.52 48.94 72.27 C 54.14 76.41 60.09 79.57 65.10 83.94 C 66.82 85.42 63.79 88.29 62.20 86.90 C 56.61 83.76 51.61 79.66 46.23 76.17 C 45.75 76.71 44.79 77.80 44.31 78.34 C 49.46 82.36 54.90 86.04 60.41 89.54 C 64.98 92.62 71.34 84.75 66.81 81.19 C 61.75 77.19 56.20 73.84 51.00 70.02 Z" />
<path fill="#ffffff" opacity="1.00" d=" M 177.49 11.97 C 181.94 12.49 182.73 17.31 182.40 20.99 C 182.41 24.70 182.13 30.62 177.10 30.54 C 177.21 24.35 177.25 18.16 177.49 11.97 Z" />
<path fill="#ffffff" opacity="1.00" d=" M 143.56 15.40 C 146.38 15.30 148.83 16.95 149.28 19.82 C 150.41 24.41 152.96 31.04 147.73 34.03 C 145.48 28.06 144.69 21.65 143.56 15.40 Z" />
<path fill="#ffffff" opacity="1.00" d=" M 162.62 16.29 C 163.81 19.61 164.63 23.04 165.46 26.45 C 164.08 26.58 162.69 26.70 161.31 26.82 C 161.64 23.30 162.03 19.78 162.62 16.29 Z" />
<path fill="#ffffff" opacity="1.00" d=" M 260.57 37.52 C 262.47 35.92 265.54 38.86 264.05 40.88 C 261.64 45.82 258.69 50.95 253.89 53.92 C 251.11 52.31 251.36 49.39 253.09 47.08 C 255.30 43.72 257.30 39.99 260.57 37.52 Z" />
<path fill="#ffffff" opacity="1.00" d=" M 76.13 128.83 C 91.38 128.70 106.63 128.71 121.89 128.83 C 121.96 171.22 121.90 213.61 121.91 256.00 C 121.91 261.96 122.84 267.91 124.85 273.53 C 124.16 275.59 123.54 277.67 122.92 279.75 C 124.51 279.77 126.11 279.80 127.70 279.81 C 137.33 296.39 157.62 303.44 175.99 302.63 C 193.24 302.85 211.90 295.49 220.59 279.82 C 222.68 279.75 224.78 279.73 226.88 279.69 C 225.99 276.61 225.13 273.52 224.23 270.45 C 225.84 265.46 226.41 260.22 226.38 255.00 C 226.36 212.98 226.39 170.96 226.36 128.93 C 242.74 128.67 259.15 128.57 275.53 128.99 C 275.45 171.66 275.54 214.34 275.48 257.02 C 275.40 276.98 269.44 297.21 256.85 312.91 C 237.31 337.26 205.73 349.81 175.00 350.37 C 147.95 350.11 120.42 340.19 101.12 320.88 C 84.55 304.50 76.21 281.09 76.14 258.01 C 76.05 214.95 76.08 171.89 76.13 128.83 M 87.79 138.77 C 85.69 142.62 85.40 149.03 90.59 150.46 C 98.52 151.85 106.71 150.83 114.75 151.03 C 114.76 148.82 114.78 146.60 114.79 144.39 C 107.87 144.25 100.93 144.68 94.02 144.22 C 91.59 143.41 92.82 140.52 93.06 138.77 C 91.30 138.77 89.55 138.77 87.79 138.77 M 235.78 139.65 C 235.77 141.60 235.76 143.55 235.75 145.51 C 242.22 145.83 248.64 145.03 255.08 144.52 C 248.65 146.05 242.14 147.18 235.80 149.05 C 235.77 151.72 235.76 154.40 235.77 157.07 C 245.05 157.07 254.33 157.19 263.60 157.00 C 263.60 155.04 263.59 153.09 263.59 151.14 C 256.69 151.12 249.77 150.96 242.89 151.58 C 249.88 150.11 256.74 148.10 263.56 146.00 C 263.58 143.87 263.59 141.75 263.59 139.63 C 254.32 139.65 245.05 139.61 235.78 139.65 M 92.34 159.46 C 84.31 160.02 82.41 172.23 89.44 175.57 C 95.44 177.81 102.24 177.87 108.44 176.44 C 114.71 175.06 115.86 166.22 112.17 161.85 C 106.66 157.44 98.83 158.24 92.34 159.46 M 235.77 164.79 C 235.77 166.82 235.77 168.85 235.77 170.88 C 242.01 171.05 248.22 170.32 254.44 169.82 C 248.28 171.42 241.96 172.33 235.87 174.21 C 235.77 176.86 235.75 179.52 235.76 182.18 C 244.96 182.20 254.16 182.22 263.36 182.17 C 263.37 180.21 263.38 178.25 263.39 176.30 C 256.55 176.20 249.72 176.30 242.90 176.64 C 249.89 175.44 256.61 173.14 263.39 171.13 C 263.38 169.01 263.36 166.90 263.35 164.79 C 254.16 164.76 244.97 164.77 235.77 164.79 M 85.64 183.21 C 85.58 185.37 85.53 187.53 85.49 189.70 C 89.75 189.77 94.01 189.51 98.28 189.47 C 94.13 190.93 89.77 191.65 85.59 193.02 C 85.56 195.37 85.54 197.72 85.54 200.07 C 89.37 198.48 93.25 197.03 97.17 195.66 C 100.79 200.42 109.70 201.53 112.86 195.80 C 113.85 191.70 113.22 187.41 113.26 183.23 C 104.06 183.29 94.85 183.33 85.64 183.21 M 235.52 194.70 C 235.54 197.84 235.55 200.98 235.59 204.12 C 244.84 205.85 254.17 207.05 263.42 208.75 C 263.38 206.54 263.35 204.33 263.30 202.12 C 261.38 201.86 259.47 201.61 257.56 201.37 C 257.45 200.03 257.34 198.68 257.24 197.35 C 259.28 196.94 261.33 196.56 263.39 196.20 C 263.38 194.06 263.37 191.92 263.36 189.79 C 254.08 191.47 244.73 192.72 235.52 194.70 M 90.23 207.17 C 83.95 209.62 84.22 218.22 88.15 222.66 C 92.11 222.59 96.07 222.61 100.03 222.63 C 100.05 220.49 100.06 218.34 100.07 216.21 C 96.91 216.21 93.75 216.21 90.59 216.12 C 92.19 210.21 99.88 211.93 104.43 212.51 C 109.43 213.47 108.15 219.29 105.38 221.95 C 107.72 221.71 110.27 222.28 112.48 221.37 C 115.34 216.77 114.92 208.75 108.90 206.97 C 102.85 205.45 96.24 205.43 90.23 207.17 M 235.59 215.12 C 235.54 218.16 235.54 221.20 235.56 224.25 C 240.42 225.05 245.36 225.22 250.20 226.18 C 245.32 226.75 240.40 226.90 235.57 227.80 C 235.54 230.82 235.54 233.84 235.59 236.86 C 244.85 236.76 254.10 236.79 263.36 236.84 C 263.36 234.91 263.36 232.97 263.37 231.04 C 255.50 230.87 247.64 231.50 239.78 231.24 C 247.59 229.93 255.47 229.04 263.33 227.98 C 263.33 226.69 263.34 225.41 263.34 224.13 C 255.51 222.77 247.58 222.13 239.76 220.82 C 247.62 220.78 255.49 221.30 263.36 221.11 C 263.36 219.12 263.36 217.13 263.36 215.14 C 254.10 215.17 244.84 215.19 235.59 215.12 M 85.32 229.19 C 85.34 233.79 85.34 238.39 85.33 243.00 C 87.43 243.00 89.54 243.00 91.64 242.99 C 91.64 240.52 91.63 238.05 91.63 235.59 C 93.10 235.59 94.57 235.59 96.04 235.60 C 96.06 238.04 96.06 240.49 96.07 242.94 C 98.16 242.96 100.25 242.97 102.35 243.01 C 102.37 240.53 102.39 238.05 102.41 235.57 C 103.84 235.56 105.27 235.54 106.70 235.53 C 106.71 238.02 106.73 240.52 106.75 243.02 C 108.92 243.02 111.09 243.02 113.26 243.02 C 113.30 238.40 113.29 233.77 113.27 229.15 C 103.95 229.21 94.64 229.15 85.32 229.19 M 236.78 245.96 C 236.59 248.04 236.39 250.12 236.18 252.20 C 239.74 252.57 243.30 252.91 246.86 253.29 C 246.78 254.54 246.70 255.80 246.63 257.06 C 243.07 256.96 239.51 256.77 235.96 256.46 C 235.75 258.47 235.54 260.47 235.34 262.48 C 244.55 263.38 253.75 264.33 262.97 265.00 C 263.17 262.94 263.39 260.89 263.61 258.84 C 259.96 258.52 256.32 258.18 252.69 257.81 C 252.80 256.55 252.93 255.28 253.05 254.02 C 256.73 254.16 260.39 254.49 264.05 254.83 C 264.16 252.64 264.25 250.46 264.31 248.28 C 255.14 247.46 245.95 246.78 236.78 245.96 M 86.17 264.49 C 86.92 267.85 87.18 271.34 88.40 274.57 C 90.94 280.39 101.31 279.55 102.67 273.30 C 106.13 277.02 113.55 276.04 115.14 270.98 C 115.55 266.98 114.05 263.10 113.33 259.22 C 104.31 261.16 95.19 262.56 86.17 264.49 M 238.21 268.15 C 233.44 270.51 230.69 277.95 234.99 281.98 C 239.83 286.56 246.55 288.81 253.03 289.76 C 260.31 290.54 264.58 279.77 258.62 275.38 C 253.04 270.89 245.52 266.89 238.21 268.15 M 91.75 286.32 C 92.57 288.15 93.41 289.96 94.27 291.77 C 96.23 291.05 98.19 290.31 100.15 289.57 C 100.86 290.68 101.57 291.79 102.28 292.91 C 100.64 294.25 99.01 295.59 97.38 296.94 C 98.32 298.79 99.27 300.64 100.23 302.49 C 107.63 296.57 115.09 290.71 122.55 284.87 C 121.05 282.12 119.52 279.40 117.97 276.69 C 109.27 280.01 100.45 282.99 91.75 286.32 M 220.32 295.20 C 227.09 301.85 233.99 308.38 240.88 314.91 C 242.22 313.36 243.56 311.81 244.90 310.27 C 242.20 307.58 239.32 305.07 236.85 302.16 C 240.30 304.00 243.63 306.04 247.15 307.73 C 248.72 306.12 250.28 304.50 251.84 302.88 C 247.97 301.17 244.14 299.40 240.30 297.66 C 240.51 292.36 236.45 286.90 231.10 286.18 C 226.17 287.01 223.73 292.07 220.32 295.20 M 115.00 299.02 C 114.01 302.87 117.91 308.38 113.15 310.59 C 110.80 308.97 109.65 306.47 109.53 303.65 C 108.14 305.46 106.11 306.93 105.26 309.06 C 105.54 313.52 110.36 317.91 114.90 316.23 C 117.58 315.03 119.86 312.90 121.38 310.41 C 123.62 306.37 118.99 301.11 123.01 297.83 C 125.18 299.38 126.56 301.63 126.99 304.28 C 128.46 302.56 130.31 301.07 131.25 298.98 C 130.47 295.53 127.83 292.00 124.04 291.80 C 119.76 291.65 116.26 295.19 115.00 299.02 M 208.04 308.93 C 210.15 315.10 213.18 321.56 218.57 325.51 C 223.77 328.78 229.33 323.71 231.13 318.93 C 228.99 315.36 226.89 311.75 224.90 308.10 C 223.14 309.15 221.39 310.22 219.64 311.29 C 221.14 314.26 222.76 317.17 224.31 320.12 C 218.40 321.04 216.42 313.67 214.49 309.41 C 212.68 304.99 217.99 302.32 221.67 303.81 C 220.55 301.68 219.36 299.59 218.10 297.55 C 212.23 297.12 205.74 302.76 208.04 308.93 M 136.46 301.07 C 130.76 308.56 125.02 316.01 119.16 323.38 C 120.96 324.38 122.78 325.36 124.61 326.33 C 125.78 324.73 126.97 323.15 128.16 321.57 C 129.37 322.10 130.59 322.64 131.80 323.18 C 131.08 325.18 130.35 327.18 129.62 329.18 C 131.39 330.26 133.17 331.34 134.94 332.42 C 138.33 323.55 141.40 314.57 144.74 305.69 C 142.08 303.96 139.32 302.42 136.46 301.07 M 148.82 307.33 C 146.61 316.49 144.28 325.62 142.60 334.90 C 147.57 335.92 154.07 338.89 157.89 333.88 C 161.38 328.38 163.29 321.57 162.77 315.06 C 161.34 308.77 153.83 308.78 148.82 307.33 M 183.67 310.89 C 185.65 319.97 187.71 329.04 189.94 338.07 C 194.24 337.29 198.47 336.21 202.69 335.10 C 202.16 333.07 201.64 331.04 201.11 329.02 C 198.88 329.57 196.65 330.11 194.43 330.69 C 194.15 329.12 193.82 327.58 193.50 326.03 C 195.73 325.58 197.96 325.12 200.20 324.66 C 199.80 322.62 199.39 320.59 198.99 318.55 C 196.63 319.00 194.29 319.50 191.95 320.02 C 191.59 318.63 191.23 317.23 190.87 315.85 C 193.18 315.22 195.51 314.61 197.83 314.01 C 197.32 311.89 196.78 309.79 196.22 307.70 C 192.05 308.83 187.84 309.78 183.67 310.89 M 165.93 310.43 C 165.79 319.76 166.29 329.09 166.18 338.43 C 168.23 338.46 170.29 338.49 172.35 338.52 C 172.18 334.48 172.04 330.42 172.22 326.38 C 173.43 330.36 174.37 334.42 175.77 338.35 C 177.91 338.30 180.05 338.27 182.19 338.25 C 180.72 334.27 179.32 330.26 177.87 326.28 C 182.00 323.04 182.30 316.61 179.68 312.38 C 175.99 308.98 170.44 310.97 165.93 310.43 Z" />
<path fill="#ffffff" opacity="1.00" d=" M 90.99 167.99 C 94.58 164.13 100.62 165.04 105.32 165.70 C 108.69 165.85 108.04 170.81 104.89 170.61 C 100.28 170.86 94.33 172.07 90.99 167.99 Z" />
<path fill="#ffffff" opacity="1.00" d=" M 209.16 245.45 C 210.82 245.48 212.48 245.52 214.15 245.55 C 216.51 255.80 218.75 266.08 221.28 276.29 C 220.55 276.28 219.09 276.28 218.35 276.27 C 215.90 265.90 215.46 254.42 209.16 245.45 Z" />
<path fill="#ffffff" opacity="1.00" d=" M 241.37 274.35 C 245.87 275.28 250.54 276.93 254.17 279.83 C 256.10 281.30 253.96 283.87 252.00 283.20 C 247.96 282.40 243.91 280.91 240.67 278.32 C 238.97 277.26 240.06 275.16 241.37 274.35 Z" />
</g>
<g id="#8f2727ff">
<path fill="#8f2727" opacity="1.00" d=" M 174.34 10.06 C 177.92 10.13 182.75 9.45 184.60 13.39 C 186.16 18.29 185.87 23.80 184.69 28.76 C 182.99 33.11 177.63 32.66 173.82 32.52 C 174.03 25.03 174.34 17.55 174.34 10.06 M 177.49 11.97 C 177.25 18.16 177.21 24.35 177.10 30.54 C 182.13 30.62 182.41 24.70 182.40 20.99 C 182.73 17.31 181.94 12.49 177.49 11.97 Z" />
</g>
<g id="#8d2323ff">
<path fill="#8d2323" opacity="1.00" d=" M 161.02 10.94 C 163.59 9.57 164.20 12.48 164.67 14.33 C 166.23 20.64 168.86 26.65 170.14 33.04 C 169.41 33.03 167.96 33.01 167.23 33.00 C 166.82 31.57 166.41 30.14 166.01 28.71 C 164.34 28.87 162.67 29.03 161.00 29.20 C 160.81 30.69 160.63 32.18 160.44 33.67 C 159.43 33.64 158.43 33.61 157.43 33.56 C 159.08 26.09 159.46 18.42 161.02 10.94 M 162.62 16.29 C 162.03 19.78 161.64 23.30 161.31 26.82 C 162.69 26.70 164.08 26.58 165.46 26.45 C 164.63 23.04 163.81 19.61 162.62 16.29 Z" />
</g>
<g id="#902b2bff">
<path fill="#902b2b" opacity="1.00" d=" M 200.90 11.60 C 206.18 14.39 203.68 22.62 206.15 27.57 C 207.35 22.99 208.23 18.33 209.09 13.67 C 209.79 13.73 211.19 13.86 211.90 13.93 C 210.65 21.31 209.00 28.62 207.47 35.94 C 206.90 35.88 205.77 35.75 205.20 35.69 C 203.96 30.55 203.38 25.28 202.22 20.12 C 200.51 24.73 200.29 29.71 199.08 34.45 C 198.33 34.36 196.85 34.16 196.10 34.06 C 197.71 26.58 199.20 19.07 200.90 11.60 Z" />
</g>
<g id="#8f2828ff">
<path fill="#8f2828" opacity="1.00" d=" M 139.92 14.26 C 143.59 13.51 148.54 12.11 151.02 15.96 C 153.59 20.43 154.75 25.91 154.11 31.02 C 153.16 35.46 147.95 35.55 144.37 36.22 C 143.13 28.85 141.30 21.60 139.92 14.26 M 143.56 15.40 C 144.69 21.65 145.48 28.06 147.73 34.03 C 152.96 31.04 150.41 24.41 149.28 19.82 C 148.83 16.95 146.38 15.30 143.56 15.40 Z" />
<path fill="#8f2828" opacity="1.00" d=" M 128.91 17.87 C 129.96 17.47 131.00 17.08 132.05 16.68 C 134.24 23.53 136.86 30.25 138.98 37.11 C 139.69 38.72 137.23 38.72 136.35 39.25 C 133.87 32.12 131.64 24.91 128.91 17.87 Z" />
</g>
<g id="#8e2727ff">
<path fill="#8e2727" opacity="1.00" d=" M 223.34 17.08 C 224.21 17.35 225.08 17.63 225.96 17.91 C 225.07 25.48 224.26 33.06 223.46 40.64 C 222.55 40.47 221.64 40.29 220.73 40.12 C 220.78 38.47 220.84 36.82 220.90 35.17 C 219.40 34.80 217.90 34.44 216.40 34.08 C 215.60 35.36 214.81 36.64 214.02 37.93 C 213.06 37.59 212.10 37.26 211.14 36.93 C 215.30 30.37 219.31 23.72 223.34 17.08 M 217.53 31.96 C 218.82 32.30 220.11 32.65 221.40 32.99 C 221.94 29.52 222.54 26.04 222.88 22.54 C 220.95 25.60 219.31 28.82 217.53 31.96 Z" />
</g>
<g id="#912b2bff">
<path fill="#912b2b" opacity="1.00" d=" M 116.35 25.67 C 115.42 21.57 121.72 17.62 124.28 21.47 C 122.32 22.26 118.62 22.74 119.33 25.72 C 121.85 30.47 129.57 30.37 130.70 36.32 C 132.39 40.65 124.29 45.79 122.63 40.66 C 125.07 40.74 128.90 39.56 127.69 36.35 C 124.81 31.94 117.08 31.76 116.35 25.67 Z" />
<path fill="#912b2b" opacity="1.00" d=" M 271.11 70.51 C 277.80 66.60 284.38 62.47 291.19 58.75 C 291.78 59.05 292.97 59.65 293.57 59.95 C 288.84 66.44 284.60 73.31 279.49 79.52 C 279.06 78.89 278.19 77.64 277.75 77.01 C 278.66 75.89 279.57 74.77 280.49 73.66 C 279.35 72.48 278.22 71.30 277.08 70.12 C 275.69 70.98 274.30 71.85 272.91 72.71 C 272.30 71.98 271.70 71.24 271.11 70.51 M 278.98 68.96 C 279.98 69.86 280.98 70.77 281.99 71.67 C 284.09 68.73 286.38 65.92 288.52 63.00 C 285.25 64.85 282.12 66.92 278.98 68.96 Z" />
</g>
<g id="#fefefeff">
<path fill="#fefefe" opacity="1.00" d=" M 217.53 31.96 C 219.31 28.82 220.95 25.60 222.88 22.54 C 222.54 26.04 221.94 29.52 221.40 32.99 C 220.11 32.65 218.82 32.30 217.53 31.96 Z" />
<path fill="#fefefe" opacity="1.00" d=" M 104.96 29.78 C 108.39 28.71 110.23 31.87 111.07 34.65 C 110.52 35.23 109.43 36.38 108.88 36.96 C 107.51 34.61 106.17 32.23 104.96 29.78 Z" />
<path fill="#fefefe" opacity="1.00" d=" M 278.98 68.96 C 282.12 66.92 285.25 64.85 288.52 63.00 C 286.38 65.92 284.09 68.73 281.99 71.67 C 280.98 70.77 279.98 69.86 278.98 68.96 Z" />
<path fill="#fefefe" opacity="1.00" d=" M 165.17 86.64 C 167.27 85.97 169.44 85.53 171.64 85.33 C 172.43 85.30 174.00 85.25 174.79 85.23 C 175.36 85.24 176.51 85.25 177.09 85.26 C 177.83 85.31 179.31 85.41 180.05 85.46 C 180.87 85.55 181.68 85.67 182.49 85.81 C 183.12 85.97 184.38 86.29 185.01 86.46 C 185.41 86.60 186.22 86.89 186.62 87.03 L 187.96 87.57 C 190.51 88.85 192.98 90.30 195.33 91.92 C 195.78 92.32 196.67 93.14 197.12 93.54 C 200.44 97.28 203.06 101.65 204.69 106.38 C 207.67 118.51 201.89 133.00 190.07 137.97 C 191.63 135.26 192.11 131.94 190.15 129.28 L 189.13 128.09 C 189.50 127.22 189.87 126.36 190.24 125.49 C 195.66 117.10 192.88 106.17 185.57 99.91 C 186.72 104.23 188.71 108.82 187.24 113.32 C 185.44 117.61 181.11 120.32 179.66 124.83 C 179.32 125.76 179.00 126.70 178.69 127.64 C 174.76 127.50 170.83 127.54 166.90 127.71 C 162.51 122.30 166.90 115.97 168.51 110.42 C 170.62 103.26 163.55 98.65 158.38 95.44 C 163.13 101.49 159.41 108.54 155.41 113.75 C 152.14 119.14 156.48 124.39 160.18 128.07 L 159.00 129.27 C 158.25 130.64 157.72 132.11 157.19 133.57 C 157.01 134.09 156.65 135.11 156.47 135.62 C 148.63 130.04 144.18 119.88 145.62 110.34 C 145.74 109.63 145.98 108.21 146.10 107.50 L 146.29 106.48 C 146.57 105.53 146.89 104.58 147.23 103.65 C 147.36 103.32 147.63 102.67 147.76 102.34 C 148.05 101.73 148.64 100.49 148.94 99.87 C 149.37 99.04 149.82 98.23 150.31 97.43 C 150.88 96.68 151.48 95.95 152.11 95.25 C 152.73 94.62 153.36 94.00 154.01 93.40 C 154.74 92.75 155.49 92.13 156.25 91.52 C 157.09 90.88 157.95 90.27 158.84 89.69 C 159.44 89.33 160.64 88.63 161.24 88.27 C 161.62 88.09 162.38 87.72 162.76 87.53 C 163.36 87.31 164.57 86.86 165.17 86.64 M 172.49 110.39 C 173.67 115.12 171.95 119.73 169.04 123.43 C 174.60 124.88 179.27 121.22 181.54 116.39 C 186.83 106.70 170.42 97.85 179.44 88.85 C 170.58 92.32 169.84 102.49 172.49 110.39 Z" />
<path fill="#fefefe" opacity="1.00" d=" M 289.56 111.42 C 292.89 108.30 296.28 105.24 299.65 102.16 C 305.13 111.44 309.80 121.32 311.84 131.97 L 310.30 131.38 C 304.48 128.25 298.69 125.07 292.84 121.99 C 290.57 126.73 288.49 131.59 287.35 136.75 C 284.19 132.69 281.22 128.19 281.59 122.79 C 279.92 122.65 278.26 122.49 276.59 122.41 C 272.06 116.75 266.91 111.61 262.67 105.73 C 263.96 105.75 265.25 105.85 266.54 106.04 C 273.65 109.29 281.47 115.00 289.56 111.42 Z" />
<path fill="#fefefe" opacity="1.00" d=" M 51.55 103.13 C 55.88 105.06 58.58 109.15 62.32 111.89 C 72.05 115.33 79.38 105.80 88.59 105.86 C 84.96 111.97 79.64 116.80 75.39 122.45 C 73.59 122.49 71.79 122.64 70.00 122.76 C 70.70 128.58 67.16 133.23 63.94 137.63 C 62.62 132.22 60.65 127.00 58.28 121.98 C 52.22 125.14 46.21 128.40 40.21 131.69 C 41.31 121.33 46.57 112.07 51.55 103.13 Z" />
<path fill="#fefefe" opacity="1.00" d=" M 166.31 144.62 C 171.71 144.13 177.31 144.00 182.68 144.67 L 182.83 146.46 C 177.29 146.47 171.76 146.47 166.22 146.46 L 166.31 144.62 Z" />
<path fill="#fefefe" opacity="1.00" d=" M 239.74 199.24 C 243.61 198.56 247.53 198.20 251.42 197.67 C 251.50 198.72 251.58 199.76 251.66 200.81 C 247.68 200.40 243.69 199.91 239.74 199.24 Z" />
<path fill="#fefefe" opacity="1.00" d=" M 143.39 242.11 C 153.37 244.75 165.83 236.58 173.90 245.22 C 174.67 252.00 174.11 258.89 174.62 265.72 C 174.18 265.56 173.30 265.26 172.86 265.11 C 169.23 263.36 165.38 261.85 161.30 261.82 C 157.78 261.52 154.24 261.57 150.73 261.88 C 146.65 262.03 142.75 263.28 138.89 264.49 C 140.16 256.99 141.93 249.58 143.39 242.11 Z" />
<path fill="#fefefe" opacity="1.00" d=" M 175.14 245.20 C 184.08 235.47 196.54 245.81 207.01 242.49 C 208.24 249.84 210.29 257.07 210.99 264.50 C 210.52 264.39 209.60 264.17 209.14 264.05 C 199.80 262.18 189.89 261.28 180.67 264.25 C 178.97 264.74 177.34 265.43 175.70 266.07 C 175.65 259.11 175.41 252.15 175.14 245.20 Z" />
<path fill="#fefefe" opacity="1.00" d=" M 103.60 267.17 C 105.49 266.76 107.40 266.38 109.31 266.05 C 110.00 270.28 104.60 271.11 103.60 267.17 Z" />
<path fill="#fefefe" opacity="1.00" d=" M 105.96 287.19 C 109.40 285.71 112.80 284.12 116.31 282.82 C 113.44 285.44 110.20 287.59 107.07 289.88 C 106.70 288.98 106.33 288.08 105.96 287.19 Z" />
<path fill="#fefefe" opacity="1.00" d=" M 228.65 294.43 C 229.32 293.95 230.66 293.01 231.33 292.54 C 233.64 294.05 235.76 296.58 233.24 299.07 C 231.66 297.56 230.12 296.02 228.65 294.43 Z" />
<path fill="#fefefe" opacity="1.00" d=" M 131.68 316.74 C 133.65 313.46 135.86 310.33 138.40 307.48 C 137.15 311.03 135.58 314.46 134.09 317.91 C 133.49 317.62 132.29 317.03 131.68 316.74 Z" />
<path fill="#fefefe" opacity="1.00" d=" M 64.02 361.02 C 75.90 357.27 86.22 348.67 98.98 347.88 C 103.98 347.33 108.71 349.53 112.21 352.98 C 112.13 355.26 112.05 357.55 111.98 359.84 C 126.07 357.21 140.36 355.95 154.63 354.73 C 160.43 355.29 166.23 355.99 172.07 356.02 C 166.85 358.87 165.81 366.71 170.48 370.54 C 174.88 373.70 181.67 371.24 182.40 365.65 C 179.00 365.61 177.50 370.18 174.03 369.37 C 168.96 368.15 169.08 359.24 174.18 358.22 C 177.35 357.56 179.05 361.75 182.34 361.08 C 181.25 359.37 180.07 357.71 178.86 356.09 C 184.06 355.90 189.23 355.17 194.41 354.72 C 203.59 355.37 212.73 356.38 221.87 357.39 C 218.74 362.53 215.70 367.76 213.40 373.34 C 216.05 373.19 217.52 371.23 218.62 369.07 C 220.51 369.15 222.41 369.26 224.31 369.37 C 224.88 370.96 225.46 372.56 226.04 374.15 C 226.76 374.18 228.18 374.25 228.90 374.28 C 227.15 368.70 225.70 363.03 223.63 357.57 C 228.50 358.27 233.37 359.04 238.22 359.91 C 238.14 357.60 238.05 355.29 237.95 352.99 C 241.17 349.86 245.36 347.58 249.98 347.86 C 262.66 348.07 273.02 356.44 284.59 360.50 C 292.85 363.64 301.82 363.68 310.32 365.84 C 307.61 367.24 305.03 368.88 302.53 370.63 C 304.67 371.60 306.81 372.55 308.98 373.47 C 292.69 376.15 276.69 369.44 262.17 362.74 C 254.69 359.12 245.25 358.19 238.48 363.84 C 238.52 366.53 238.51 369.22 238.56 371.91 C 240.03 378.48 248.95 376.31 253.38 379.83 C 227.47 373.31 200.58 372.51 174.00 372.79 C 148.02 372.50 121.81 373.64 96.50 379.94 C 101.03 376.58 108.38 378.37 111.54 372.97 C 111.53 369.91 112.00 366.75 111.26 363.75 C 104.99 358.08 95.70 359.22 88.57 362.50 C 73.84 369.21 57.69 376.22 41.17 373.47 C 43.34 372.55 45.50 371.60 47.64 370.62 C 45.12 368.87 42.50 367.27 39.78 365.86 C 47.75 363.73 56.18 363.75 64.02 361.02 M 149.45 356.37 C 147.53 361.59 145.63 366.82 143.90 372.11 C 144.64 372.06 146.13 371.98 146.87 371.93 C 147.42 370.42 147.98 368.92 148.53 367.42 C 150.49 367.37 152.44 367.31 154.40 367.28 C 155.35 369.62 156.52 372.57 159.73 371.47 C 157.14 366.35 154.71 361.16 151.96 356.14 C 151.34 356.19 150.08 356.31 149.45 356.37 M 192.46 355.87 C 192.32 361.04 191.92 366.20 191.60 371.37 C 192.28 371.40 193.65 371.46 194.33 371.49 C 194.56 367.87 194.73 364.25 194.90 360.64 C 197.35 364.36 199.70 368.14 202.08 371.91 C 202.73 371.91 204.03 371.91 204.68 371.91 C 204.93 366.79 205.37 361.68 205.57 356.56 C 204.87 356.56 203.46 356.56 202.75 356.57 C 202.60 360.12 202.47 363.67 202.27 367.23 C 198.94 363.66 197.90 356.16 192.46 355.87 M 123.58 358.51 C 123.65 359.09 123.79 360.25 123.86 360.83 C 125.60 360.70 127.34 360.57 129.09 360.45 C 129.50 364.66 130.00 368.85 130.45 373.06 C 131.17 373.11 132.61 373.23 133.33 373.28 C 132.82 368.86 132.25 364.45 132.03 360.00 C 134.02 359.59 137.22 360.51 137.34 357.55 C 132.74 357.75 128.17 358.31 123.58 358.51 Z" />
<path fill="#fefefe" opacity="1.00" d=" M 150.82 359.81 C 151.77 361.48 152.64 363.18 153.48 364.91 C 152.01 364.92 150.55 364.92 149.08 364.93 C 149.64 363.21 150.23 361.51 150.82 359.81 Z" />
<path fill="#fefefe" opacity="1.00" d=" M 219.66 366.74 C 220.52 365.05 221.37 363.38 222.25 361.71 C 222.77 363.49 223.28 365.27 223.79 367.06 C 222.41 366.95 221.03 366.84 219.66 366.74 Z" />
</g>
<g id="#912a2aff">
<path fill="#912a2a" opacity="1.00" d=" M 237.43 23.55 C 239.90 22.53 245.24 23.39 244.15 26.98 C 237.20 23.38 233.83 31.97 231.99 37.10 C 230.30 40.39 233.70 42.51 236.36 43.35 C 235.63 44.15 234.91 44.96 234.19 45.76 C 230.85 44.45 227.24 41.45 228.49 37.42 C 230.17 32.25 232.17 26.07 237.43 23.55 Z" />
</g>
<g id="#922d2dff">
<path fill="#922d2d" opacity="1.00" d=" M 101.11 29.46 C 104.07 28.09 107.97 25.03 110.93 28.08 C 113.93 30.38 113.74 34.25 113.29 37.58 C 115.91 40.15 118.90 42.31 121.47 44.94 C 120.39 45.31 119.31 45.68 118.23 46.04 C 115.52 43.55 112.92 40.94 109.94 38.75 C 111.54 41.87 113.30 44.90 114.98 47.97 C 114.04 48.45 113.10 48.94 112.17 49.42 C 108.42 42.80 104.58 36.23 101.11 29.46 M 104.96 29.78 C 106.17 32.23 107.51 34.61 108.88 36.96 C 109.43 36.38 110.52 35.23 111.07 34.65 C 110.23 31.87 108.39 28.71 104.96 29.78 Z" />
<path fill="#922d2d" opacity="1.00" d=" M 238.82 47.75 C 242.13 40.75 245.86 33.95 249.75 27.27 C 250.40 27.72 251.68 28.62 252.33 29.07 C 248.62 35.61 245.22 42.31 241.59 48.88 C 240.66 48.50 239.74 48.13 238.82 47.75 Z" />
</g>
<g id="#932f2fff">
<path fill="#932f2f" opacity="1.00" d=" M 89.55 36.11 C 92.04 34.70 94.51 33.26 97.00 31.85 C 97.33 32.72 97.66 33.58 97.99 34.45 C 96.52 35.23 95.05 36.00 93.59 36.79 C 94.91 38.77 96.23 40.76 97.53 42.76 C 99.00 41.97 100.48 41.17 101.97 40.39 C 102.24 40.98 102.78 42.17 103.06 42.77 C 101.68 43.55 100.31 44.34 98.95 45.12 C 100.32 47.26 101.70 49.38 103.10 51.50 C 104.74 50.69 106.38 49.87 108.03 49.05 C 108.33 49.83 108.60 50.62 108.83 51.42 C 106.46 52.72 104.12 54.08 101.81 55.48 C 97.64 49.08 93.60 42.59 89.55 36.11 Z" />
<path fill="#932f2f" opacity="1.00" d=" M 51.00 70.02 C 56.20 73.84 61.75 77.19 66.81 81.19 C 71.34 84.75 64.98 92.62 60.41 89.54 C 54.90 86.04 49.46 82.36 44.31 78.34 C 44.79 77.80 45.75 76.71 46.23 76.17 C 51.61 79.66 56.61 83.76 62.20 86.90 C 63.79 88.29 66.82 85.42 65.10 83.94 C 60.09 79.57 54.14 76.41 48.94 72.27 C 49.63 71.52 50.31 70.77 51.00 70.02 Z" />
</g>
<g id="#943232ff">
<path fill="#943232" opacity="1.00" d=" M 260.38 34.46 C 264.30 34.09 269.32 37.86 267.28 42.12 C 265.14 46.73 262.22 51.10 258.58 54.67 C 254.50 58.61 245.94 53.43 248.90 47.99 C 251.77 42.97 254.59 36.51 260.38 34.46 M 260.57 37.52 C 257.30 39.99 255.30 43.72 253.09 47.08 C 251.36 49.39 251.11 52.31 253.89 53.92 C 258.69 50.95 261.64 45.82 264.05 40.88 C 265.54 38.86 262.47 35.92 260.57 37.52 Z" />
</g>
<g id="#973636ff">
<path fill="#973636" opacity="1.00" d=" M 82.00 41.05 C 82.94 40.54 83.88 40.04 84.82 39.54 C 88.18 46.43 91.88 53.15 95.28 60.03 C 94.76 60.41 93.71 61.16 93.18 61.54 C 87.13 56.50 80.94 51.63 74.89 46.59 C 75.79 46.02 76.69 45.44 77.60 44.87 C 81.80 48.65 86.07 52.35 90.29 56.11 C 87.79 50.95 84.81 46.04 82.00 41.05 Z" />
<path fill="#973636" opacity="1.00" d=" M 61.40 58.69 C 62.11 58.00 62.82 57.31 63.54 56.63 C 69.23 61.85 75.04 66.93 80.85 72.02 C 80.37 72.47 79.42 73.39 78.94 73.84 C 73.83 71.61 68.59 69.68 63.40 67.64 C 67.05 71.30 71.10 74.50 74.91 77.98 C 74.41 78.51 73.41 79.57 72.90 80.10 C 67.16 74.70 60.86 69.90 55.42 64.20 C 61.21 61.99 67.30 67.94 73.22 69.10 C 69.38 65.52 65.33 62.17 61.40 58.69 Z" />
</g>
<g id="#0085c0ff">
<path fill="#0085c0" opacity="1.00" d=" M 158.59 43.77 C 162.09 43.38 165.61 43.13 169.14 42.93 C 169.78 53.27 170.19 63.63 170.90 73.98 C 169.50 74.42 168.10 74.87 166.71 75.32 C 164.08 64.78 161.05 54.35 158.59 43.77 Z" />
<path fill="#0085c0" opacity="1.00" d=" M 172.03 42.81 C 174.91 42.75 177.80 42.75 180.68 42.83 C 179.99 53.17 179.07 63.49 178.10 73.80 C 176.73 73.81 175.37 73.81 174.00 73.82 C 173.30 63.49 172.65 53.15 172.03 42.81 Z" />
</g>
<g id="#b2382cff">
<path fill="#b2382c" opacity="1.00" d=" M 169.14 42.93 C 169.86 42.90 171.31 42.84 172.03 42.81 C 172.65 53.15 173.30 63.49 174.00 73.82 C 174.27 77.62 174.51 81.42 174.79 85.23 C 174.00 85.25 172.43 85.30 171.64 85.33 C 171.39 81.54 171.15 77.76 170.90 73.98 C 170.19 63.63 169.78 53.27 169.14 42.93 Z" />
</g>
<g id="#b8372aff">
<path fill="#b8372a" opacity="1.00" d=" M 180.68 42.83 C 181.45 42.87 183.00 42.94 183.78 42.97 C 182.72 53.64 181.88 64.33 180.91 75.00 C 180.59 78.48 180.31 81.97 180.05 85.46 C 179.31 85.41 177.83 85.31 177.09 85.26 C 177.42 81.44 177.74 77.62 178.10 73.80 C 179.07 63.49 179.99 53.17 180.68 42.83 Z" />
</g>
<g id="#0085bfff">
<path fill="#0085bf" opacity="1.00" d=" M 183.78 42.97 C 187.32 43.20 190.86 43.49 194.38 43.92 C 191.27 54.63 188.27 65.37 185.14 76.08 C 183.73 75.71 182.32 75.36 180.91 75.00 C 181.88 64.33 182.72 53.64 183.78 42.97 Z" />
<path fill="#0085bf" opacity="1.00" d=" M 144.59 46.04 C 148.18 45.32 151.80 44.74 155.42 44.18 C 158.37 54.29 160.65 64.58 163.51 74.71 C 162.55 75.61 161.59 76.52 160.63 77.42 C 155.26 66.97 149.93 56.50 144.59 46.04 Z" />
<path fill="#0085bf" opacity="1.00" d=" M 188.63 74.89 C 191.54 64.69 194.32 54.46 197.48 44.34 C 200.81 44.89 204.15 45.43 207.46 46.12 C 202.13 56.93 196.36 67.51 190.82 78.21 C 190.09 77.10 189.36 75.99 188.63 74.89 Z" />
<path fill="#0085bf" opacity="1.00" d=" M 122.07 53.44 C 125.01 52.15 128.01 50.97 131.05 49.93 C 138.27 60.62 145.75 71.14 153.09 81.76 C 151.98 82.60 150.87 83.45 149.76 84.30 C 140.54 74.00 131.26 63.76 122.07 53.44 Z" />
<path fill="#0085bf" opacity="1.00" d=" M 221.33 50.18 C 224.30 51.23 227.21 52.44 230.09 53.71 C 220.27 64.05 210.82 74.73 201.11 85.17 C 200.34 84.05 199.57 82.93 198.80 81.81 C 206.26 71.23 213.98 60.84 221.33 50.18 Z" />
<path fill="#0085bf" opacity="1.00" d=" M 208.05 92.09 C 220.68 82.17 233.45 72.44 246.00 62.42 C 248.79 64.32 251.55 66.28 254.23 68.34 C 239.73 77.42 225.06 86.23 210.47 95.17 C 209.66 94.14 208.86 93.12 208.05 92.09 Z" />
<path fill="#0085bf" opacity="1.00" d=" M 86.40 78.40 C 89.37 75.51 92.37 72.66 95.51 69.95 C 109.79 79.46 124.65 88.10 139.16 97.26 C 138.41 97.98 137.66 98.71 136.91 99.43 C 120.10 92.35 103.14 85.65 86.40 78.40 Z" />
<path fill="#0085bf" opacity="1.00" d=" M 256.49 70.16 C 259.62 72.82 262.63 75.62 265.56 78.50 C 248.08 86.01 230.39 93.04 212.77 100.23 C 212.21 99.84 211.09 99.07 210.53 98.68 C 225.73 88.98 241.49 80.17 256.49 70.16 Z" />
<path fill="#0085bf" opacity="1.00" d=" M 84.26 80.65 C 101.42 88.07 118.79 95.00 136.05 102.18 C 135.28 102.97 134.51 103.75 133.74 104.54 C 114.61 99.61 95.35 95.19 76.24 90.16 C 78.91 86.98 81.53 83.77 84.26 80.65 Z" />
<path fill="#0085bf" opacity="1.00" d=" M 212.27 103.79 C 230.60 95.78 249.41 88.89 267.65 80.69 C 270.37 83.65 272.96 86.74 275.47 89.88 C 255.15 94.94 234.89 100.27 214.54 105.23 C 213.97 104.87 212.84 104.15 212.27 103.79 Z" />
</g>
<g id="#b6382cff">
<path fill="#b6382c" opacity="1.00" d=" M 155.42 44.18 C 156.47 44.03 157.53 43.89 158.59 43.77 C 161.05 54.35 164.08 64.78 166.71 75.32 C 167.60 78.53 168.41 81.76 169.14 85.01 C 168.38 85.07 166.87 85.18 166.11 85.23 C 165.25 81.73 164.41 78.21 163.51 74.71 C 160.65 64.58 158.37 54.29 155.42 44.18 Z" />
</g>
<g id="#b5382dff">
<path fill="#b5382d" opacity="1.00" d=" M 194.38 43.92 C 195.41 44.05 196.45 44.18 197.48 44.34 C 194.32 54.46 191.54 64.69 188.63 74.89 C 187.50 78.77 186.32 82.63 185.01 86.46 C 184.38 86.29 183.12 85.97 182.49 85.81 C 183.35 82.56 184.26 79.32 185.14 76.08 C 188.27 65.37 191.27 54.63 194.38 43.92 Z" />
<path fill="#b5382d" opacity="1.00" d=" M 254.23 68.34 C 254.99 68.94 255.74 69.55 256.49 70.16 C 241.49 80.17 225.73 88.98 210.53 98.68 C 208.46 99.86 206.39 101.03 204.31 102.19 C 203.96 101.63 203.24 100.49 202.88 99.93 C 205.40 98.31 207.92 96.72 210.47 95.17 C 225.06 86.23 239.73 77.42 254.23 68.34 Z" />
</g>
<g id="#963636ff">
<path fill="#963636" opacity="1.00" d=" M 275.10 44.03 C 275.67 44.27 276.82 44.74 277.39 44.98 C 275.67 50.18 273.31 55.15 271.78 60.41 C 275.35 56.70 278.49 52.60 282.08 48.90 C 282.72 49.56 283.37 50.21 284.02 50.85 C 279.17 56.37 274.46 62.05 269.36 67.32 C 268.19 68.99 266.82 66.53 267.39 65.33 C 268.76 60.54 271.10 56.09 272.60 51.34 C 268.86 54.92 265.86 59.18 262.12 62.75 C 261.61 62.31 260.60 61.41 260.09 60.96 C 265.04 55.27 269.96 49.53 275.10 44.03 Z" />
</g>
<g id="#b4392dff">
<path fill="#b4392d" opacity="1.00" d=" M 141.68 46.72 C 142.65 46.48 143.62 46.25 144.59 46.04 C 149.93 56.50 155.26 66.97 160.63 77.42 C 162.22 80.45 163.78 83.50 165.17 86.64 C 164.57 86.86 163.36 87.31 162.76 87.53 C 160.71 84.46 159.15 81.10 157.47 77.82 C 152.24 67.44 146.77 57.17 141.68 46.72 Z" />
</g>
<g id="#b6382dff">
<path fill="#b6382d" opacity="1.00" d=" M 207.46 46.12 C 208.48 46.35 209.50 46.60 210.52 46.87 C 204.97 57.73 199.17 68.47 193.66 79.35 C 191.99 82.21 190.95 85.77 187.96 87.57 L 186.62 87.03 C 187.87 84.02 189.31 81.10 190.82 78.21 C 196.36 67.51 202.13 56.93 207.46 46.12 Z" />
</g>
<g id="#0186c0ff">
<path fill="#0186c0" opacity="1.00" d=" M 133.90 48.99 C 136.48 48.19 139.07 47.41 141.68 46.72 C 146.77 57.17 152.24 67.44 157.47 77.82 C 156.86 78.19 155.63 78.92 155.01 79.29 C 147.98 69.19 141.01 59.04 133.90 48.99 Z" />
</g>
<g id="#0185c0ff">
<path fill="#0185c0" opacity="1.00" d=" M 210.52 46.87 C 213.14 47.59 215.74 48.38 218.33 49.19 C 210.78 60.10 202.95 70.83 195.21 81.61 C 194.82 81.04 194.05 79.92 193.66 79.35 C 199.17 68.47 204.97 57.73 210.52 46.87 Z" />
</g>
<g id="#b23a30ff">
<path fill="#b23a30" opacity="1.00" d=" M 131.05 49.93 C 131.99 49.60 132.94 49.29 133.90 48.99 C 141.01 59.04 147.98 69.19 155.01 79.29 C 157.09 82.28 159.17 85.27 161.24 88.27 C 160.64 88.63 159.44 89.33 158.84 89.69 C 156.85 87.09 154.95 84.44 153.09 81.76 C 145.75 71.14 138.27 60.62 131.05 49.93 Z" />
<path fill="#b23a30" opacity="1.00" d=" M 218.33 49.19 C 219.33 49.51 220.33 49.84 221.33 50.18 C 213.98 60.84 206.26 71.23 198.80 81.81 C 196.90 84.46 194.98 87.09 193.05 89.72 C 192.48 89.28 191.33 88.40 190.76 87.95 C 192.26 85.85 193.76 83.75 195.21 81.61 C 202.95 70.83 210.78 60.10 218.33 49.19 Z" />
</g>
<g id="#983939ff">
<path fill="#983939" opacity="1.00" d=" M 68.91 51.86 C 69.77 51.17 70.65 50.50 71.53 49.84 C 76.63 55.61 81.95 61.20 87.11 66.93 C 86.22 67.58 85.35 68.24 84.47 68.89 C 79.33 63.17 74.10 57.53 68.91 51.86 Z" />
</g>
<g id="#a93f38ff">
<path fill="#a93f38" opacity="1.00" d=" M 119.30 54.73 C 120.21 54.29 121.14 53.86 122.07 53.44 C 131.26 63.76 140.54 74.00 149.76 84.30 C 151.91 86.71 154.08 89.12 156.25 91.52 C 155.49 92.13 154.74 92.75 154.01 93.40 C 151.67 90.95 149.39 88.44 147.13 85.92 C 137.88 75.50 128.37 65.30 119.30 54.73 Z" />
</g>
<g id="#aa3e37ff">
<path fill="#aa3e37" opacity="1.00" d=" M 201.11 85.17 C 210.82 74.73 220.27 64.05 230.09 53.71 C 230.75 54.01 232.05 54.62 232.71 54.92 C 223.33 65.79 213.34 76.12 203.76 86.80 C 201.64 89.14 199.44 91.40 197.12 93.54 C 196.67 93.14 195.78 92.32 195.33 91.92 C 197.18 89.60 199.10 87.35 201.11 85.17 Z" />
</g>
<g id="#0085beff">
<path fill="#0085be" opacity="1.00" d=" M 109.49 60.00 C 112.70 58.14 115.96 56.35 119.30 54.73 C 128.37 65.30 137.88 75.50 147.13 85.92 C 146.35 86.99 145.57 88.06 144.79 89.13 C 133.03 79.42 121.22 69.75 109.49 60.00 Z" />
<path fill="#0085be" opacity="1.00" d=" M 97.69 68.16 C 100.68 65.89 103.75 63.73 106.86 61.64 C 118.54 71.51 130.44 81.10 142.19 90.87 C 141.45 92.02 140.70 93.16 139.95 94.30 C 125.87 85.59 111.79 76.86 97.69 68.16 Z" />
</g>
<g id="#0084beff">
<path fill="#0084be" opacity="1.00" d=" M 232.71 54.92 C 236.35 56.69 239.88 58.68 243.37 60.74 C 231.16 70.34 218.88 79.86 206.62 89.39 C 205.67 88.53 204.71 87.67 203.76 86.80 C 213.34 76.12 223.33 65.79 232.71 54.92 Z" />
</g>
<g id="#ae3d35ff">
<path fill="#ae3d35" opacity="1.00" d=" M 106.86 61.64 C 107.73 61.07 108.60 60.53 109.49 60.00 C 121.22 69.75 133.03 79.42 144.79 89.13 C 147.24 91.16 149.69 93.20 152.11 95.25 C 151.48 95.95 150.88 96.68 150.31 97.43 C 147.57 95.28 144.87 93.09 142.19 90.87 C 130.44 81.10 118.54 71.51 106.86 61.64 Z" />
</g>
<g id="#b03c33ff">
<path fill="#b03c33" opacity="1.00" d=" M 206.62 89.39 C 218.88 79.86 231.16 70.34 243.37 60.74 C 244.25 61.28 245.13 61.84 246.00 62.42 C 233.45 72.44 220.68 82.17 208.05 92.09 C 205.80 93.85 203.52 95.56 201.22 97.23 C 200.82 96.66 200.04 95.52 199.65 94.95 C 201.95 93.07 204.27 91.21 206.62 89.39 Z" />
</g>
<g id="#b5392dff">
<path fill="#b5392d" opacity="1.00" d=" M 95.51 69.95 C 96.22 69.34 96.95 68.74 97.69 68.16 C 111.79 76.86 125.87 85.59 139.95 94.30 C 142.95 96.16 145.94 98.01 148.94 99.87 C 148.64 100.49 148.05 101.73 147.76 102.34 C 144.84 100.74 141.98 99.03 139.16 97.26 C 124.65 88.10 109.79 79.46 95.51 69.95 Z" />
</g>
<g id="#953333ff">
<path fill="#953333" opacity="1.00" d=" M 282.10 82.37 C 288.38 77.85 294.45 73.05 300.80 68.62 C 301.49 69.37 302.18 70.13 302.88 70.88 C 297.36 75.04 291.82 79.14 286.26 83.23 C 287.33 84.52 288.41 85.81 289.49 87.11 C 289.05 87.57 288.18 88.50 287.74 88.96 C 285.73 86.88 283.82 84.69 282.10 82.37 Z" />
</g>
<g id="#3eafdaff">
<path fill="#3eafda" opacity="1.00" d=" M 166.71 75.32 C 168.10 74.87 169.50 74.42 170.90 73.98 C 171.15 77.76 171.39 81.54 171.64 85.33 C 169.44 85.53 167.27 85.97 165.17 86.64 C 163.78 83.50 162.22 80.45 160.63 77.42 C 161.59 76.52 162.55 75.61 163.51 74.71 C 164.41 78.21 165.25 81.73 166.11 85.23 C 166.87 85.18 168.38 85.07 169.14 85.01 C 168.41 81.76 167.60 78.53 166.71 75.32 Z" />
</g>
<g id="#42b1deff">
<path fill="#42b1de" opacity="1.00" d=" M 174.00 73.82 C 175.37 73.81 176.73 73.81 178.10 73.80 C 177.74 77.62 177.42 81.44 177.09 85.26 C 176.51 85.25 175.36 85.24 174.79 85.23 C 174.51 81.42 174.27 77.62 174.00 73.82 Z" />
</g>
<g id="#54b7dfff">
<path fill="#54b7df" opacity="1.00" d=" M 180.91 75.00 C 182.32 75.36 183.73 75.71 185.14 76.08 C 184.26 79.32 183.35 82.56 182.49 85.81 C 181.68 85.67 180.87 85.55 180.05 85.46 C 180.31 81.97 180.59 78.48 180.91 75.00 Z" />
</g>
<g id="#4eabd2ff">
<path fill="#4eabd2" opacity="1.00" d=" M 185.01 86.46 C 186.32 82.63 187.50 78.77 188.63 74.89 C 189.36 75.99 190.09 77.10 190.82 78.21 C 189.31 81.10 187.87 84.02 186.62 87.03 C 186.22 86.89 185.41 86.60 185.01 86.46 Z" />
<path fill="#4eabd2" opacity="1.00" d=" M 139.16 97.26 C 141.98 99.03 144.84 100.74 147.76 102.34 C 147.63 102.67 147.36 103.32 147.23 103.65 C 143.79 102.23 140.34 100.86 136.91 99.43 C 137.66 98.71 138.41 97.98 139.16 97.26 Z" />
<path fill="#4eabd2" opacity="1.00" d=" M 136.86 108.24 C 138.50 108.66 140.13 109.08 141.77 109.46 C 138.75 117.17 142.45 125.75 146.88 132.13 C 151.86 137.69 157.59 144.57 165.76 144.47 C 165.81 144.79 165.91 145.43 165.96 145.75 C 165.39 146.71 164.81 147.67 164.24 148.62 C 147.63 143.49 134.31 126.02 136.86 108.24 Z" />
</g>
<g id="#b6392dff">
<path fill="#b6392d" opacity="1.00" d=" M 84.26 80.65 C 84.96 79.88 85.67 79.13 86.40 78.40 C 103.14 85.65 120.10 92.35 136.91 99.43 C 140.34 100.86 143.79 102.23 147.23 103.65 C 146.89 104.58 146.57 105.53 146.29 106.48 C 142.92 104.94 139.46 103.60 136.05 102.18 C 118.79 95.00 101.42 88.07 84.26 80.65 Z" />
<path fill="#b6392d" opacity="1.00" d=" M 265.56 78.50 C 266.27 79.21 266.95 79.95 267.65 80.69 C 249.41 88.89 230.60 95.78 212.27 103.79 C 209.76 104.70 207.23 105.57 204.69 106.38 C 204.85 105.62 205.18 104.10 205.34 103.34 C 207.82 102.30 210.28 101.23 212.77 100.23 C 230.39 93.04 248.08 86.01 265.56 78.50 Z" />
</g>
<g id="#4eafd7ff">
<path fill="#4eafd7" opacity="1.00" d=" M 157.47 77.82 C 159.15 81.10 160.71 84.46 162.76 87.53 C 162.38 87.72 161.62 88.09 161.24 88.27 C 159.17 85.27 157.09 82.28 155.01 79.29 C 155.63 78.92 156.86 78.19 157.47 77.82 Z" />
</g>
<g id="#4ba8d0ff">
<path fill="#4ba8d0" opacity="1.00" d=" M 187.96 87.57 C 190.95 85.77 191.99 82.21 193.66 79.35 C 194.05 79.92 194.82 81.04 195.21 81.61 C 193.76 83.75 192.26 85.85 190.76 87.95 C 191.33 88.40 192.48 89.28 193.05 89.72 C 194.98 87.09 196.90 84.46 198.80 81.81 C 199.57 82.93 200.34 84.05 201.11 85.17 C 199.10 87.35 197.18 89.60 195.33 91.92 C 192.98 90.30 190.51 88.85 187.96 87.57 Z" />
<path fill="#4ba8d0" opacity="1.00" d=" M 197.12 93.54 C 199.44 91.40 201.64 89.14 203.76 86.80 C 204.71 87.67 205.67 88.53 206.62 89.39 C 204.27 91.21 201.95 93.07 199.65 94.95 C 200.04 95.52 200.82 96.66 201.22 97.23 C 203.52 95.56 205.80 93.85 208.05 92.09 C 208.86 93.12 209.66 94.14 210.47 95.17 C 207.92 96.72 205.40 98.31 202.88 99.93 C 203.24 100.49 203.96 101.63 204.31 102.19 C 206.39 101.03 208.46 99.86 210.53 98.68 C 211.09 99.07 212.21 99.84 212.77 100.23 C 210.28 101.23 207.82 102.30 205.34 103.34 C 205.18 104.10 204.85 105.62 204.69 106.38 C 203.06 101.65 200.44 97.28 197.12 93.54 Z" />
</g>
<g id="#56afd4ff">
<path fill="#56afd4" opacity="1.00" d=" M 149.76 84.30 C 150.87 83.45 151.98 82.60 153.09 81.76 C 154.95 84.44 156.85 87.09 158.84 89.69 C 157.95 90.27 157.09 90.88 156.25 91.52 C 154.08 89.12 151.91 86.71 149.76 84.30 Z" />
</g>
<g id="#50afd6ff">
<path fill="#50afd6" opacity="1.00" d=" M 147.13 85.92 C 149.39 88.44 151.67 90.95 154.01 93.40 C 153.36 94.00 152.73 94.62 152.11 95.25 C 149.69 93.20 147.24 91.16 144.79 89.13 C 145.57 88.06 146.35 86.99 147.13 85.92 Z" />
</g>
<g id="#ff0000ff">
<path fill="#ff0000" opacity="1.00" d=" M 172.49 110.39 C 169.84 102.49 170.58 92.32 179.44 88.85 C 170.42 97.85 186.83 106.70 181.54 116.39 C 181.47 112.42 181.11 108.33 178.95 104.87 C 177.04 107.26 176.78 110.32 176.58 113.25 C 175.96 111.52 175.33 109.79 174.68 108.07 C 173.95 108.84 173.22 109.62 172.49 110.39 Z" />
<path fill="#ff0000" opacity="1.00" d=" M 158.38 95.44 C 163.55 98.65 170.62 103.26 168.51 110.42 C 166.98 111.58 165.49 112.77 164.01 113.99 C 164.07 113.13 164.20 111.42 164.26 110.56 C 162.86 111.72 161.46 112.89 160.07 114.07 C 160.28 112.93 160.49 111.80 160.70 110.67 C 158.94 111.71 157.19 112.75 155.41 113.75 C 159.41 108.54 163.13 101.49 158.38 95.44 Z" />
<path fill="#ff0000" opacity="1.00" d=" M 185.57 99.91 C 192.88 106.17 195.66 117.10 190.24 125.49 C 190.29 123.62 190.29 121.76 190.29 119.89 C 188.74 121.05 187.20 122.22 185.68 123.41 C 185.23 123.10 184.33 122.47 183.88 122.15 C 182.47 123.04 181.06 123.94 179.66 124.83 C 181.11 120.32 185.44 117.61 187.24 113.32 C 188.71 108.82 186.72 104.23 185.57 99.91 Z" />
</g>
<g id="#b7382cff">
<path fill="#b7382c" opacity="1.00" d=" M 74.34 92.61 C 74.95 91.77 75.59 90.96 76.24 90.16 C 95.35 95.19 114.61 99.61 133.74 104.54 C 137.85 105.58 141.98 106.53 146.10 107.50 C 145.98 108.21 145.74 109.63 145.62 110.34 C 144.34 110.05 143.05 109.76 141.77 109.46 C 140.13 109.08 138.50 108.66 136.86 108.24 C 136.18 108.06 134.82 107.72 134.15 107.54 C 132.85 107.21 131.56 106.89 130.26 106.57 C 111.62 101.94 92.90 97.56 74.34 92.61 Z" />
<path fill="#b7382c" opacity="1.00" d=" M 214.54 105.23 C 234.89 100.27 255.15 94.94 275.47 89.88 C 276.08 90.66 276.69 91.43 277.31 92.21 C 258.52 97.36 239.57 101.88 220.70 106.69 C 219.45 107.00 218.20 107.32 216.96 107.65 C 215.88 107.94 214.80 108.23 213.73 108.52 C 212.45 108.86 211.18 109.20 209.90 109.50 C 208.49 109.82 207.07 110.12 205.66 110.41 C 205.28 105.78 211.49 106.57 214.54 105.23 Z" />
</g>
<g id="#53afd6ff">
<path fill="#53afd6" opacity="1.00" d=" M 142.19 90.87 C 144.87 93.09 147.57 95.28 150.31 97.43 C 149.82 98.23 149.37 99.04 148.94 99.87 C 145.94 98.01 142.95 96.16 139.95 94.30 C 140.70 93.16 141.45 92.02 142.19 90.87 Z" />
</g>
<g id="#0084bdff">
<path fill="#0084bd" opacity="1.00" d=" M 220.70 106.69 C 239.57 101.88 258.52 97.36 277.31 92.21 C 277.48 92.44 277.84 92.89 278.01 93.11 C 273.33 99.43 264.70 100.05 259.55 105.69 C 259.60 112.76 266.35 117.23 270.24 122.49 C 254.08 122.71 237.90 122.64 221.74 122.53 L 220.41 122.50 C 221.08 117.26 220.87 111.96 220.70 106.69 Z" />
<path fill="#0084bd" opacity="1.00" d=" M 74.34 92.61 C 92.90 97.56 111.62 101.94 130.26 106.57 C 128.35 120.61 132.13 136.32 143.18 145.83 C 149.41 152.48 158.49 154.84 166.99 157.07 C 167.04 158.20 167.11 159.32 167.19 160.45 C 167.56 160.45 168.31 160.47 168.69 160.48 C 168.97 160.91 169.53 161.76 169.82 162.19 C 170.17 168.98 169.51 175.86 171.05 182.55 L 171.24 183.68 L 170.96 183.85 C 161.56 187.08 160.02 198.96 161.59 207.44 C 162.00 214.20 166.69 220.11 165.73 227.01 C 165.36 231.28 164.65 235.50 163.99 239.74 C 157.13 240.73 150.18 242.10 143.25 240.84 C 142.48 241.61 141.71 242.38 140.95 243.15 C 138.95 243.18 136.96 243.21 134.96 243.25 C 132.66 249.84 130.52 256.50 128.37 263.14 C 128.07 216.31 128.38 169.47 128.21 122.64 C 112.46 122.54 96.71 122.69 80.96 122.57 C 81.48 122.03 81.99 121.48 82.51 120.94 C 84.64 120.68 85.93 118.95 86.09 116.90 C 88.33 114.05 90.50 111.12 92.24 107.92 C 89.61 99.37 77.64 101.24 73.85 93.34 L 74.34 92.61 Z" />
<path fill="#0084bd" opacity="1.00" d=" M 213.02 140.03 C 217.00 135.15 217.53 128.64 220.32 123.16 C 219.50 166.93 220.36 210.73 219.87 254.51 C 218.69 250.85 217.53 247.19 216.45 243.50 C 206.08 241.82 195.66 241.88 185.40 239.29 C 185.13 234.10 184.03 229.03 182.88 223.98 C 181.75 219.06 185.10 214.85 186.35 210.35 C 186.86 204.18 185.94 198.03 184.61 192.04 C 184.66 188.10 184.58 180.52 178.70 181.79 C 179.12 174.79 177.91 167.37 180.50 160.73 C 180.97 160.23 181.45 159.73 181.95 159.25 C 185.39 155.90 190.29 155.20 194.65 153.69 C 202.09 151.37 208.28 146.08 213.02 140.03 Z" />
<path fill="#0084bd" opacity="1.00" d=" M 134.69 279.80 C 145.48 279.78 156.27 279.71 167.06 279.77 C 170.83 279.54 173.28 283.55 176.97 283.41 C 180.04 282.32 182.47 279.44 185.97 279.74 C 195.17 279.86 204.39 279.44 213.58 280.20 C 213.29 280.58 212.71 281.35 212.42 281.73 C 210.47 283.50 208.62 285.36 206.83 287.29 C 185.62 302.69 151.54 300.89 134.69 279.80 Z" />
</g>
<g id="#000000ff">
<path fill="#000000" opacity="1.00" d=" M 259.55 105.69 C 264.70 100.05 273.33 99.43 278.01 93.11 C 282.34 98.89 285.92 105.19 289.56 111.42 C 281.18 113.09 274.28 107.69 266.54 106.04 C 265.25 105.85 263.96 105.75 262.67 105.73 C 261.89 105.72 260.33 105.70 259.55 105.69 Z" />
<path fill="#000000" opacity="1.00" d=" M 62.32 111.89 C 66.11 105.67 69.72 99.34 73.85 93.34 C 77.64 101.24 89.61 99.37 92.24 107.92 C 91.03 107.23 89.82 106.51 88.59 105.86 C 79.38 105.80 72.05 115.33 62.32 111.89 Z" />
<path fill="#000000" opacity="1.00" d=" M 150.73 261.88 C 154.24 261.57 157.78 261.52 161.30 261.82 C 157.79 262.27 154.24 262.28 150.73 261.88 Z" />
<path fill="#000000" opacity="1.00" d=" M 180.67 264.25 C 189.89 261.28 199.80 262.18 209.14 264.05 C 209.26 264.45 209.49 265.25 209.61 265.64 C 200.12 262.96 190.35 264.09 180.67 264.25 Z" />
</g>
<g id="#ffff00ff">
<path fill="#ffff00" opacity="1.00" d=" M 48.22 98.99 C 49.34 100.36 50.43 101.76 51.55 103.13 C 46.57 112.07 41.31 121.33 40.21 131.69 C 37.94 132.93 35.69 134.20 33.42 135.42 C 35.54 122.34 41.43 110.24 48.22 98.99 Z" />
<path fill="#ffff00" opacity="1.00" d=" M 299.65 102.16 C 300.77 101.05 301.84 99.88 302.93 98.73 C 309.80 109.97 316.06 122.12 317.93 135.31 C 315.30 134.17 312.79 132.78 310.30 131.38 L 311.84 131.97 C 309.80 121.32 305.13 111.44 299.65 102.16 Z" />
<path fill="#ffff00" opacity="1.00" d=" M 88.59 105.86 C 89.82 106.51 91.03 107.23 92.24 107.92 C 90.50 111.12 88.33 114.05 86.09 116.90 C 84.26 117.57 82.95 119.04 82.51 120.94 C 81.99 121.48 81.48 122.03 80.96 122.57 C 79.10 122.52 77.25 122.45 75.39 122.45 C 79.64 116.80 84.96 111.97 88.59 105.86 Z" />
<path fill="#ffff00" opacity="1.00" d=" M 139.12 272.43 C 148.97 271.92 159.10 270.52 168.78 273.09 C 158.70 272.45 148.56 273.47 138.52 272.48 L 139.12 272.43 Z" />
</g>
<g id="#4da8ceff">
<path fill="#4da8ce" opacity="1.00" d=" M 136.05 102.18 C 139.46 103.60 142.92 104.94 146.29 106.48 L 146.10 107.50 C 141.98 106.53 137.85 105.58 133.74 104.54 C 134.51 103.75 135.28 102.97 136.05 102.18 Z" />
</g>
<g id="#6bb9daff">
<path fill="#6bb9da" opacity="1.00" d=" M 204.69 106.38 C 207.23 105.57 209.76 104.70 212.27 103.79 C 212.84 104.15 213.97 104.87 214.54 105.23 C 211.49 106.57 205.28 105.78 205.66 110.41 C 207.07 110.12 208.49 109.82 209.90 109.50 C 212.90 126.38 199.04 141.72 183.71 146.51 L 183.37 145.76 C 183.32 144.55 183.35 143.34 183.36 142.13 C 185.07 140.85 186.78 139.57 188.56 138.39 C 188.94 138.29 189.69 138.08 190.07 137.97 C 201.89 133.00 207.67 118.51 204.69 106.38 Z" />
</g>
<g id="#f3ed1dff">
<path fill="#f3ed1d" opacity="1.00" d=" M 176.58 113.25 C 176.78 110.32 177.04 107.26 178.95 104.87 C 181.11 108.33 181.47 112.42 181.54 116.39 C 179.27 121.22 174.60 124.88 169.04 123.43 C 171.95 119.73 173.67 115.12 172.49 110.39 C 173.22 109.62 173.95 108.84 174.68 108.07 C 175.33 109.79 175.96 111.52 176.58 113.25 Z" />
<path fill="#f3ed1d" opacity="1.00" d=" M 155.41 113.75 C 157.19 112.75 158.94 111.71 160.70 110.67 C 160.49 111.80 160.28 112.93 160.07 114.07 C 161.46 112.89 162.86 111.72 164.26 110.56 C 164.20 111.42 164.07 113.13 164.01 113.99 C 165.49 112.77 166.98 111.58 168.51 110.42 C 166.90 115.97 162.51 122.30 166.90 127.71 C 164.66 127.79 162.41 127.86 160.18 128.07 C 156.48 124.39 152.14 119.14 155.41 113.75 Z" />
</g>
<g id="#ffff01ff">
<path fill="#ffff01" opacity="1.00" d=" M 259.55 105.69 C 260.33 105.70 261.89 105.72 262.67 105.73 C 266.91 111.61 272.06 116.75 276.59 122.41 C 274.47 122.37 272.36 122.43 270.24 122.49 C 266.35 117.23 259.60 112.76 259.55 105.69 Z" />
</g>
<g id="#1790c4ff">
<path fill="#1790c4" opacity="1.00" d=" M 130.26 106.57 C 131.56 106.89 132.85 107.21 134.15 107.54 C 131.11 119.11 135.74 131.67 144.19 139.81 C 149.56 145.13 155.65 151.81 163.90 151.31 C 164.37 151.74 164.85 152.16 165.34 152.57 C 165.84 152.97 166.84 153.77 167.34 154.17 C 167.26 154.89 167.08 156.35 166.99 157.07 C 158.49 154.84 149.41 152.48 143.18 145.83 C 132.13 136.32 128.35 120.61 130.26 106.57 Z" />
</g>
<g id="#1690c3ff">
<path fill="#1690c3" opacity="1.00" d=" M 216.96 107.65 C 218.20 107.32 219.45 107.00 220.70 106.69 C 220.87 111.96 221.08 117.26 220.41 122.50 L 220.32 123.16 C 217.53 128.64 217.00 135.15 213.02 140.03 C 208.28 146.08 202.09 151.37 194.65 153.69 C 190.29 155.20 185.39 155.90 181.95 159.25 C 181.92 158.60 181.88 157.30 181.85 156.65 C 181.84 156.04 181.83 154.82 181.82 154.22 C 182.25 153.77 183.11 152.87 183.55 152.43 C 184.03 152.37 184.98 152.26 185.46 152.21 C 193.61 151.70 200.39 146.51 205.83 140.83 C 214.73 132.61 219.51 119.62 216.96 107.65 Z" />
</g>
<g id="#329dcaff">
<path fill="#329dca" opacity="1.00" d=" M 134.15 107.54 C 134.82 107.72 136.18 108.06 136.86 108.24 C 134.31 126.02 147.63 143.49 164.24 148.62 L 164.00 149.04 L 163.45 149.94 L 163.90 151.31 C 155.65 151.81 149.56 145.13 144.19 139.81 C 135.74 131.67 131.11 119.11 134.15 107.54 Z" />
</g>
<g id="#2f9ccaff">
<path fill="#2f9cca" opacity="1.00" d=" M 213.73 108.52 C 214.80 108.23 215.88 107.94 216.96 107.65 C 219.51 119.62 214.73 132.61 205.83 140.83 C 200.39 146.51 193.61 151.70 185.46 152.21 C 185.44 151.61 185.39 150.43 185.37 149.84 L 184.95 148.97 L 184.82 148.72 C 190.08 148.66 194.56 145.72 198.48 142.49 C 208.55 134.62 216.52 121.71 213.73 108.52 Z" />
</g>
<g id="#4ca9d2ff">
<path fill="#4ca9d2" opacity="1.00" d=" M 209.90 109.50 C 211.18 109.20 212.45 108.86 213.73 108.52 C 216.52 121.71 208.55 134.62 198.48 142.49 C 194.56 145.72 190.08 148.66 184.82 148.72 C 184.54 148.16 183.98 147.06 183.71 146.51 C 199.04 141.72 212.90 126.38 209.90 109.50 Z" />
</g>
<g id="#6ebadaff">
<path fill="#6ebada" opacity="1.00" d=" M 146.88 132.13 C 142.45 125.75 138.75 117.17 141.77 109.46 C 143.05 109.76 144.34 110.05 145.62 110.34 C 144.18 119.88 148.63 130.04 156.47 135.62 C 157.37 136.22 158.31 136.77 159.24 137.33 C 159.71 137.61 160.17 137.92 160.62 138.25 C 162.27 139.47 163.87 140.77 165.36 142.19 C 165.46 142.76 165.66 143.90 165.76 144.47 C 157.59 144.57 151.86 137.69 146.88 132.13 Z" />
</g>
<g id="#8b281bff">
<path fill="#8b281b" opacity="1.00" d=" M 82.51 120.94 C 82.95 119.04 84.26 117.57 86.09 116.90 C 85.93 118.95 84.64 120.68 82.51 120.94 Z" />
<path fill="#8b281b" opacity="1.00" d=" M 235.77 164.79 C 244.97 164.77 254.16 164.76 263.35 164.79 C 263.36 166.90 263.38 169.01 263.39 171.13 C 256.61 173.14 249.89 175.44 242.90 176.64 C 249.72 176.30 256.55 176.20 263.39 176.30 C 263.38 178.25 263.37 180.21 263.36 182.17 C 254.16 182.22 244.96 182.20 235.76 182.18 C 235.75 179.52 235.77 176.86 235.87 174.21 C 241.96 172.33 248.28 171.42 254.44 169.82 C 248.22 170.32 242.01 171.05 235.77 170.88 C 235.77 168.85 235.77 166.82 235.77 164.79 Z" />
</g>
<g id="#f5f41dff">
<path fill="#f5f41d" opacity="1.00" d=" M 185.68 123.41 C 187.20 122.22 188.74 121.05 190.29 119.89 C 190.29 121.76 190.29 123.62 190.24 125.49 C 189.87 126.36 189.50 127.22 189.13 128.09 C 185.66 127.79 182.17 127.78 178.69 127.64 C 179.00 126.70 179.32 125.76 179.66 124.83 C 181.06 123.94 182.47 123.04 183.88 122.15 C 184.33 122.47 185.23 123.10 185.68 123.41 Z" />
</g>
<g id="#f2ec3aff">
<path fill="#f2ec3a" opacity="1.00" d=" M 70.00 122.76 C 71.79 122.64 73.59 122.49 75.39 122.45 C 77.25 122.45 79.10 122.52 80.96 122.57 C 96.71 122.69 112.46 122.54 128.21 122.64 C 128.38 169.47 128.07 216.31 128.37 263.14 C 127.36 266.66 126.04 270.08 124.85 273.53 C 122.84 267.91 121.91 261.96 121.91 256.00 C 121.90 213.61 121.96 171.22 121.89 128.83 C 106.63 128.71 91.38 128.70 76.13 128.83 C 76.08 171.89 76.05 214.95 76.14 258.01 C 76.21 281.09 84.55 304.50 101.12 320.88 C 120.42 340.19 147.95 350.11 175.00 350.37 C 205.73 349.81 237.31 337.26 256.85 312.91 C 269.44 297.21 275.40 276.98 275.48 257.02 C 275.54 214.34 275.45 171.66 275.53 128.99 C 259.15 128.57 242.74 128.67 226.36 128.93 C 226.39 170.96 226.36 212.98 226.38 255.00 C 226.41 260.22 225.84 265.46 224.23 270.45 C 223.01 266.49 221.77 262.54 220.94 258.48 L 220.99 257.44 C 221.86 252.34 221.97 247.16 221.80 242.00 C 221.74 202.18 221.84 162.36 221.74 122.53 C 237.90 122.64 254.08 122.71 270.24 122.49 C 272.36 122.43 274.47 122.37 276.59 122.41 C 278.26 122.49 279.92 122.65 281.59 122.79 C 281.22 128.19 284.19 132.69 287.35 136.75 C 286.77 139.11 286.30 141.50 285.81 143.88 C 284.47 141.65 283.15 139.40 281.79 137.19 C 281.72 177.46 281.80 217.73 281.75 258.00 C 281.79 278.19 276.33 298.81 264.13 315.13 C 253.21 330.01 237.42 340.77 220.34 347.43 C 211.97 350.78 203.18 352.74 194.41 354.72 C 189.23 355.17 184.06 355.90 178.86 356.09 C 176.60 356.13 174.33 356.06 172.07 356.02 C 166.23 355.99 160.43 355.29 154.63 354.73 C 146.15 352.74 137.68 350.75 129.54 347.61 C 113.70 341.12 98.96 331.23 88.53 317.50 C 75.60 300.94 70.05 279.75 69.77 258.99 C 69.70 218.13 69.82 177.27 69.71 136.41 C 68.17 138.81 66.74 141.29 65.31 143.76 C 64.86 141.71 64.44 139.66 63.94 137.63 C 67.16 133.23 70.70 128.58 70.00 122.76 Z" />
</g>
<g id="#44604d9d">
<path fill="#44604d" opacity="0.62" d=" M 220.32 123.16 L 220.41 122.50 C 221.16 126.96 221.10 131.49 221.04 136.00 C 220.98 176.48 221.09 216.96 220.99 257.44 L 220.94 258.48 C 220.60 257.15 220.23 255.83 219.87 254.51 C 220.36 210.73 219.50 166.93 220.32 123.16 Z" />
</g>
<g id="#e3dd28e3">
<path fill="#e3dd28" opacity="0.89" d=" M 220.41 122.50 L 221.74 122.53 C 221.84 162.36 221.74 202.18 221.80 242.00 C 221.97 247.16 221.86 252.34 220.99 257.44 C 221.09 216.96 220.98 176.48 221.04 136.00 C 221.10 131.49 221.16 126.96 220.41 122.50 Z" />
</g>
<g id="#aaabb0ff">
<path fill="#aaabb0" opacity="1.00" d=" M 160.18 128.07 C 162.41 127.86 164.66 127.79 166.90 127.71 C 170.83 127.54 174.76 127.50 178.69 127.64 C 182.17 127.78 185.66 127.79 189.13 128.09 L 190.15 129.28 C 179.94 130.95 169.21 130.97 159.00 129.27 L 160.18 128.07 Z" />
</g>
<g id="#24221dff">
<path fill="#24221d" opacity="1.00" d=" M 157.19 133.57 C 157.72 132.11 158.25 130.64 159.00 129.27 C 169.21 130.97 179.94 130.95 190.15 129.28 C 192.11 131.94 191.63 135.26 190.07 137.97 C 189.69 138.08 188.94 138.29 188.56 138.39 C 179.28 137.46 169.91 137.65 160.62 138.25 C 160.17 137.92 159.71 137.61 159.24 137.33 C 169.52 137.48 179.80 137.16 190.08 137.49 C 190.48 136.11 190.88 134.73 191.28 133.36 C 179.92 133.36 168.53 132.94 157.19 133.57 M 158.02 132.35 C 169.00 132.66 180.01 132.66 190.99 132.35 C 190.23 131.63 189.40 131.02 188.51 130.51 C 179.17 130.84 169.82 130.85 160.49 130.50 C 159.60 131.02 158.78 131.64 158.02 132.35 Z" />
<path fill="#24221d" opacity="1.00" d=" M 165.36 142.19 C 171.36 142.21 177.36 142.28 183.36 142.13 C 183.35 143.34 183.32 144.55 183.37 145.76 L 183.71 146.51 C 183.98 147.06 184.54 148.16 184.82 148.72 L 184.95 148.97 C 182.71 145.93 178.23 147.76 175.00 147.26 C 171.42 147.82 166.57 145.80 164.00 149.04 L 164.24 148.62 C 164.81 147.67 165.39 146.71 165.96 145.75 C 165.91 145.43 165.81 144.79 165.76 144.47 C 165.66 143.90 165.46 142.76 165.36 142.19 M 166.31 144.62 L 166.22 146.46 C 171.76 146.47 177.29 146.47 182.83 146.46 L 182.68 144.67 C 177.31 144.00 171.71 144.13 166.31 144.62 Z" />
<path fill="#24221d" opacity="1.00" d=" M 174.87 243.15 C 178.32 241.72 181.59 239.68 185.40 239.29 C 195.66 241.88 206.08 241.82 216.45 243.50 C 217.53 247.19 218.69 250.85 219.87 254.51 C 220.23 255.83 220.60 257.15 220.94 258.48 C 221.77 262.54 223.01 266.49 224.23 270.45 C 225.13 273.52 225.99 276.61 226.88 279.69 C 224.78 279.73 222.68 279.75 220.59 279.82 C 218.24 279.89 215.92 280.11 213.58 280.20 C 204.39 279.44 195.17 279.86 185.97 279.74 C 182.47 279.44 180.04 282.32 176.97 283.41 C 173.28 283.55 170.83 279.54 167.06 279.77 C 156.27 279.71 145.48 279.78 134.69 279.80 C 132.36 279.81 130.03 279.82 127.70 279.81 C 126.11 279.80 124.51 279.77 122.92 279.75 C 123.54 277.67 124.16 275.59 124.85 273.53 C 126.04 270.08 127.36 266.66 128.37 263.14 C 130.52 256.50 132.66 249.84 134.96 243.25 C 136.96 243.21 138.95 243.18 140.95 243.15 C 141.71 242.38 142.48 241.61 143.25 240.84 C 150.18 242.10 157.13 240.73 163.99 239.74 C 167.97 239.57 171.28 241.88 174.87 243.15 M 143.39 242.11 C 141.93 249.58 140.16 256.99 138.89 264.49 C 139.34 264.67 140.23 265.01 140.68 265.19 C 139.30 265.99 137.93 266.79 136.55 267.60 C 136.42 268.26 136.14 269.58 136.00 270.23 C 137.87 269.86 139.73 269.47 141.59 269.08 C 140.77 270.19 139.95 271.31 139.12 272.43 L 138.52 272.48 C 148.56 273.47 158.70 272.45 168.78 273.09 C 169.16 273.42 169.92 274.08 170.30 274.41 C 157.21 273.73 144.04 274.36 130.92 274.09 C 134.24 264.50 135.46 254.00 141.10 245.36 C 136.50 244.03 136.39 249.23 135.25 252.18 C 133.00 260.27 130.13 268.16 127.93 276.27 C 142.15 276.29 156.37 276.25 170.59 276.28 C 173.33 280.48 178.83 280.78 181.45 276.29 C 193.54 276.23 205.64 276.32 217.73 276.25 C 217.51 275.63 217.07 274.40 216.84 273.79 C 206.10 273.08 195.27 273.13 184.51 273.62 C 192.70 271.12 201.36 273.60 209.73 272.38 C 209.07 271.85 207.76 270.79 207.10 270.26 C 209.71 270.13 212.33 269.97 214.94 269.77 C 213.74 267.94 212.68 265.93 210.99 264.50 C 210.29 257.07 208.24 249.84 207.01 242.49 C 196.54 245.81 184.08 235.47 175.14 245.20 C 175.41 252.15 175.65 259.11 175.70 266.07 L 174.71 266.45 C 174.25 266.12 173.32 265.44 172.86 265.11 C 173.30 265.26 174.18 265.56 174.62 265.72 C 174.11 258.89 174.67 252.00 173.90 245.22 C 165.83 236.58 153.37 244.75 143.39 242.11 M 209.16 245.45 C 215.46 254.42 215.90 265.90 218.35 276.27 C 219.09 276.28 220.55 276.28 221.28 276.29 C 218.75 266.08 216.51 255.80 214.15 245.55 C 212.48 245.52 210.82 245.48 209.16 245.45 Z" />
</g>
<g id="#e0e0e0ff">
<path fill="#e0e0e0" opacity="1.00" d=" M 158.02 132.35 C 158.78 131.64 159.60 131.02 160.49 130.50 C 169.82 130.85 179.17 130.84 188.51 130.51 C 189.40 131.02 190.23 131.63 190.99 132.35 C 180.01 132.66 169.00 132.66 158.02 132.35 Z" />
</g>
<g id="#d1d1d1ff">
<path fill="#d1d1d1" opacity="1.00" d=" M 157.19 133.57 C 168.53 132.94 179.92 133.36 191.28 133.36 C 190.88 134.73 190.48 136.11 190.08 137.49 C 179.80 137.16 169.52 137.48 159.24 137.33 C 158.31 136.77 157.37 136.22 156.47 135.62 C 156.65 135.11 157.01 134.09 157.19 133.57 Z" />
</g>
<g id="#d2d2d2ff">
<path fill="#d2d2d2" opacity="1.00" d=" M 160.62 138.25 C 169.91 137.65 179.28 137.46 188.56 138.39 C 186.78 139.57 185.07 140.85 183.36 142.13 C 177.36 142.28 171.36 142.21 165.36 142.19 C 163.87 140.77 162.27 139.47 160.62 138.25 Z" />
</g>
<g id="#8c291cff">
<path fill="#8c291c" opacity="1.00" d=" M 87.79 138.77 C 89.55 138.77 91.30 138.77 93.06 138.77 C 92.82 140.52 91.59 143.41 94.02 144.22 C 100.93 144.68 107.87 144.25 114.79 144.39 C 114.78 146.60 114.76 148.82 114.75 151.03 C 106.71 150.83 98.52 151.85 90.59 150.46 C 85.40 149.03 85.69 142.62 87.79 138.77 Z" />
</g>
<g id="#8c291bff">
<path fill="#8c291b" opacity="1.00" d=" M 235.78 139.65 C 245.05 139.61 254.32 139.65 263.59 139.63 C 263.59 141.75 263.58 143.87 263.56 146.00 C 256.74 148.10 249.88 150.11 242.89 151.58 C 249.77 150.96 256.69 151.12 263.59 151.14 C 263.59 153.09 263.60 155.04 263.60 157.00 C 254.33 157.19 245.05 157.07 235.77 157.07 C 235.76 154.40 235.77 151.72 235.80 149.05 C 242.14 147.18 248.65 146.05 255.08 144.52 C 248.64 145.03 242.22 145.83 235.75 145.51 C 235.76 143.55 235.77 141.60 235.78 139.65 Z" />
<path fill="#8c291b" opacity="1.00" d=" M 235.59 215.12 C 244.84 215.19 254.10 215.17 263.36 215.14 C 263.36 217.13 263.36 219.12 263.36 221.11 C 255.49 221.30 247.62 220.78 239.76 220.82 C 247.58 222.13 255.51 222.77 263.34 224.13 C 263.34 225.41 263.33 226.69 263.33 227.98 C 255.47 229.04 247.59 229.93 239.78 231.24 C 247.64 231.50 255.50 230.87 263.37 231.04 C 263.36 232.97 263.36 234.91 263.36 236.84 C 254.10 236.79 244.85 236.76 235.59 236.86 C 235.54 233.84 235.54 230.82 235.57 227.80 C 240.40 226.90 245.32 226.75 250.20 226.18 C 245.36 225.22 240.42 225.05 235.56 224.25 C 235.54 221.20 235.54 218.16 235.59 215.12 Z" />
<path fill="#8c291b" opacity="1.00" d=" M 236.78 245.96 C 245.95 246.78 255.14 247.46 264.31 248.28 C 264.25 250.46 264.16 252.64 264.05 254.83 C 260.39 254.49 256.73 254.16 253.05 254.02 C 252.93 255.28 252.80 256.55 252.69 257.81 C 256.32 258.18 259.96 258.52 263.61 258.84 C 263.39 260.89 263.17 262.94 262.97 265.00 C 253.75 264.33 244.55 263.38 235.34 262.48 C 235.54 260.47 235.75 258.47 235.96 256.46 C 239.51 256.77 243.07 256.96 246.63 257.06 C 246.70 255.80 246.78 254.54 246.86 253.29 C 243.30 252.91 239.74 252.57 236.18 252.20 C 236.39 250.12 236.59 248.04 236.78 245.96 Z" />
<path fill="#8c291b" opacity="1.00" d=" M 165.93 310.43 C 170.44 310.97 175.99 308.98 179.68 312.38 C 182.30 316.61 182.00 323.04 177.87 326.28 C 179.32 330.26 180.72 334.27 182.19 338.25 C 180.05 338.27 177.91 338.30 175.77 338.35 C 174.37 334.42 173.43 330.36 172.22 326.38 C 172.04 330.42 172.18 334.48 172.35 338.52 C 170.29 338.49 168.23 338.46 166.18 338.43 C 166.29 329.09 165.79 319.76 165.93 310.43 M 172.13 315.79 C 172.00 318.03 171.93 320.28 171.91 322.53 C 176.48 322.74 176.73 315.86 172.13 315.79 Z" />
</g>
<g id="#d8d7d7ff">
<path fill="#d8d7d7" opacity="1.00" d=" M 164.00 149.04 C 166.57 145.80 171.42 147.82 175.00 147.26 C 178.23 147.76 182.71 145.93 184.95 148.97 L 185.37 149.84 C 178.07 150.03 170.76 149.92 163.45 149.94 L 164.00 149.04 Z" />
</g>
<g id="#9e9c9bff">
<path fill="#9e9c9b" opacity="1.00" d=" M 163.45 149.94 C 170.76 149.92 178.07 150.03 185.37 149.84 C 185.39 150.43 185.44 151.61 185.46 152.21 C 184.98 152.26 184.03 152.37 183.55 152.43 C 177.52 151.51 171.33 151.21 165.34 152.57 C 164.85 152.16 164.37 151.74 163.90 151.31 L 163.45 149.94 Z" />
</g>
<g id="#d6d5d5ff">
<path fill="#d6d5d5" opacity="1.00" d=" M 165.34 152.57 C 171.33 151.21 177.52 151.51 183.55 152.43 C 183.11 152.87 182.25 153.77 181.82 154.22 C 177.01 154.62 172.15 154.64 167.34 154.17 C 166.84 153.77 165.84 152.97 165.34 152.57 Z" />
</g>
<g id="#2b2a2aff">
<path fill="#2b2a2a" opacity="1.00" d=" M 167.34 154.17 C 172.15 154.64 177.01 154.62 181.82 154.22 C 181.83 154.82 181.84 156.04 181.85 156.65 C 177.22 156.75 172.43 155.90 167.94 157.30 C 170.40 161.75 177.59 158.26 181.95 159.25 C 181.45 159.73 180.97 160.23 180.50 160.73 C 179.32 160.63 178.15 160.57 176.97 160.56 C 176.50 168.42 176.66 176.30 176.40 184.17 C 174.61 183.83 172.78 183.72 170.96 183.85 L 171.24 183.68 C 174.30 176.76 171.65 168.12 172.29 160.52 C 171.39 160.51 169.59 160.49 168.69 160.48 C 168.31 160.47 167.56 160.45 167.19 160.45 C 167.11 159.32 167.04 158.20 166.99 157.07 C 167.08 156.35 167.26 154.89 167.34 154.17 M 172.76 160.49 C 173.57 167.78 173.05 175.14 173.44 182.44 C 173.80 182.64 174.52 183.03 174.89 183.23 C 177.34 176.04 175.56 167.92 176.49 160.38 C 175.55 160.41 173.69 160.46 172.76 160.49 Z" />
</g>
<g id="#d8d6d5ff">
<path fill="#d8d6d5" opacity="1.00" d=" M 167.94 157.30 C 172.43 155.90 177.22 156.75 181.85 156.65 C 181.88 157.30 181.92 158.60 181.95 159.25 C 177.59 158.26 170.40 161.75 167.94 157.30 Z" />
</g>
<g id="#8d2a1cff">
<path fill="#8d2a1c" opacity="1.00" d=" M 92.34 159.46 C 98.83 158.24 106.66 157.44 112.17 161.85 C 115.86 166.22 114.71 175.06 108.44 176.44 C 102.24 177.87 95.44 177.81 89.44 175.57 C 82.41 172.23 84.31 160.02 92.34 159.46 M 90.99 167.99 C 94.33 172.07 100.28 170.86 104.89 170.61 C 108.04 170.81 108.69 165.85 105.32 165.70 C 100.62 165.04 94.58 164.13 90.99 167.99 Z" />
<path fill="#8d2a1c" opacity="1.00" d=" M 85.64 183.21 C 94.85 183.33 104.06 183.29 113.26 183.23 C 113.22 187.41 113.85 191.70 112.86 195.80 C 109.70 201.53 100.79 200.42 97.17 195.66 C 93.25 197.03 89.37 198.48 85.54 200.07 C 85.54 197.72 85.56 195.37 85.59 193.02 C 89.77 191.65 94.13 190.93 98.28 189.47 C 94.01 189.51 89.75 189.77 85.49 189.70 C 85.53 187.53 85.58 185.37 85.64 183.21 M 101.37 189.76 C 101.54 194.43 108.07 194.59 107.87 189.68 C 105.71 189.67 103.54 189.69 101.37 189.76 Z" />
<path fill="#8d2a1c" opacity="1.00" d=" M 85.32 229.19 C 94.64 229.15 103.95 229.21 113.27 229.15 C 113.29 233.77 113.30 238.40 113.26 243.02 C 111.09 243.02 108.92 243.02 106.75 243.02 C 106.73 240.52 106.71 238.02 106.70 235.53 C 105.27 235.54 103.84 235.56 102.41 235.57 C 102.39 238.05 102.37 240.53 102.35 243.01 C 100.25 242.97 98.16 242.96 96.07 242.94 C 96.06 240.49 96.06 238.04 96.04 235.60 C 94.57 235.59 93.10 235.59 91.63 235.59 C 91.63 238.05 91.64 240.52 91.64 242.99 C 89.54 243.00 87.43 243.00 85.33 243.00 C 85.34 238.39 85.34 233.79 85.32 229.19 Z" />
<path fill="#8d2a1c" opacity="1.00" d=" M 91.75 286.32 C 100.45 282.99 109.27 280.01 117.97 276.69 C 119.52 279.40 121.05 282.12 122.55 284.87 C 115.09 290.71 107.63 296.57 100.23 302.49 C 99.27 300.64 98.32 298.79 97.38 296.94 C 99.01 295.59 100.64 294.25 102.28 292.91 C 101.57 291.79 100.86 290.68 100.15 289.57 C 98.19 290.31 96.23 291.05 94.27 291.77 C 93.41 289.96 92.57 288.15 91.75 286.32 M 105.96 287.19 C 106.33 288.08 106.70 288.98 107.07 289.88 C 110.20 287.59 113.44 285.44 116.31 282.82 C 112.80 284.12 109.40 285.71 105.96 287.19 Z" />
<path fill="#8d2a1c" opacity="1.00" d=" M 136.46 301.07 C 139.32 302.42 142.08 303.96 144.74 305.69 C 141.40 314.57 138.33 323.55 134.94 332.42 C 133.17 331.34 131.39 330.26 129.62 329.18 C 130.35 327.18 131.08 325.18 131.80 323.18 C 130.59 322.64 129.37 322.10 128.16 321.57 C 126.97 323.15 125.78 324.73 124.61 326.33 C 122.78 325.36 120.96 324.38 119.16 323.38 C 125.02 316.01 130.76 308.56 136.46 301.07 M 131.68 316.74 C 132.29 317.03 133.49 317.62 134.09 317.91 C 135.58 314.46 137.15 311.03 138.40 307.48 C 135.86 310.33 133.65 313.46 131.68 316.74 Z" />
<path fill="#8d2a1c" opacity="1.00" d=" M 148.82 307.33 C 153.83 308.78 161.34 308.77 162.77 315.06 C 163.29 321.57 161.38 328.38 157.89 333.88 C 154.07 338.89 147.57 335.92 142.60 334.90 C 144.28 325.62 146.61 316.49 148.82 307.33 M 153.45 314.73 C 152.17 320.10 150.39 325.41 150.04 330.96 C 155.96 329.52 159.23 318.01 153.45 314.73 Z" />
</g>
<g id="#e0d9d6ff">
<path fill="#e0d9d6" opacity="1.00" d=" M 168.69 160.48 C 169.59 160.49 171.39 160.51 172.29 160.52 C 171.65 168.12 174.30 176.76 171.24 183.68 L 171.05 182.55 C 170.62 175.78 171.76 168.78 169.82 162.19 C 169.53 161.76 168.97 160.91 168.69 160.48 Z" />
</g>
<g id="#d5d5d5ff">
<path fill="#d5d5d5" opacity="1.00" d=" M 172.76 160.49 C 173.69 160.46 175.55 160.41 176.49 160.38 C 175.56 167.92 177.34 176.04 174.89 183.23 C 174.52 183.03 173.80 182.64 173.44 182.44 C 173.05 175.14 173.57 167.78 172.76 160.49 Z" />
</g>
<g id="#bbb6b4ff">
<path fill="#bbb6b4" opacity="1.00" d=" M 176.97 160.56 C 178.15 160.57 179.32 160.63 180.50 160.73 C 177.91 167.37 179.12 174.79 178.70 181.79 C 178.73 182.51 178.80 183.97 178.83 184.69 C 178.22 184.56 177.01 184.30 176.40 184.17 C 176.66 176.30 176.50 168.42 176.97 160.56 Z" />
</g>
<g id="#90989bff">
<path fill="#90989b" opacity="1.00" d=" M 169.82 162.19 C 171.76 168.78 170.62 175.78 171.05 182.55 C 169.51 175.86 170.17 168.98 169.82 162.19 Z" />
</g>
<g id="#fbcfb2ff">
<path fill="#fbcfb2" opacity="1.00" d=" M 178.70 181.79 C 184.58 180.52 184.66 188.10 184.61 192.04 C 185.94 198.03 186.86 204.18 186.35 210.35 C 185.10 214.85 181.75 219.06 182.88 223.98 C 184.03 229.03 185.13 234.10 185.40 239.29 C 181.59 239.68 178.32 241.72 174.87 243.15 C 171.28 241.88 167.97 239.57 163.99 239.74 C 164.65 235.50 165.36 231.28 165.73 227.01 C 166.69 220.11 162.00 214.20 161.59 207.44 C 160.02 198.96 161.56 187.08 170.96 183.85 C 172.78 183.72 174.61 183.83 176.40 184.17 C 177.01 184.30 178.22 184.56 178.83 184.69 C 178.80 183.97 178.73 182.51 178.70 181.79 M 163.56 194.04 C 168.49 192.03 173.70 190.86 179.05 190.97 L 179.04 189.91 C 173.76 189.96 167.28 189.51 163.56 194.04 M 165.21 200.38 C 170.67 197.56 176.67 198.09 182.52 199.00 C 177.41 195.84 169.46 195.61 165.21 200.38 M 165.65 208.14 C 170.96 204.23 177.82 204.37 182.54 209.18 C 180.04 202.36 169.23 202.08 165.65 208.14 M 170.14 214.19 C 170.80 220.32 170.63 226.50 171.29 232.63 C 168.78 236.49 176.17 235.49 178.39 235.29 C 178.32 234.54 178.17 233.04 178.10 232.29 C 178.19 225.98 178.95 219.66 178.64 213.36 C 176.85 209.66 172.04 211.66 170.14 214.19 Z" />
</g>
<g id="#fefcfcff">
<path fill="#fefcfc" opacity="1.00" d=" M 101.37 189.76 C 103.54 189.69 105.71 189.67 107.87 189.68 C 108.07 194.59 101.54 194.43 101.37 189.76 Z" />
</g>
<g id="#b29e90ff">
<path fill="#b29e90" opacity="1.00" d=" M 163.56 194.04 C 167.28 189.51 173.76 189.96 179.04 189.91 L 179.05 190.97 C 173.70 190.86 168.49 192.03 163.56 194.04 Z" />
</g>
<g id="#8c2a1cff">
<path fill="#8c2a1c" opacity="1.00" d=" M 235.52 194.70 C 244.73 192.72 254.08 191.47 263.36 189.79 C 263.37 191.92 263.38 194.06 263.39 196.20 C 261.33 196.56 259.28 196.94 257.24 197.35 C 257.34 198.68 257.45 200.03 257.56 201.37 C 259.47 201.61 261.38 201.86 263.30 202.12 C 263.35 204.33 263.38 206.54 263.42 208.75 C 254.17 207.05 244.84 205.85 235.59 204.12 C 235.55 200.98 235.54 197.84 235.52 194.70 M 239.74 199.24 C 243.69 199.91 247.68 200.40 251.66 200.81 C 251.58 199.76 251.50 198.72 251.42 197.67 C 247.53 198.20 243.61 198.56 239.74 199.24 Z" />
<path fill="#8c2a1c" opacity="1.00" d=" M 90.23 207.17 C 96.24 205.43 102.85 205.45 108.90 206.97 C 114.92 208.75 115.34 216.77 112.48 221.37 C 110.27 222.28 107.72 221.71 105.38 221.95 C 108.15 219.29 109.43 213.47 104.43 212.51 C 99.88 211.93 92.19 210.21 90.59 216.12 C 93.75 216.21 96.91 216.21 100.07 216.21 C 100.06 218.34 100.05 220.49 100.03 222.63 C 96.07 222.61 92.11 222.59 88.15 222.66 C 84.22 218.22 83.95 209.62 90.23 207.17 Z" />
<path fill="#8c2a1c" opacity="1.00" d=" M 86.17 264.49 C 95.19 262.56 104.31 261.16 113.33 259.22 C 114.05 263.10 115.55 266.98 115.14 270.98 C 113.55 276.04 106.13 277.02 102.67 273.30 C 101.31 279.55 90.94 280.39 88.40 274.57 C 87.18 271.34 86.92 267.85 86.17 264.49 M 103.60 267.17 C 104.60 271.11 110.00 270.28 109.31 266.05 C 107.40 266.38 105.49 266.76 103.60 267.17 M 92.59 269.28 C 93.50 273.71 99.87 272.65 99.12 268.10 C 96.93 268.43 94.76 268.83 92.59 269.28 Z" />
<path fill="#8c2a1c" opacity="1.00" d=" M 183.67 310.89 C 187.84 309.78 192.05 308.83 196.22 307.70 C 196.78 309.79 197.32 311.89 197.83 314.01 C 195.51 314.61 193.18 315.22 190.87 315.85 C 191.23 317.23 191.59 318.63 191.95 320.02 C 194.29 319.50 196.63 319.00 198.99 318.55 C 199.39 320.59 199.80 322.62 200.20 324.66 C 197.96 325.12 195.73 325.58 193.50 326.03 C 193.82 327.58 194.15 329.12 194.43 330.69 C 196.65 330.11 198.88 329.57 201.11 329.02 C 201.64 331.04 202.16 333.07 202.69 335.10 C 198.47 336.21 194.24 337.29 189.94 338.07 C 187.71 329.04 185.65 319.97 183.67 310.89 Z" />
</g>
<g id="#af9c8fff">
<path fill="#af9c8f" opacity="1.00" d=" M 165.21 200.38 C 169.46 195.61 177.41 195.84 182.52 199.00 C 176.67 198.09 170.67 197.56 165.21 200.38 Z" />
</g>
<g id="#b09e90ff">
<path fill="#b09e90" opacity="1.00" d=" M 165.65 208.14 C 169.23 202.08 180.04 202.36 182.54 209.18 C 177.82 204.37 170.96 204.23 165.65 208.14 Z" />
</g>
<g id="#a49e9aff">
<path fill="#a49e9a" opacity="1.00" d=" M 170.14 214.19 C 172.04 211.66 176.85 209.66 178.64 213.36 C 178.95 219.66 178.19 225.98 178.10 232.29 L 177.03 232.13 C 176.81 225.98 177.30 219.84 177.46 213.70 C 176.89 213.45 175.75 212.95 175.18 212.70 C 175.13 219.11 175.27 225.52 175.06 231.92 L 174.02 231.86 C 173.86 225.46 173.99 219.06 173.87 212.67 C 173.38 213.08 172.38 213.91 171.89 214.32 C 171.73 220.14 172.36 225.98 171.84 231.79 L 171.29 232.63 C 170.63 226.50 170.80 220.32 170.14 214.19 Z" />
</g>
<g id="#cfd0d1ff">
<path fill="#cfd0d1" opacity="1.00" d=" M 171.89 214.32 C 172.38 213.91 173.38 213.08 173.87 212.67 C 173.99 219.06 173.86 225.46 174.02 231.86 C 173.48 231.84 172.39 231.80 171.84 231.79 C 172.36 225.98 171.73 220.14 171.89 214.32 Z" />
</g>
<g id="#cccdceff">
<path fill="#cccdce" opacity="1.00" d=" M 175.18 212.70 C 175.75 212.95 176.89 213.45 177.46 213.70 C 177.30 219.84 176.81 225.98 177.03 232.13 C 176.54 232.08 175.55 231.98 175.06 231.92 C 175.27 225.52 175.13 219.11 175.18 212.70 Z" />
</g>
<g id="#010101ff">
<path fill="#010101" opacity="1.00" d=" M 171.29 232.63 L 171.84 231.79 C 172.39 231.80 173.48 231.84 174.02 231.86 L 175.06 231.92 C 175.55 231.98 176.54 232.08 177.03 232.13 L 178.10 232.29 C 178.17 233.04 178.32 234.54 178.39 235.29 C 176.17 235.49 168.78 236.49 171.29 232.63 Z" />
</g>
<g id="#fdfdfeff">
<path fill="#fdfdfe" opacity="1.00" d=" M 135.25 252.18 C 136.39 249.23 136.50 244.03 141.10 245.36 C 135.46 254.00 134.24 264.50 130.92 274.09 C 144.04 274.36 157.21 273.73 170.30 274.41 C 175.00 275.70 179.89 274.86 184.51 273.62 C 195.27 273.13 206.10 273.08 216.84 273.79 C 217.07 274.40 217.51 275.63 217.73 276.25 C 205.64 276.32 193.54 276.23 181.45 276.29 C 178.83 280.78 173.33 280.48 170.59 276.28 C 156.37 276.25 142.15 276.29 127.93 276.27 C 130.13 268.16 133.00 260.27 135.25 252.18 Z" />
</g>
<g id="#635d1eff">
<path fill="#635d1e" opacity="1.00" d=" M 138.89 264.49 C 142.75 263.28 146.65 262.03 150.73 261.88 C 154.24 262.28 157.79 262.27 161.30 261.82 C 165.38 261.85 169.23 263.36 172.86 265.11 C 173.32 265.44 174.25 266.12 174.71 266.45 L 175.70 266.07 C 177.34 265.43 178.97 264.74 180.67 264.25 C 190.35 264.09 200.12 262.96 209.61 265.64 C 209.49 265.25 209.26 264.45 209.14 264.05 C 209.60 264.17 210.52 264.39 210.99 264.50 C 212.68 265.93 213.74 267.94 214.94 269.77 C 212.33 269.97 209.71 270.13 207.10 270.26 C 207.76 270.79 209.07 271.85 209.73 272.38 C 201.36 273.60 192.70 271.12 184.51 273.62 C 179.89 274.86 175.00 275.70 170.30 274.41 C 169.92 274.08 169.16 273.42 168.78 273.09 C 159.10 270.52 148.97 271.92 139.12 272.43 C 139.95 271.31 140.77 270.19 141.59 269.08 C 139.73 269.47 137.87 269.86 136.00 270.23 C 136.14 269.58 136.42 268.26 136.55 267.60 C 137.93 266.79 139.30 265.99 140.68 265.19 C 140.23 265.01 139.34 264.67 138.89 264.49 M 145.42 266.83 C 151.74 267.43 158.61 269.20 164.64 266.45 C 158.45 264.32 151.52 264.49 145.42 266.83 M 170.40 273.16 C 174.69 273.75 179.06 273.60 183.26 272.56 C 182.47 272.46 180.88 272.26 180.09 272.16 C 177.91 266.62 171.62 267.55 170.40 273.16 M 147.70 269.60 C 152.60 270.19 157.58 270.16 162.49 269.66 C 157.65 268.64 152.55 268.69 147.70 269.60 M 183.44 271.44 C 190.95 272.71 198.74 271.89 206.34 271.73 C 198.84 270.26 191.01 270.55 183.44 271.44 Z" />
</g>
<g id="#8b8417ff">
<path fill="#8b8417" opacity="1.00" d=" M 145.42 266.83 C 151.52 264.49 158.45 264.32 164.64 266.45 C 158.61 269.20 151.74 267.43 145.42 266.83 Z" />
</g>
<g id="#fffffeff">
<path fill="#fffffe" opacity="1.00" d=" M 92.59 269.28 C 94.76 268.83 96.93 268.43 99.12 268.10 C 99.87 272.65 93.50 273.71 92.59 269.28 Z" />
</g>
<g id="#fff400ff">
<path fill="#fff400" opacity="1.00" d=" M 170.40 273.16 C 171.62 267.55 177.91 266.62 180.09 272.16 C 180.88 272.26 182.47 272.46 183.26 272.56 C 179.06 273.60 174.69 273.75 170.40 273.16 Z" />
</g>
<g id="#8d2b1dff">
<path fill="#8d2b1d" opacity="1.00" d=" M 238.21 268.15 C 245.52 266.89 253.04 270.89 258.62 275.38 C 264.58 279.77 260.31 290.54 253.03 289.76 C 246.55 288.81 239.83 286.56 234.99 281.98 C 230.69 277.95 233.44 270.51 238.21 268.15 M 241.37 274.35 C 240.06 275.16 238.97 277.26 240.67 278.32 C 243.91 280.91 247.96 282.40 252.00 283.20 C 253.96 283.87 256.10 281.30 254.17 279.83 C 250.54 276.93 245.87 275.28 241.37 274.35 Z" />
<path fill="#8d2b1d" opacity="1.00" d=" M 220.32 295.20 C 223.73 292.07 226.17 287.01 231.10 286.18 C 236.45 286.90 240.51 292.36 240.30 297.66 C 244.14 299.40 247.97 301.17 251.84 302.88 C 250.28 304.50 248.72 306.12 247.15 307.73 C 243.63 306.04 240.30 304.00 236.85 302.16 C 239.32 305.07 242.20 307.58 244.90 310.27 C 243.56 311.81 242.22 313.36 240.88 314.91 C 233.99 308.38 227.09 301.85 220.32 295.20 M 228.65 294.43 C 230.12 296.02 231.66 297.56 233.24 299.07 C 235.76 296.58 233.64 294.05 231.33 292.54 C 230.66 293.01 229.32 293.95 228.65 294.43 Z" />
<path fill="#8d2b1d" opacity="1.00" d=" M 208.04 308.93 C 205.74 302.76 212.23 297.12 218.10 297.55 C 219.36 299.59 220.55 301.68 221.67 303.81 C 217.99 302.32 212.68 304.99 214.49 309.41 C 216.42 313.67 218.40 321.04 224.31 320.12 C 222.76 317.17 221.14 314.26 219.64 311.29 C 221.39 310.22 223.14 309.15 224.90 308.10 C 226.89 311.75 228.99 315.36 231.13 318.93 C 229.33 323.71 223.77 328.78 218.57 325.51 C 213.18 321.56 210.15 315.10 208.04 308.93 Z" />
</g>
<g id="#e8de04ff">
<path fill="#e8de04" opacity="1.00" d=" M 147.70 269.60 C 152.55 268.69 157.65 268.64 162.49 269.66 C 157.58 270.16 152.60 270.19 147.70 269.60 Z" />
</g>
<g id="#f4ed02ff">
<path fill="#f4ed02" opacity="1.00" d=" M 183.44 271.44 C 191.01 270.55 198.84 270.26 206.34 271.73 C 198.74 271.89 190.95 272.71 183.44 271.44 Z" />
</g>
<g id="#f3ec39ff">
<path fill="#f3ec39" opacity="1.00" d=" M 127.70 279.81 C 130.03 279.82 132.36 279.81 134.69 279.80 C 151.54 300.89 185.62 302.69 206.83 287.29 C 209.07 285.85 210.97 283.96 212.42 281.73 C 212.71 281.35 213.29 280.58 213.58 280.20 C 215.92 280.11 218.24 279.89 220.59 279.82 C 211.90 295.49 193.24 302.85 175.99 302.63 C 157.62 303.44 137.33 296.39 127.70 279.81 Z" />
</g>
<g id="#8d2a1dff">
<path fill="#8d2a1d" opacity="1.00" d=" M 115.00 299.02 C 116.26 295.19 119.76 291.65 124.04 291.80 C 127.83 292.00 130.47 295.53 131.25 298.98 C 130.31 301.07 128.46 302.56 126.99 304.28 C 126.56 301.63 125.18 299.38 123.01 297.83 C 118.99 301.11 123.62 306.37 121.38 310.41 C 119.86 312.90 117.58 315.03 114.90 316.23 C 110.36 317.91 105.54 313.52 105.26 309.06 C 106.11 306.93 108.14 305.46 109.53 303.65 C 109.65 306.47 110.80 308.97 113.15 310.59 C 117.91 308.38 114.01 302.87 115.00 299.02 Z" />
</g>
<g id="#fffefeff">
<path fill="#fffefe" opacity="1.00" d=" M 153.45 314.73 C 159.23 318.01 155.96 329.52 150.04 330.96 C 150.39 325.41 152.17 320.10 153.45 314.73 Z" />
</g>
<g id="#fdfbfbff">
<path fill="#fdfbfb" opacity="1.00" d=" M 172.13 315.79 C 176.73 315.86 176.48 322.74 171.91 322.53 C 171.93 320.28 172.00 318.03 172.13 315.79 Z" />
</g>
<g id="#d12d24ff">
<path fill="#d12d24" opacity="1.00" d=" M 44.97 357.54 C 64.77 356.46 80.55 341.76 99.98 339.33 C 106.71 338.19 113.16 343.50 113.21 350.35 C 116.07 349.82 118.93 349.33 121.80 348.88 C 123.30 349.54 125.02 349.31 126.16 348.09 C 127.00 347.97 128.69 347.73 129.54 347.61 C 137.68 350.75 146.15 352.74 154.63 354.73 C 140.36 355.95 126.07 357.21 111.98 359.84 C 112.05 357.55 112.13 355.26 112.21 352.98 C 108.71 349.53 103.98 347.33 98.98 347.88 C 86.22 348.67 75.90 357.27 64.02 361.02 C 56.18 363.75 47.75 363.73 39.78 365.86 C 34.20 363.16 30.18 358.14 27.42 352.72 C 32.85 355.51 38.71 358.02 44.97 357.54 Z" />
<path fill="#d12d24" opacity="1.00" d=" M 236.89 350.31 C 237.08 343.58 243.30 338.21 250.01 339.32 C 269.47 341.67 285.24 356.39 305.03 357.53 C 311.33 358.04 317.26 355.57 322.71 352.70 C 319.94 358.10 315.97 363.26 310.32 365.84 C 301.82 363.68 292.85 363.64 284.59 360.50 C 273.02 356.44 262.66 348.07 249.98 347.86 C 245.36 347.58 241.17 349.86 237.95 352.99 C 238.05 355.29 238.14 357.60 238.22 359.91 C 233.37 359.04 228.50 358.27 223.63 357.57 C 225.70 363.03 227.15 368.70 228.90 374.28 C 228.18 374.25 226.76 374.18 226.04 374.15 C 225.46 372.56 224.88 370.96 224.31 369.37 C 222.41 369.26 220.51 369.15 218.62 369.07 C 217.52 371.23 216.05 373.19 213.40 373.34 C 215.70 367.76 218.74 362.53 221.87 357.39 C 212.73 356.38 203.59 355.37 194.41 354.72 C 203.18 352.74 211.97 350.78 220.34 347.43 C 225.82 348.57 231.38 349.31 236.89 350.31 M 219.66 366.74 C 221.03 366.84 222.41 366.95 223.79 367.06 C 223.28 365.27 222.77 363.49 222.25 361.71 C 221.37 363.38 220.52 365.05 219.66 366.74 Z" />
<path fill="#d12d24" opacity="1.00" d=" M 88.57 362.50 C 95.70 359.22 104.99 358.08 111.26 363.75 C 112.00 366.75 111.53 369.91 111.54 372.97 C 106.49 367.91 98.59 370.16 92.76 372.49 C 76.87 381.07 58.82 384.82 40.96 386.33 C 27.30 386.97 12.64 386.51 0.49 379.51 C 14.29 382.37 28.40 378.67 41.17 373.47 C 57.69 376.22 73.84 369.21 88.57 362.50 Z" />
<path fill="#d12d24" opacity="1.00" d=" M 238.48 363.84 C 245.25 358.19 254.69 359.12 262.17 362.74 C 276.69 369.44 292.69 376.15 308.98 373.47 C 321.75 378.73 335.81 382.23 349.63 379.62 C 337.35 386.43 322.75 387.03 309.04 386.32 C 291.26 384.86 273.42 380.96 257.51 372.69 C 251.62 369.59 244.69 369.43 238.56 371.91 C 238.51 369.22 238.52 366.53 238.48 363.84 Z" />
</g>
<g id="#6f3b387e">
<path fill="#6f3b38" opacity="0.49" d=" M 121.80 348.88 C 122.97 347.72 124.65 347.49 126.16 348.09 C 125.02 349.31 123.30 349.54 121.80 348.88 Z" />
</g>
<g id="#cf2219ff">
<path fill="#cf2219" opacity="1.00" d=" M 149.45 356.37 C 150.08 356.31 151.34 356.19 151.96 356.14 C 154.71 361.16 157.14 366.35 159.73 371.47 C 156.52 372.57 155.35 369.62 154.40 367.28 C 152.44 367.31 150.49 367.37 148.53 367.42 C 147.98 368.92 147.42 370.42 146.87 371.93 C 146.13 371.98 144.64 372.06 143.90 372.11 C 145.63 366.82 147.53 361.59 149.45 356.37 M 150.82 359.81 C 150.23 361.51 149.64 363.21 149.08 364.93 C 150.55 364.92 152.01 364.92 153.48 364.91 C 152.64 363.18 151.77 361.48 150.82 359.81 Z" />
</g>
<g id="#d12c23ff">
<path fill="#d12c23" opacity="1.00" d=" M 172.07 356.02 C 174.33 356.06 176.60 356.13 178.86 356.09 C 180.07 357.71 181.25 359.37 182.34 361.08 C 179.05 361.75 177.35 357.56 174.18 358.22 C 169.08 359.24 168.96 368.15 174.03 369.37 C 177.50 370.18 179.00 365.61 182.40 365.65 C 181.67 371.24 174.88 373.70 170.48 370.54 C 165.81 366.71 166.85 358.87 172.07 356.02 Z" />
<path fill="#d12c23" opacity="1.00" d=" M 96.50 379.94 C 121.81 373.64 148.02 372.50 174.00 372.79 C 200.58 372.51 227.47 373.31 253.38 379.83 C 254.88 380.76 256.20 381.93 257.56 383.06 C 256.99 385.09 255.48 386.58 254.01 388.00 L 250.03 388.00 C 233.94 383.04 216.93 382.66 200.25 381.75 C 183.77 380.87 167.23 380.89 150.75 381.75 C 134.05 382.71 116.94 382.86 100.87 388.00 L 96.54 388.00 C 95.06 386.52 93.60 384.97 92.78 383.02 C 93.98 381.94 95.15 380.83 96.50 379.94 Z" />
</g>
<g id="#cc150dff">
<path fill="#cc150d" opacity="1.00" d=" M 192.46 355.87 C 197.90 356.16 198.94 363.66 202.27 367.23 C 202.47 363.67 202.60 360.12 202.75 356.57 C 203.46 356.56 204.87 356.56 205.57 356.56 C 205.37 361.68 204.93 366.79 204.68 371.91 C 204.03 371.91 202.73 371.91 202.08 371.91 C 199.70 368.14 197.35 364.36 194.90 360.64 C 194.73 364.25 194.56 367.87 194.33 371.49 C 193.65 371.46 192.28 371.40 191.60 371.37 C 191.92 366.20 192.32 361.04 192.46 355.87 Z" />
</g>
<g id="#cc140bff">
<path fill="#cc140b" opacity="1.00" d=" M 123.58 358.51 C 128.17 358.31 132.74 357.75 137.34 357.55 C 137.22 360.51 134.02 359.59 132.03 360.00 C 132.25 364.45 132.82 368.86 133.33 373.28 C 132.61 373.23 131.17 373.11 130.45 373.06 C 130.00 368.85 129.50 364.66 129.09 360.45 C 127.34 360.57 125.60 360.70 123.86 360.83 C 123.79 360.25 123.65 359.09 123.58 358.51 Z" />
</g>
<g id="#aa3527ff">
<path fill="#aa3527" opacity="1.00" d=" M 92.76 372.49 C 98.59 370.16 106.49 367.91 111.54 372.97 C 108.38 378.37 101.03 376.58 96.50 379.94 C 95.15 380.83 93.98 381.94 92.78 383.02 C 92.84 379.51 92.90 376.00 92.76 372.49 Z" />
<path fill="#aa3527" opacity="1.00" d=" M 238.56 371.91 C 244.69 369.43 251.62 369.59 257.51 372.69 C 257.42 376.14 257.48 379.60 257.56 383.06 C 256.20 381.93 254.88 380.76 253.38 379.83 C 248.95 376.31 240.03 378.48 238.56 371.91 Z" />
</g>
<g id="#6b231f80">
<path fill="#6b231f" opacity="0.50" d=" M 150.75 381.75 C 167.23 380.89 183.77 380.87 200.25 381.75 C 183.75 381.66 167.25 381.65 150.75 381.75 Z" />
</g>
</svg>
