<?xml version="1.0" encoding="UTF-8" ?>
<!DOCTYPE svg PUBLIC "-//W3C//DTD SVG 1.1//EN" "http://www.w3.org/Graphics/SVG/1.1/DTD/svg11.dtd">
<svg width="400pt" height="349pt" viewBox="0 0 400 349" version="1.1" xmlns="http://www.w3.org/2000/svg">
<g id="#2a35496c">
<path fill="#2a3549" opacity="0.42" d=" M 190.17 19.20 C 191.95 16.81 193.42 12.74 196.93 12.92 C 195.95 22.85 199.02 36.84 195.97 45.00 C 195.90 35.28 196.27 25.55 195.89 15.84 C 193.85 16.72 192.06 18.06 190.17 19.20 Z" />
</g>
<g id="#395589c4">
<path fill="#395589" opacity="0.77" d=" M 190.17 19.20 C 192.06 18.06 193.85 16.72 195.89 15.84 C 196.27 25.55 195.90 35.28 195.97 45.00 C 195.92 45.81 195.81 47.45 195.76 48.27 C 195.54 46.65 195.10 43.40 194.88 41.78 C 192.24 35.93 201.07 17.94 190.16 20.08 L 190.17 19.20 Z" />
</g>
<g id="#263b6496">
<path fill="#263b64" opacity="0.59" d=" M 132.01 65.01 C 150.07 48.91 170.35 33.61 190.17 19.20 L 190.16 20.08 C 180.58 30.02 168.50 37.12 158.06 46.12 C 155.98 47.35 154.33 49.14 153.13 51.22 C 152.86 51.42 152.33 51.81 152.07 52.00 C 146.57 53.42 142.93 58.22 139.05 62.02 C 127.58 63.22 134.99 79.68 133.11 87.03 C 132.91 88.82 132.61 90.60 132.20 92.36 C 131.98 83.24 131.93 74.13 132.01 65.01 Z" />
</g>
<g id="#5379c0f2">
<path fill="#5379c0" opacity="0.95" d=" M 190.16 20.08 C 201.07 17.94 192.24 35.93 194.88 41.78 C 194.65 42.10 194.19 42.72 193.95 43.04 L 193.02 43.08 C 192.20 36.52 194.55 26.76 191.93 21.92 C 189.39 22.86 187.57 24.93 185.55 26.62 C 176.32 33.29 167.74 40.84 158.30 47.22 L 158.06 46.12 C 168.50 37.12 180.58 30.02 190.16 20.08 Z" />
</g>
<g id="#f4f9ffff">
<path fill="#f4f9ff" opacity="1.00" d=" M 185.55 26.62 C 187.57 24.93 189.39 22.86 191.93 21.92 C 191.98 68.34 192.16 114.75 191.86 161.16 C 189.31 160.71 184.62 161.86 187.99 155.99 C 188.33 117.31 188.00 78.66 188.02 39.98 C 190.42 34.70 183.55 31.56 185.55 26.62 Z" />
</g>
<g id="#a9c3f0ff">
<path fill="#a9c3f0" opacity="1.00" d=" M 191.93 21.92 C 194.55 26.76 192.20 36.52 193.02 43.08 C 193.05 82.98 192.85 122.89 193.11 162.79 C 192.79 162.61 192.15 162.25 191.83 162.07 L 191.86 161.16 C 192.16 114.75 191.98 68.34 191.93 21.92 Z" />
</g>
<g id="#e8f2feff">
<path fill="#e8f2fe" opacity="1.00" d=" M 158.30 47.22 C 167.74 40.84 176.32 33.29 185.55 26.62 C 183.55 31.56 190.42 34.70 188.02 39.98 C 188.00 78.66 188.33 117.31 187.99 155.99 C 184.62 161.86 189.31 160.71 191.86 161.16 L 191.83 162.07 C 190.56 162.02 189.30 162.01 188.03 162.05 C 185.57 169.63 187.56 181.10 187.17 190.26 L 187.01 191.10 C 184.75 191.79 180.51 194.26 184.42 187.17 C 184.94 177.55 182.50 167.49 175.11 160.82 C 174.21 156.17 176.60 149.92 174.04 145.94 C 161.61 140.46 149.02 135.19 136.78 129.27 C 137.09 107.73 137.19 86.18 136.78 64.64 C 137.54 63.77 138.29 62.90 139.05 62.02 C 143.98 59.57 148.01 55.67 152.07 52.00 C 152.33 51.81 152.86 51.42 153.13 51.22 C 155.07 50.19 156.78 48.80 158.30 47.22 Z" />
</g>
<g id="#0d3fc6fe">
<path fill="#0d3fc6" opacity="1.00" d=" M 193.95 43.04 C 194.19 42.72 194.65 42.10 194.88 41.78 C 195.10 43.40 195.54 46.65 195.76 48.27 C 195.92 49.50 196.00 50.74 196.01 51.99 C 196.31 88.46 195.37 124.98 196.45 161.43 L 196.40 162.21 C 196.22 162.71 195.87 163.73 195.70 164.23 C 195.22 163.97 194.28 163.45 193.80 163.19 C 194.22 123.14 193.94 83.09 193.95 43.04 Z" />
</g>
<g id="#3970dbff">
<path fill="#3970db" opacity="1.00" d=" M 193.02 43.08 L 193.95 43.04 C 193.94 83.09 194.22 123.14 193.80 163.19 L 193.11 162.79 C 192.85 122.89 193.05 82.98 193.02 43.08 Z" />
</g>
<g id="#3c64b6f0">
<path fill="#3c64b6" opacity="0.94" d=" M 153.13 51.22 C 154.33 49.14 155.98 47.35 158.06 46.12 L 158.30 47.22 C 156.78 48.80 155.07 50.19 153.13 51.22 Z" />
</g>
<g id="#446ab4eb">
<path fill="#446ab4" opacity="0.92" d=" M 139.05 62.02 C 142.93 58.22 146.57 53.42 152.07 52.00 C 148.01 55.67 143.98 59.57 139.05 62.02 Z" />
</g>
<g id="#27304068">
<path fill="#273040" opacity="0.41" d=" M 196.01 51.99 L 196.98 52.01 C 196.60 88.46 197.81 125.05 196.45 161.43 C 195.37 124.98 196.31 88.46 196.01 51.99 Z" />
</g>
<g id="#3d65b5ef">
<path fill="#3d65b5" opacity="0.94" d=" M 133.11 87.03 C 134.99 79.68 127.58 63.22 139.05 62.02 C 138.29 62.90 137.54 63.77 136.78 64.64 L 136.07 65.17 C 133.77 71.70 135.51 79.85 134.99 86.99 C 134.52 87.00 133.58 87.02 133.11 87.03 Z" />
</g>
<g id="#1f263450">
<path fill="#1f2634" opacity="0.31" d=" M 131.20 91.89 C 131.73 83.60 129.26 71.59 132.01 65.01 C 131.93 74.13 131.98 83.24 132.20 92.36 L 131.20 91.89 Z" />
</g>
<g id="#6b97e3ff">
<path fill="#6b97e3" opacity="1.00" d=" M 134.99 86.99 C 135.51 79.85 133.77 71.70 136.07 65.17 C 135.96 86.41 135.94 107.64 136.06 128.88 C 135.74 128.71 135.09 128.36 134.77 128.19 C 135.13 114.46 135.02 100.72 134.99 86.99 Z" />
</g>
<g id="#c9daf7ff">
<path fill="#c9daf7" opacity="1.00" d=" M 136.07 65.17 L 136.78 64.64 C 137.19 86.18 137.09 107.73 136.78 129.27 L 136.06 128.88 C 135.94 107.64 135.96 86.41 136.07 65.17 Z" />
</g>
<g id="#0808080b">
<path fill="#080808" opacity="0.04" d=" M 30.92 80.00 C 28.25 76.01 33.83 65.50 36.42 68.69 C 34.52 70.16 31.66 71.31 34.01 74.99 C 33.97 135.33 34.03 195.66 33.98 256.00 C 34.00 258.86 34.02 261.78 34.21 264.67 C 30.26 264.67 32.31 257.09 31.07 255.00 C 30.63 196.67 31.47 138.29 30.92 80.00 Z" />
</g>
<g id="#553b2a7a">
<path fill="#553b2a" opacity="0.48" d=" M 34.01 74.99 C 31.66 71.31 34.52 70.16 36.42 68.69 C 52.30 80.94 70.75 89.28 87.13 100.81 C 90.14 103.31 95.34 103.81 96.36 108.08 L 95.44 107.50 C 77.37 96.15 58.70 85.67 41.00 73.81 C 39.22 72.49 37.21 71.47 35.09 70.80 C 35.03 82.62 34.62 94.48 35.29 106.29 C 34.64 155.57 35.15 204.86 35.03 254.14 C 35.01 254.61 34.97 255.56 34.94 256.03 L 33.98 256.00 C 34.03 195.66 33.97 135.33 34.01 74.99 Z" />
</g>
<g id="#9b4c1fd7">
<path fill="#9b4c1f" opacity="0.84" d=" M 35.09 70.80 C 37.21 71.47 39.22 72.49 41.00 73.81 C 30.23 73.58 38.31 90.40 36.36 96.74 C 36.18 99.93 36.10 103.18 35.29 106.29 C 34.62 94.48 35.03 82.62 35.09 70.80 Z" />
</g>
<g id="#e06824fe">
<path fill="#e06824" opacity="1.00" d=" M 36.36 96.74 C 38.31 90.40 30.23 73.58 41.00 73.81 C 41.25 74.88 41.52 75.96 41.79 77.03 C 40.52 76.76 38.81 75.45 38.21 77.33 C 37.71 111.90 38.12 146.48 38.03 181.06 C 38.45 204.73 37.04 229.01 38.70 252.30 C 56.40 253.34 75.25 253.70 93.25 252.35 L 94.11 252.23 C 93.88 254.07 95.61 253.96 96.92 254.16 C 96.77 254.57 96.48 255.39 96.34 255.80 C 94.27 255.91 92.21 255.99 90.15 256.04 C 89.69 256.01 88.77 255.95 88.31 255.92 C 88.09 255.50 87.66 254.67 87.44 254.25 C 73.47 253.93 59.40 253.60 45.46 254.26 C 45.25 254.66 44.84 255.48 44.64 255.88 L 43.72 255.93 C 40.79 255.94 37.87 256.00 34.94 256.03 C 34.97 255.56 35.01 254.61 35.03 254.14 C 35.68 254.07 36.98 253.94 37.63 253.87 C 35.75 201.53 38.26 149.06 36.36 96.74 Z" />
</g>
<g id="#bf5b25ed">
<path fill="#bf5b25" opacity="0.93" d=" M 41.00 73.81 C 58.70 85.67 77.37 96.15 95.44 107.50 C 95.07 108.12 94.34 109.36 93.97 109.98 L 93.21 109.60 C 76.26 98.82 59.05 88.43 42.02 77.81 L 41.79 77.03 C 41.52 75.96 41.25 74.88 41.00 73.81 Z" />
</g>
<g id="#f6c39bff">
<path fill="#f6c39b" opacity="1.00" d=" M 38.21 77.33 C 38.81 75.45 40.52 76.76 41.79 77.03 L 42.02 77.81 C 41.29 77.91 39.85 78.13 39.13 78.24 C 38.87 101.09 38.95 123.96 39.10 146.81 C 39.01 157.45 38.84 168.10 39.25 178.74 C 39.21 179.27 39.13 180.32 39.09 180.85 L 38.03 181.06 C 38.12 146.48 37.71 111.90 38.21 77.33 Z" />
</g>
<g id="#fff5e6ff">
<path fill="#fff5e6" opacity="1.00" d=" M 39.13 78.24 C 39.85 78.13 41.29 77.91 42.02 77.81 C 59.05 88.43 76.26 98.82 93.21 109.60 C 92.79 123.00 93.15 136.41 92.93 149.81 C 92.23 151.07 92.13 153.19 90.22 152.99 C 88.80 145.68 88.70 137.71 84.71 131.22 C 73.71 129.65 62.41 130.36 51.34 129.38 C 42.92 133.94 44.23 145.21 41.75 153.14 C 39.68 151.71 39.63 149.09 39.10 146.81 C 38.95 123.96 38.87 101.09 39.13 78.24 Z" />
</g>
<g id="#2055c6fb">
<path fill="#2055c6" opacity="1.00" d=" M 133.11 87.03 C 133.58 87.02 134.52 87.00 134.99 86.99 C 135.02 100.72 135.13 114.46 134.77 128.19 C 133.83 127.84 132.89 127.49 131.94 127.16 C 132.16 115.56 131.69 103.95 132.20 92.36 C 132.61 90.60 132.91 88.82 133.11 87.03 Z" />
</g>
<g id="#26324769">
<path fill="#263247" opacity="0.41" d=" M 219.14 91.23 C 221.00 88.59 224.08 92.02 226.07 92.96 C 242.65 103.08 262.48 111.64 277.73 122.28 L 276.78 122.23 C 259.45 113.51 242.37 104.14 225.36 94.66 C 224.05 93.02 222.05 92.31 220.07 91.86 C 219.85 103.58 220.05 115.30 220.00 127.02 L 219.02 126.97 C 218.99 115.06 218.83 103.14 219.14 91.23 Z" />
</g>
<g id="#202e4870">
<path fill="#202e48" opacity="0.44" d=" M 353.80 93.16 C 354.92 91.24 356.45 89.37 358.94 89.95 C 359.10 101.30 358.96 112.65 359.02 124.00 C 359.01 124.75 358.99 126.24 358.98 126.99 L 358.01 127.01 C 357.99 125.34 357.99 123.67 357.98 122.00 C 357.88 112.01 358.29 102.00 357.92 92.01 C 356.52 92.32 355.16 92.75 353.80 93.16 Z" />
</g>
<g id="#5c6673a2">
<path fill="#5c6673" opacity="0.64" d=" M 131.20 91.89 L 132.20 92.36 C 131.69 103.95 132.16 115.56 131.94 127.16 L 131.01 127.06 L 130.94 126.15 C 130.94 125.62 130.94 124.56 130.94 124.03 C 131.16 113.67 130.82 103.32 131.09 92.97 L 131.20 91.89 Z" />
</g>
<g id="#3b517bb1">
<path fill="#3b517b" opacity="0.69" d=" M 220.07 91.86 C 222.05 92.31 224.05 93.02 225.36 94.66 C 223.94 94.36 222.51 94.09 221.07 93.94 C 220.86 103.35 220.99 112.75 221.05 122.16 C 221.01 123.77 221.00 125.38 220.98 126.99 L 220.00 127.02 C 220.05 115.30 219.85 103.58 220.07 91.86 Z" />
</g>
<g id="#33518bc7">
<path fill="#33518b" opacity="0.78" d=" M 353.80 93.16 C 355.16 92.75 356.52 92.32 357.92 92.01 C 358.29 102.00 357.88 112.01 357.98 122.00 L 357.01 122.00 L 356.98 121.01 C 356.96 112.09 357.20 103.17 356.88 94.26 C 356.28 94.16 355.06 93.97 354.46 93.87 L 353.80 93.16 Z" />
</g>
<g id="#1716141d">
<path fill="#171614" opacity="0.11" d=" M 130.94 124.03 C 129.67 116.09 128.80 100.68 131.09 92.97 C 130.82 103.32 131.16 113.67 130.94 124.03 Z" />
</g>
<g id="#3c475b7f">
<path fill="#3c475b" opacity="0.50" d=" M 339.25 102.23 C 342.29 98.48 348.89 95.03 353.80 93.16 L 354.46 93.87 C 349.85 97.41 344.70 100.24 339.25 102.23 Z" />
</g>
<g id="#496cafe5">
<path fill="#496caf" opacity="0.90" d=" M 221.07 93.94 C 222.51 94.09 223.94 94.36 225.36 94.66 C 242.37 104.14 259.45 113.51 276.78 122.23 C 278.31 123.71 279.84 125.19 281.15 126.88 L 280.15 126.92 L 279.24 126.69 C 262.23 116.32 244.27 107.62 227.00 97.75 C 226.49 97.45 225.47 96.84 224.97 96.54 C 223.85 95.74 222.62 95.79 222.26 97.31 C 221.74 105.15 221.62 113.09 222.77 120.88 C 222.34 121.20 221.48 121.84 221.05 122.16 C 220.99 112.75 220.86 103.35 221.07 93.94 Z" />
</g>
<g id="#4970bcf0">
<path fill="#4970bc" opacity="0.94" d=" M 354.46 93.87 C 355.06 93.97 356.28 94.16 356.88 94.26 C 357.20 103.17 356.96 112.09 356.98 121.01 L 356.00 120.99 C 355.61 113.12 356.77 105.09 355.69 97.29 C 355.15 94.74 353.28 97.28 352.07 97.91 C 336.48 107.09 320.89 116.41 304.95 124.95 L 304.22 125.28 C 304.35 124.63 304.61 123.34 304.74 122.69 C 316.00 115.47 328.75 110.55 339.25 102.23 C 344.70 100.24 349.85 97.41 354.46 93.87 Z" />
</g>
<g id="#5680d0fd">
<path fill="#5680d0" opacity="1.00" d=" M 222.26 97.31 C 222.62 95.79 223.85 95.74 224.97 96.54 C 222.83 121.83 224.45 147.36 224.12 172.74 C 222.70 172.28 221.32 171.72 219.93 171.18 C 220.05 156.46 219.99 141.74 220.00 127.02 L 220.98 126.99 C 221.16 140.96 220.76 154.94 221.07 168.91 C 221.35 171.41 227.17 174.37 222.99 166.07 C 222.75 151.01 223.51 135.91 222.77 120.88 C 221.62 113.09 221.74 105.15 222.26 97.31 Z" />
</g>
<g id="#91b3e9ff">
<path fill="#91b3e9" opacity="1.00" d=" M 352.07 97.91 C 353.28 97.28 355.15 94.74 355.69 97.29 C 356.77 105.09 355.61 113.12 356.00 120.99 C 355.92 164.70 356.14 208.42 355.91 252.14 L 355.15 252.23 L 355.11 251.31 C 354.85 200.88 355.09 150.45 355.00 100.02 C 355.67 97.75 353.67 97.93 352.07 97.91 Z" />
</g>
<g id="#c62b02fb">
<path fill="#c62b02" opacity="1.00" d=" M 36.36 96.74 C 38.26 149.06 35.75 201.53 37.63 253.87 C 36.98 253.94 35.68 254.07 35.03 254.14 C 35.15 204.86 34.64 155.57 35.29 106.29 C 36.10 103.18 36.18 99.93 36.36 96.74 Z" />
</g>
<g id="#bcd0f3ff">
<path fill="#bcd0f3" opacity="1.00" d=" M 224.12 172.74 C 224.45 147.36 222.83 121.83 224.97 96.54 C 225.47 96.84 226.49 97.45 227.00 97.75 C 226.56 97.90 225.68 98.20 225.24 98.34 C 224.64 123.22 225.18 148.11 224.99 173.00 L 224.12 172.74 Z" />
</g>
<g id="#e9f2feff">
<path fill="#e9f2fe" opacity="1.00" d=" M 225.24 98.34 C 225.68 98.20 226.56 97.90 227.00 97.75 C 244.27 107.62 262.23 116.32 279.24 126.69 C 278.94 138.24 278.79 149.81 279.22 161.36 C 274.08 165.12 264.08 164.05 262.22 170.76 C 262.11 172.51 261.88 176.02 261.77 177.77 C 261.06 183.41 261.01 189.11 260.87 194.79 C 252.45 211.00 262.84 232.97 256.14 249.36 C 255.42 232.15 256.91 214.88 255.34 197.72 C 254.02 192.68 256.84 184.90 254.06 180.91 C 251.53 180.04 248.82 180.08 246.21 179.68 C 245.66 179.45 244.57 178.99 244.02 178.76 C 242.54 177.74 240.82 177.09 239.02 176.97 C 237.71 176.54 236.40 176.13 235.09 175.75 C 233.75 174.31 231.86 173.51 229.92 174.22 C 228.26 173.86 226.61 173.48 224.99 173.00 C 225.18 148.11 224.64 123.22 225.24 98.34 Z" />
</g>
<g id="#eaf3feff">
<path fill="#eaf3fe" opacity="1.00" d=" M 352.07 97.91 C 353.67 97.93 355.67 97.75 355.00 100.02 C 355.09 150.45 354.85 200.88 355.11 251.31 C 353.85 251.52 352.58 251.72 351.30 251.75 C 347.18 249.70 342.38 250.27 338.07 248.81 C 347.33 229.20 341.27 206.81 343.06 185.99 C 342.27 175.82 341.64 161.24 329.72 158.18 C 325.49 155.21 327.02 162.90 323.14 163.33 C 321.74 158.53 325.20 148.97 321.95 145.96 C 320.88 145.95 319.89 146.19 318.95 146.68 C 318.37 146.98 317.22 147.58 316.64 147.88 C 313.20 149.22 309.67 150.31 306.17 151.42 C 301.92 145.26 303.50 133.40 304.95 124.95 C 320.89 116.41 336.48 107.09 352.07 97.91 Z" />
</g>
<g id="#3441597f">
<path fill="#344159" opacity="0.50" d=" M 298.96 125.33 C 311.48 116.36 325.00 108.06 339.25 102.23 C 328.75 110.55 316.00 115.47 304.74 122.69 C 302.92 123.79 301.00 124.71 298.96 125.33 Z" />
</g>
<g id="#40342c53">
<path fill="#40342c" opacity="0.33" d=" M 96.36 108.08 C 96.63 105.43 100.47 100.42 98.00 109.97 C 98.05 121.42 96.69 134.81 105.21 143.90 L 109.94 144.02 C 110.16 135.36 109.84 126.70 110.04 118.04 C 111.07 118.38 114.60 116.96 113.84 118.87 C 113.16 118.97 111.80 119.17 111.11 119.27 C 110.83 127.87 111.04 136.47 110.96 145.08 C 103.72 147.80 100.74 140.95 98.75 135.81 C 98.99 133.90 98.73 131.98 97.19 130.68 C 96.92 123.15 97.34 115.57 96.36 108.08 Z" />
</g>
<g id="#cc4008fe">
<path fill="#cc4008" opacity="1.00" d=" M 93.97 109.98 C 94.34 109.36 95.07 108.12 95.44 107.50 L 96.36 108.08 C 97.34 115.57 96.92 123.15 97.19 130.68 C 96.89 171.56 96.85 212.45 97.22 253.33 L 96.92 254.16 C 95.61 253.96 93.88 254.07 94.11 252.23 C 95.63 205.19 95.51 157.79 94.19 110.78 L 93.97 109.98 Z" />
</g>
<g id="#ffc397ff">
<path fill="#ffc397" opacity="1.00" d=" M 93.21 109.60 L 93.97 109.98 L 94.19 110.78 C 93.84 157.93 93.96 205.08 94.11 252.23 L 93.25 252.35 C 93.21 251.80 93.15 250.72 93.11 250.17 C 92.91 237.41 93.03 224.66 92.99 211.90 C 93.05 202.89 92.98 193.89 92.99 184.88 C 93.06 173.19 93.01 161.50 92.93 149.81 C 93.15 136.41 92.79 123.00 93.21 109.60 Z" />
</g>
<g id="#ef691eff">
<path fill="#ef691e" opacity="1.00" d=" M 94.19 110.78 C 95.51 157.79 95.63 205.19 94.11 252.23 C 93.96 205.08 93.84 157.93 94.19 110.78 Z" />
</g>
<g id="#5a564e73">
<path fill="#5a564e" opacity="0.45" d=" M 199.24 113.34 C 202.56 115.80 196.96 118.23 199.24 113.34 Z" />
</g>
<g id="#7b401eae">
<path fill="#7b401e" opacity="0.68" d=" M 111.11 119.27 C 111.80 119.17 113.16 118.97 113.84 118.87 C 119.46 121.49 125.13 123.99 130.94 126.15 L 131.01 127.06 C 124.10 127.06 118.95 120.97 112.08 120.92 C 111.92 127.54 111.86 134.17 112.10 140.80 C 112.07 142.60 112.03 146.20 112.00 148.00 L 111.02 148.00 C 111.01 147.27 110.98 145.81 110.96 145.08 C 111.04 136.47 110.83 127.87 111.11 119.27 Z" />
</g>
<g id="#d24c16fd">
<path fill="#d24c16" opacity="1.00" d=" M 112.08 120.92 C 118.95 120.97 124.10 127.06 131.01 127.06 L 131.94 127.16 C 132.89 127.49 133.83 127.84 134.77 128.19 C 135.09 128.36 135.74 128.71 136.06 128.88 L 136.78 129.27 C 149.02 135.19 161.61 140.46 174.04 145.94 C 174.04 157.30 173.92 168.66 174.05 180.03 C 172.73 180.02 171.41 180.01 170.09 179.99 L 170.18 179.14 C 171.24 169.12 171.79 158.66 170.25 148.78 C 151.97 140.38 133.64 131.27 114.98 123.99 C 112.71 128.42 114.42 136.92 113.93 143.19 C 113.32 142.40 112.71 141.60 112.10 140.80 C 111.86 134.17 111.92 127.54 112.08 120.92 Z" />
</g>
<g id="#144acbfe">
<path fill="#144acb" opacity="1.00" d=" M 221.05 122.16 C 221.48 121.84 222.34 121.20 222.77 120.88 C 223.51 135.91 222.75 151.01 222.99 166.07 C 227.17 174.37 221.35 171.41 221.07 168.91 C 220.76 154.94 221.16 140.96 220.98 126.99 C 221.00 125.38 221.01 123.77 221.05 122.16 Z" />
</g>
<g id="#2a65daff">
<path fill="#2a65da" opacity="1.00" d=" M 356.00 120.99 L 356.98 121.01 L 357.01 122.00 C 357.06 165.94 356.86 209.88 357.11 253.82 C 356.81 253.40 356.21 252.56 355.91 252.14 C 356.14 208.42 355.92 164.70 356.00 120.99 Z" />
</g>
<g id="#2f436a9d">
<path fill="#2f436a" opacity="0.62" d=" M 276.78 122.23 L 277.73 122.28 C 279.84 122.51 282.46 123.93 282.99 126.06 C 283.06 133.76 283.08 141.48 282.67 149.18 C 281.05 141.94 283.61 133.76 281.15 126.88 C 279.84 125.19 278.31 123.71 276.78 122.23 Z" />
</g>
<g id="#0632ccff">
<path fill="#0632cc" opacity="1.00" d=" M 357.01 122.00 L 357.98 122.00 C 357.99 123.67 357.99 125.34 358.01 127.01 C 358.74 168.98 356.49 211.20 359.15 253.02 L 359.02 254.06 C 358.55 254.00 357.59 253.88 357.11 253.82 C 356.86 209.88 357.06 165.94 357.01 122.00 Z" />
</g>
<g id="#415e92cc">
<path fill="#415e92" opacity="0.80" d=" M 298.96 125.33 C 301.00 124.71 302.92 123.79 304.74 122.69 C 304.61 123.34 304.35 124.63 304.22 125.28 C 303.91 125.45 303.28 125.80 302.97 125.98 C 294.87 130.86 304.32 144.41 298.26 151.40 L 298.20 150.42 L 298.21 149.35 C 299.24 141.38 299.10 133.34 298.96 125.33 Z" />
</g>
<g id="#f3974eff">
<path fill="#f3974e" opacity="1.00" d=" M 113.93 143.19 C 114.42 136.92 112.71 128.42 114.98 123.99 C 115.10 125.23 115.22 126.47 115.36 127.71 C 114.73 145.21 114.91 162.73 115.25 180.23 C 114.88 197.39 114.74 214.56 115.33 231.71 C 115.10 238.49 114.94 245.28 114.91 252.07 C 112.71 216.05 114.72 179.44 113.93 143.19 Z" />
</g>
<g id="#fef4e6ff">
<path fill="#fef4e6" opacity="1.00" d=" M 114.98 123.99 C 133.64 131.27 151.97 140.38 170.25 148.78 C 169.93 158.90 169.88 169.02 170.18 179.14 L 170.09 179.99 C 167.03 180.20 163.68 179.33 160.90 180.93 C 160.63 181.16 160.07 181.62 159.79 181.85 C 158.77 184.74 159.63 188.84 157.14 191.15 C 149.82 180.22 169.20 174.76 162.69 164.28 C 154.86 158.79 144.88 161.66 136.00 160.91 C 129.86 159.96 118.93 162.18 121.00 170.91 C 121.74 177.11 133.56 171.89 133.08 178.87 C 128.72 179.42 124.04 178.09 119.83 179.63 C 119.56 179.92 119.02 180.50 118.75 180.79 C 117.47 197.77 117.48 215.23 118.75 232.25 C 120.64 240.51 126.32 248.60 135.08 250.30 C 135.28 250.60 135.68 251.21 135.87 251.51 C 133.66 251.64 131.45 251.73 129.24 251.77 C 124.86 251.33 120.46 251.29 116.09 250.80 C 115.65 244.45 116.78 237.96 115.33 231.71 C 114.74 214.56 114.88 197.39 115.25 180.23 C 116.41 162.79 116.52 145.15 115.36 127.71 C 115.22 126.47 115.10 125.23 114.98 123.99 Z" />
</g>
<g id="#4b4f576e">
<path fill="#4b4f57" opacity="0.43" d=" M 359.02 124.00 C 359.50 123.98 360.47 123.93 360.95 123.91 L 361.32 124.72 C 360.62 171.17 361.12 217.63 361.07 264.09 C 360.80 264.57 360.27 265.54 360.01 266.02 C 359.25 266.98 359.06 268.53 357.80 268.99 C 358.97 263.76 361.21 258.36 359.15 253.02 C 358.78 211.01 359.14 169.00 358.98 126.99 C 358.99 126.24 359.01 124.75 359.02 124.00 Z" />
</g>
<g id="#12151b29">
<path fill="#12151b" opacity="0.16" d=" M 297.33 149.84 C 297.87 142.31 294.84 130.91 298.07 124.88 C 297.96 133.04 297.94 141.20 298.21 149.35 L 298.20 150.42 L 297.33 149.84 Z" />
</g>
<g id="#32405982">
<path fill="#324059" opacity="0.51" d=" M 298.07 124.88 L 298.96 125.33 C 299.10 133.34 299.24 141.38 298.21 149.35 C 297.94 141.20 297.96 133.04 298.07 124.88 Z" />
</g>
<g id="#b6ccedff">
<path fill="#b6cced" opacity="1.00" d=" M 304.22 125.28 L 304.95 124.95 C 303.50 133.40 301.92 145.26 306.17 151.42 C 305.20 151.72 304.23 152.03 303.27 152.33 C 302.95 143.55 302.98 134.77 302.97 125.98 C 303.28 125.80 303.91 125.45 304.22 125.28 Z" />
</g>
<g id="#14131317">
<path fill="#141313" opacity="0.09" d=" M 361.32 124.72 C 361.91 126.12 362.93 127.44 362.95 129.02 C 362.31 158.02 362.36 186.95 362.75 215.96 C 361.20 231.94 364.50 248.53 361.07 264.09 C 361.12 217.63 360.62 171.17 361.32 124.72 Z" />
</g>
<g id="#1d202333">
<path fill="#1d2023" opacity="0.20" d=" M 282.99 126.06 C 284.74 134.70 284.35 147.53 283.99 157.98 C 283.11 155.75 282.66 153.37 282.63 150.82 C 282.64 150.41 282.66 149.59 282.67 149.18 C 283.08 141.48 283.06 133.76 282.99 126.06 Z" />
</g>
<g id="#4376cefb">
<path fill="#4376ce" opacity="1.00" d=" M 298.26 151.40 C 304.32 144.41 294.87 130.86 302.97 125.98 C 302.98 134.77 302.95 143.55 303.27 152.33 C 301.64 153.07 299.98 153.74 298.32 154.39 C 298.31 153.65 298.28 152.15 298.26 151.40 Z" />
</g>
<g id="#2624202f">
<path fill="#262420" opacity="0.18" d=" M 218.00 170.01 C 218.97 156.24 216.19 139.11 219.02 126.97 C 218.96 141.36 219.04 155.76 218.97 170.16 L 218.00 170.01 Z" />
</g>
<g id="#7b7c7fb4">
<path fill="#7b7c7f" opacity="0.71" d=" M 219.02 126.97 L 220.00 127.02 C 219.99 141.74 220.05 156.46 219.93 171.18 L 219.00 171.10 L 218.97 170.16 C 219.04 155.76 218.96 141.36 219.02 126.97 Z" />
</g>
<g id="#afcbf5ff">
<path fill="#afcbf5" opacity="1.00" d=" M 279.24 126.69 L 280.15 126.92 C 279.91 138.29 279.98 149.65 280.05 161.02 L 279.22 161.36 C 278.79 149.81 278.94 138.24 279.24 126.69 Z" />
</g>
<g id="#4279d9ff">
<path fill="#4279d9" opacity="1.00" d=" M 280.15 126.92 L 281.15 126.88 C 281.03 137.33 280.84 147.78 281.00 158.23 C 283.42 156.85 281.88 153.17 282.63 150.82 C 282.66 153.37 283.11 155.75 283.99 157.98 C 284.27 158.30 284.84 158.94 285.12 159.25 C 283.42 159.83 281.74 160.44 280.05 161.02 C 279.98 149.65 279.91 138.29 280.15 126.92 Z" />
</g>
<g id="#2153baf5">
<path fill="#2153ba" opacity="0.96" d=" M 281.15 126.88 C 283.61 133.76 281.05 141.94 282.67 149.18 C 282.66 149.59 282.64 150.41 282.63 150.82 C 281.88 153.17 283.42 156.85 281.00 158.23 C 280.84 147.78 281.03 137.33 281.15 126.88 Z" />
</g>
<g id="#032887ff">
<path fill="#032887" opacity="1.00" d=" M 358.01 127.01 L 358.98 126.99 C 359.14 169.00 358.78 211.01 359.15 253.02 C 356.49 211.20 358.74 168.98 358.01 127.01 Z" />
</g>
<g id="#fadabfff">
<path fill="#fadabf" opacity="1.00" d=" M 115.36 127.71 C 116.52 145.15 116.41 162.79 115.25 180.23 C 114.91 162.73 114.73 145.21 115.36 127.71 Z" />
</g>
<g id="#ffeedaff">
<path fill="#ffeeda" opacity="1.00" d=" M 51.34 129.38 C 62.41 130.36 73.71 129.65 84.71 131.22 C 88.70 137.71 88.80 145.68 90.22 152.99 C 92.13 153.19 92.23 151.07 92.93 149.81 C 93.01 161.50 93.06 173.19 92.99 184.88 C 89.98 190.64 88.54 181.80 88.73 179.11 C 89.50 170.14 81.97 162.09 72.99 163.04 C 64.04 164.01 52.46 159.26 46.26 168.23 C 43.12 174.16 44.89 181.73 41.13 187.32 C 40.32 184.50 39.90 181.59 39.25 178.74 C 38.84 168.10 39.01 157.45 39.10 146.81 C 39.63 149.09 39.68 151.71 41.75 153.14 C 44.23 145.21 42.92 133.94 51.34 129.38 Z" />
</g>
<g id="#846651b7">
<path fill="#846651" opacity="0.72" d=" M 97.19 130.68 C 98.73 131.98 98.99 133.90 98.75 135.81 C 96.46 174.88 99.58 214.37 97.22 253.33 C 96.85 212.45 96.89 171.56 97.19 130.68 Z" />
</g>
<g id="#8b8d8eaa">
<path fill="#8b8d8e" opacity="0.67" d=" M 97.22 253.33 C 99.58 214.37 96.46 174.88 98.75 135.81 C 100.74 140.95 103.72 147.80 110.96 145.08 C 110.98 145.81 111.01 147.27 111.02 148.00 C 111.00 155.25 111.03 162.51 110.80 169.77 C 110.17 172.92 109.64 176.19 110.73 179.30 C 110.87 181.12 110.91 182.95 110.85 184.77 C 110.23 187.87 109.76 191.07 110.59 194.16 L 110.64 194.91 C 110.03 200.33 109.75 205.82 110.65 211.24 C 110.66 211.64 110.68 212.43 110.69 212.83 C 110.09 222.25 109.02 231.92 110.66 241.29 C 110.88 245.50 110.78 249.73 111.04 253.94 C 110.88 255.28 111.47 256.05 112.82 256.25 C 111.12 261.87 118.18 267.22 115.54 272.25 C 112.63 266.70 104.61 265.08 100.12 267.95 C 100.05 269.37 99.33 270.19 97.96 270.43 C 97.49 270.58 96.56 270.87 96.09 271.02 C 95.29 270.99 93.68 270.93 92.88 270.89 C 94.81 266.09 98.72 261.32 96.34 255.80 C 96.48 255.39 96.77 254.57 96.92 254.16 L 97.22 253.33 Z" />
</g>
<g id="#d63101ff">
<path fill="#d63101" opacity="1.00" d=" M 112.10 140.80 C 112.71 141.60 113.32 142.40 113.93 143.19 C 114.72 179.44 112.71 216.05 114.91 252.07 C 115.12 252.39 115.54 253.02 115.75 253.34 L 115.76 254.22 C 114.51 254.12 113.26 254.03 112.01 253.97 C 111.99 218.64 112.00 183.32 112.00 148.00 C 112.03 146.20 112.07 142.60 112.10 140.80 Z" />
</g>
<g id="#cba38dff">
<path fill="#cba38d" opacity="1.00" d=" M 174.04 145.94 C 176.60 149.92 174.21 156.17 175.11 160.82 C 175.05 167.45 174.86 174.09 175.14 180.71 L 174.10 181.08 L 174.05 180.03 C 173.92 168.66 174.04 157.30 174.04 145.94 Z" />
</g>
<g id="#d1410cfe">
<path fill="#d1410c" opacity="1.00" d=" M 318.95 146.68 C 319.89 146.19 320.88 145.95 321.95 145.96 C 322.02 154.97 321.97 163.98 322.00 172.99 C 321.99 199.38 321.99 225.78 322.02 252.17 C 302.44 253.39 282.45 253.75 262.92 252.21 C 262.61 225.07 263.95 197.85 262.22 170.76 C 264.08 164.05 274.08 165.12 279.22 161.36 L 280.05 161.02 C 281.74 160.44 283.42 159.83 285.12 159.25 C 287.42 158.57 289.73 157.91 292.05 157.28 C 294.36 156.86 296.46 155.79 298.32 154.39 C 299.98 153.74 301.64 153.07 303.27 152.33 C 304.23 152.03 305.20 151.72 306.17 151.42 C 309.67 150.31 313.20 149.22 316.64 147.88 C 316.21 149.73 317.95 150.69 318.93 151.95 L 318.01 152.00 C 300.25 156.43 283.15 164.33 266.02 170.96 C 263.67 197.04 265.58 225.09 265.06 251.92 L 266.02 251.98 C 283.33 252.04 300.64 252.05 317.96 251.98 C 319.95 252.19 318.61 249.06 319.10 247.87 C 319.69 248.67 320.30 249.45 320.94 250.23 C 321.13 218.48 320.88 186.74 321.06 154.99 C 319.39 153.32 323.17 146.73 318.95 146.68 Z" />
</g>
<g id="#d8c6beff">
<path fill="#d8c6be" opacity="1.00" d=" M 321.95 145.96 C 325.20 148.97 321.74 158.53 323.14 163.33 C 323.11 165.00 323.05 168.32 323.01 169.99 C 323.00 170.75 322.98 172.26 322.97 173.02 L 322.00 172.99 C 321.97 163.98 322.02 154.97 321.95 145.96 Z" />
</g>
<g id="#d12000ff">
<path fill="#d12000" opacity="1.00" d=" M 316.64 147.88 C 317.22 147.58 318.37 146.98 318.95 146.68 C 323.17 146.73 319.39 153.32 321.06 154.99 C 320.88 186.74 321.13 218.48 320.94 250.23 C 320.30 249.45 319.69 248.67 319.10 247.87 C 318.77 215.90 319.22 183.91 318.93 151.95 C 317.95 150.69 316.21 149.73 316.64 147.88 Z" />
</g>
<g id="#c95719ff">
<path fill="#c95719" opacity="1.00" d=" M 111.02 148.00 L 112.00 148.00 C 112.00 183.32 111.99 218.64 112.01 253.97 L 111.04 253.94 C 110.78 249.73 110.88 245.50 110.66 241.29 C 111.10 231.81 111.18 222.31 110.69 212.83 C 110.68 212.43 110.66 211.64 110.65 211.24 C 110.78 205.79 111.31 200.33 110.64 194.91 L 110.59 194.16 C 110.67 191.02 110.84 187.91 110.85 184.77 C 110.91 182.95 110.87 181.12 110.73 179.30 C 110.75 176.10 110.83 172.95 110.80 169.77 C 111.03 162.51 111.00 155.25 111.02 148.00 Z" />
</g>
<g id="#fcb174ff">
<path fill="#fcb174" opacity="1.00" d=" M 170.25 148.78 C 171.79 158.66 171.24 169.12 170.18 179.14 C 169.88 169.02 169.93 158.90 170.25 148.78 Z" />
</g>
<g id="#52453b65">
<path fill="#52453b" opacity="0.40" d=" M 297.33 149.84 L 298.20 150.42 L 298.26 151.40 C 298.28 152.15 298.31 153.65 298.32 154.39 C 296.46 155.79 294.36 156.86 292.05 157.28 C 293.98 154.83 298.33 154.18 297.33 149.84 Z" />
</g>
<g id="#fff6e8ff">
<path fill="#fff6e8" opacity="1.00" d=" M 266.02 170.96 C 283.15 164.33 300.25 156.43 318.01 152.00 C 317.94 152.69 317.81 154.08 317.75 154.77 C 315.95 174.88 317.70 195.11 316.80 215.26 C 313.49 204.61 315.26 192.91 311.64 182.35 C 306.38 175.40 295.37 178.68 287.99 176.96 C 282.91 177.31 277.38 178.11 273.21 181.20 C 269.49 186.48 271.56 194.27 267.20 199.32 C 266.92 190.46 267.43 181.55 266.17 172.76 C 266.13 172.31 266.06 171.41 266.02 170.96 Z" />
</g>
<g id="#e66e22ff">
<path fill="#e66e22" opacity="1.00" d=" M 318.01 152.00 L 318.93 151.95 C 319.22 183.91 318.77 215.90 319.10 247.87 C 318.61 249.06 319.95 252.19 317.96 251.98 C 317.91 219.58 318.28 187.17 317.75 154.77 C 317.81 154.08 317.94 152.69 318.01 152.00 Z" />
</g>
<g id="#facfa6ff">
<path fill="#facfa6" opacity="1.00" d=" M 316.80 215.26 C 317.70 195.11 315.95 174.88 317.75 154.77 C 318.28 187.17 317.91 219.58 317.96 251.98 C 300.64 252.05 283.33 252.04 266.02 251.98 C 266.08 225.57 265.79 199.16 266.17 172.76 C 267.43 181.55 266.92 190.46 267.20 199.32 C 266.96 205.64 266.94 211.98 267.17 218.31 C 266.98 229.18 266.77 240.07 267.09 250.94 C 283.70 251.07 300.32 251.09 316.94 250.91 C 317.08 245.01 317.10 239.11 316.82 233.22 C 316.90 227.23 317.02 221.24 316.80 215.26 Z" />
</g>
<g id="#e3ecfaff">
<path fill="#e3ecfa" opacity="1.00" d=" M 323.14 163.33 C 327.02 162.90 325.49 155.21 329.72 158.18 C 341.64 161.24 342.27 175.82 343.06 185.99 C 341.27 206.81 347.33 229.20 338.07 248.81 C 342.38 250.27 347.18 249.70 351.30 251.75 C 346.23 251.94 341.18 252.12 336.12 252.00 C 334.82 251.02 333.48 250.07 332.39 248.86 C 334.45 227.32 334.83 205.53 333.24 183.95 C 332.97 178.56 330.92 165.92 323.01 169.99 C 323.05 168.32 323.11 165.00 323.14 163.33 Z" />
</g>
<g id="#feefdbff">
<path fill="#feefdb" opacity="1.00" d=" M 121.00 170.91 C 118.93 162.18 129.86 159.96 136.00 160.91 C 144.88 161.66 154.86 158.79 162.69 164.28 C 169.20 174.76 149.82 180.22 157.14 191.15 C 159.63 188.84 158.77 184.74 159.79 181.85 C 159.88 188.49 160.12 195.14 159.86 201.79 C 158.08 206.13 161.03 214.86 156.18 217.15 C 156.48 208.36 154.21 199.56 149.87 191.93 C 136.32 190.02 139.65 208.97 136.03 215.96 C 133.67 212.47 135.28 204.65 133.29 199.72 C 131.96 193.97 134.96 185.63 132.09 180.91 L 131.22 180.74 C 127.44 180.21 123.64 179.84 119.83 179.63 C 124.04 178.09 128.72 179.42 133.08 178.87 C 133.56 171.89 121.74 177.11 121.00 170.91 Z" />
</g>
<g id="#cedae7ff">
<path fill="#cedae7" opacity="1.00" d=" M 175.11 160.82 C 182.50 167.49 184.94 177.55 184.42 187.17 C 180.51 194.26 184.75 191.79 187.01 191.10 C 186.96 191.52 186.86 192.35 186.80 192.77 C 186.08 196.52 185.72 200.49 186.76 204.24 C 186.85 204.63 187.05 205.42 187.15 205.81 C 187.05 214.74 186.99 223.66 186.95 232.59 C 183.50 236.25 183.81 243.28 187.08 247.15 C 186.87 249.07 186.78 251.01 187.10 252.92 C 183.09 252.93 179.08 252.93 175.07 252.93 C 174.70 228.86 177.68 204.73 175.14 180.71 C 174.86 174.09 175.05 167.45 175.11 160.82 Z" />
</g>
<g id="#d8ab8fff">
<path fill="#d8ab8f" opacity="1.00" d=" M 187.17 190.26 C 187.56 181.10 185.57 169.63 188.03 162.05 C 188.04 170.78 187.76 179.53 188.24 188.26 C 187.97 188.76 187.44 189.76 187.17 190.26 Z" />
</g>
<g id="#d65f1ffd">
<path fill="#d65f1f" opacity="1.00" d=" M 188.03 162.05 C 189.30 162.01 190.56 162.02 191.83 162.07 C 192.15 162.25 192.79 162.61 193.11 162.79 L 193.80 163.19 C 194.28 163.45 195.22 163.97 195.70 164.23 C 196.58 164.72 197.54 165.04 198.56 165.17 C 204.87 168.53 211.97 170.17 219.00 171.10 L 219.93 171.18 C 221.32 171.72 222.70 172.28 224.12 172.74 L 224.99 173.00 C 226.61 173.48 228.26 173.86 229.92 174.22 C 231.23 175.71 233.15 176.49 235.09 175.75 C 236.40 176.13 237.71 176.54 239.02 176.97 C 239.54 179.37 242.08 179.62 244.02 178.76 C 244.57 178.99 245.66 179.45 246.21 179.68 C 244.34 180.19 241.26 179.21 240.66 181.68 L 240.30 182.36 C 239.92 180.33 237.86 179.61 236.04 180.04 L 235.26 179.95 C 230.88 178.43 226.65 176.06 221.90 176.03 C 221.49 173.53 218.84 173.38 216.94 174.30 C 214.97 173.91 213.02 173.46 211.07 172.99 C 210.58 171.05 208.57 170.48 206.86 171.20 C 205.19 170.88 203.54 170.50 201.90 170.03 C 200.63 167.95 198.25 167.40 196.00 168.10 C 194.67 168.04 193.35 168.03 192.03 168.06 C 189.93 171.74 191.00 179.06 190.80 184.40 C 190.00 185.72 189.14 187.00 188.24 188.26 C 187.76 179.53 188.04 170.78 188.03 162.05 Z" />
</g>
<g id="#423c4187">
<path fill="#423c41" opacity="0.53" d=" M 195.70 164.23 C 195.87 163.73 196.22 162.71 196.40 162.21 C 197.34 162.79 199.00 163.89 198.56 165.17 C 197.54 165.04 196.58 164.72 195.70 164.23 Z" />
</g>
<g id="#ffe8cfff">
<path fill="#ffe8cf" opacity="1.00" d=" M 46.26 168.23 C 52.46 159.26 64.04 164.01 72.99 163.04 C 81.97 162.09 89.50 170.14 88.73 179.11 C 88.54 181.80 89.98 190.64 92.99 184.88 C 92.98 193.89 93.05 202.89 92.99 211.90 C 92.35 212.66 91.68 213.40 91.00 214.12 C 88.13 208.50 89.64 201.38 85.78 196.21 C 78.82 186.59 65.83 194.43 56.35 191.55 C 51.98 189.60 49.14 193.78 46.40 196.41 C 42.07 200.08 45.53 207.50 41.21 211.13 C 40.42 209.73 39.76 208.26 39.10 206.80 C 39.01 198.15 38.85 189.50 39.09 180.85 C 39.13 180.32 39.21 179.27 39.25 178.74 C 39.90 181.59 40.32 184.50 41.13 187.32 C 44.89 181.73 43.12 174.16 46.26 168.23 Z" />
</g>
<g id="#6447337a">
<path fill="#644733" opacity="0.48" d=" M 198.56 165.17 C 205.38 164.63 211.41 168.96 218.00 170.01 L 218.97 170.16 L 219.00 171.10 C 211.97 170.17 204.87 168.53 198.56 165.17 Z" />
</g>
<g id="#edab6fff">
<path fill="#edab6f" opacity="1.00" d=" M 190.80 184.40 C 191.00 179.06 189.93 171.74 192.03 168.06 C 193.46 171.97 189.11 180.62 193.98 182.19 C 192.92 182.92 191.85 183.65 190.80 184.40 Z" />
</g>
<g id="#fbf2e3ff">
<path fill="#fbf2e3" opacity="1.00" d=" M 192.03 168.06 C 193.35 168.03 194.67 168.04 196.00 168.10 C 197.66 169.45 199.74 170.23 201.90 170.03 C 203.54 170.50 205.19 170.88 206.86 171.20 C 207.58 172.89 209.37 173.46 211.07 172.99 C 213.02 173.46 214.97 173.91 216.94 174.30 C 218.45 175.22 220.12 175.88 221.90 176.03 C 226.03 178.21 230.44 180.36 235.26 179.95 L 236.04 180.04 C 236.77 181.68 238.33 182.56 240.00 183.01 C 239.94 192.60 240.18 202.20 239.81 211.79 C 238.53 220.83 239.14 229.97 238.96 239.06 C 237.34 237.78 235.89 236.31 234.21 235.11 C 231.40 237.15 230.86 244.75 226.56 242.06 C 227.47 240.12 228.55 238.25 229.18 236.20 C 229.90 231.83 231.02 226.98 229.28 222.72 C 225.49 209.24 208.67 209.59 200.61 200.09 C 201.48 198.13 201.46 195.92 200.63 193.96 C 201.93 192.47 203.26 190.99 204.83 189.78 C 208.24 189.81 211.68 189.87 215.11 189.92 C 218.59 190.94 221.40 193.63 225.03 194.22 C 229.28 194.42 227.26 185.24 226.06 183.05 L 225.37 182.51 C 222.51 180.01 218.79 178.85 215.20 177.85 C 211.48 176.90 207.44 176.52 203.75 177.78 C 200.34 178.87 196.88 180.02 193.98 182.19 C 189.11 180.62 193.46 171.97 192.03 168.06 Z" />
</g>
<g id="#f6a469ff">
<path fill="#f6a469" opacity="1.00" d=" M 196.00 168.10 C 198.25 167.40 200.63 167.95 201.90 170.03 C 199.74 170.23 197.66 169.45 196.00 168.10 Z" />
</g>
<g id="#d4dfecff">
<path fill="#d4dfec" opacity="1.00" d=" M 323.01 169.99 C 330.92 165.92 332.97 178.56 333.24 183.95 C 334.83 205.53 334.45 227.32 332.39 248.86 C 333.48 250.07 334.82 251.02 336.12 252.00 C 332.93 252.29 327.68 252.35 326.17 248.89 C 329.78 228.57 327.49 207.69 327.78 187.15 C 327.83 182.81 326.68 178.45 323.14 175.74 C 323.10 175.06 323.01 173.70 322.97 173.02 C 322.98 172.26 323.00 170.75 323.01 169.99 Z" />
</g>
<g id="#c6aa97fa">
<path fill="#c6aa97" opacity="0.98" d=" M 110.73 179.30 C 109.64 176.19 110.17 172.92 110.80 169.77 C 110.83 172.95 110.75 176.10 110.73 179.30 Z" />
</g>
<g id="#f5af7bff">
<path fill="#f5af7b" opacity="1.00" d=" M 206.86 171.20 C 208.57 170.48 210.58 171.05 211.07 172.99 C 209.37 173.46 207.58 172.89 206.86 171.20 Z" />
</g>
<g id="#c95c1fff">
<path fill="#c95c1f" opacity="1.00" d=" M 262.22 170.76 C 263.95 197.85 262.61 225.07 262.92 252.21 L 262.01 251.99 C 261.82 227.25 262.32 202.50 261.77 177.77 C 261.88 176.02 262.11 172.51 262.22 170.76 Z" />
</g>
<g id="#ed7f35ff">
<path fill="#ed7f35" opacity="1.00" d=" M 265.06 251.92 C 265.58 225.09 263.67 197.04 266.02 170.96 C 266.06 171.41 266.13 172.31 266.17 172.76 C 265.79 199.16 266.08 225.57 266.02 251.98 L 265.06 251.92 Z" />
</g>
<g id="#b19a90ff">
<path fill="#b19a90" opacity="1.00" d=" M 322.00 172.99 L 322.97 173.02 C 323.01 173.70 323.10 175.06 323.14 175.74 C 322.75 201.20 323.22 226.68 322.91 252.15 L 322.83 253.32 L 322.03 253.10 L 322.02 252.17 C 321.99 225.78 321.99 199.38 322.00 172.99 Z" />
</g>
<g id="#f9b77dff">
<path fill="#f9b77d" opacity="1.00" d=" M 216.94 174.30 C 218.84 173.38 221.49 173.53 221.90 176.03 C 220.12 175.88 218.45 175.22 216.94 174.30 Z" />
</g>
<g id="#e1ad8bff">
<path fill="#e1ad8b" opacity="1.00" d=" M 229.92 174.22 C 231.86 173.51 233.75 174.31 235.09 175.75 C 233.15 176.49 231.23 175.71 229.92 174.22 Z" />
</g>
<g id="#f7b379ff">
<path fill="#f7b379" opacity="1.00" d=" M 221.90 176.03 C 226.65 176.06 230.88 178.43 235.26 179.95 C 230.44 180.36 226.03 178.21 221.90 176.03 Z" />
</g>
<g id="#bbd2e6ff">
<path fill="#bbd2e6" opacity="1.00" d=" M 323.14 175.74 C 326.68 178.45 327.83 182.81 327.78 187.15 C 327.49 207.69 329.78 228.57 326.17 248.89 C 327.68 252.35 332.93 252.29 336.12 252.00 C 341.18 252.12 346.23 251.94 351.30 251.75 C 352.58 251.72 353.85 251.52 355.11 251.31 L 355.15 252.23 C 344.46 253.60 333.60 253.37 322.91 252.15 C 323.22 226.68 322.75 201.20 323.14 175.74 Z" />
</g>
<g id="#878e8cff">
<path fill="#878e8c" opacity="1.00" d=" M 203.75 177.78 C 207.44 176.52 211.48 176.90 215.20 177.85 C 211.37 177.87 207.57 177.95 203.75 177.78 Z" />
</g>
<g id="#f3ba8dff">
<path fill="#f3ba8d" opacity="1.00" d=" M 239.02 176.97 C 240.82 177.09 242.54 177.74 244.02 178.76 C 242.08 179.62 239.54 179.37 239.02 176.97 Z" />
</g>
<g id="#ffefdcff">
<path fill="#ffefdc" opacity="1.00" d=" M 273.21 181.20 C 277.38 178.11 282.91 177.31 287.99 176.96 C 295.37 178.68 306.38 175.40 311.64 182.35 C 315.26 192.91 313.49 204.61 316.80 215.26 C 317.02 221.24 316.90 227.23 316.82 233.22 C 312.08 222.56 318.26 205.14 306.34 198.65 C 296.94 197.83 287.01 197.14 277.59 198.53 C 268.51 200.82 272.47 212.60 267.17 218.31 C 266.94 211.98 266.96 205.64 267.20 199.32 C 271.56 194.27 269.49 186.48 273.21 181.20 Z" />
</g>
<g id="#050505ff">
<path fill="#050505" opacity="1.00" d=" M 193.98 182.19 C 196.88 180.02 200.34 178.87 203.75 177.78 C 207.57 177.95 211.37 177.87 215.20 177.85 C 218.79 178.85 222.51 180.01 225.37 182.51 C 225.22 186.10 225.08 189.71 225.25 193.31 L 225.03 194.22 C 221.40 193.63 218.59 190.94 215.11 189.92 C 211.67 188.73 208.24 188.69 204.83 189.78 C 203.26 190.99 201.93 192.47 200.63 193.96 C 198.95 196.28 198.94 198.32 200.61 200.09 C 208.67 209.59 225.49 209.24 229.28 222.72 C 229.21 227.20 229.22 231.70 229.18 236.20 C 228.55 238.25 227.47 240.12 226.56 242.06 C 224.14 246.33 219.61 248.44 215.20 250.13 C 212.64 250.36 210.15 250.99 207.72 251.83 C 206.06 251.85 202.74 251.90 201.08 251.93 C 200.17 250.51 198.39 250.60 196.99 251.05 C 195.75 250.53 194.49 250.06 193.22 249.63 C 191.53 249.02 189.84 248.43 188.15 247.83 C 187.89 247.66 187.35 247.32 187.08 247.15 C 183.81 243.28 183.50 236.25 186.95 232.59 L 187.91 232.87 C 188.91 233.60 189.89 234.35 190.89 235.10 C 191.17 235.31 191.75 235.75 192.04 235.97 C 194.43 237.67 196.98 239.24 199.77 240.22 C 202.55 240.82 205.58 241.59 208.28 240.33 C 211.12 239.41 213.40 237.38 215.24 235.10 C 217.16 233.16 217.47 229.47 215.19 227.85 C 209.29 220.89 199.78 219.24 192.87 213.68 C 192.20 212.97 191.53 212.26 190.85 211.56 C 189.98 210.62 189.11 209.67 188.22 208.75 C 187.87 207.77 187.51 206.79 187.15 205.81 C 187.05 205.42 186.85 204.63 186.76 204.24 C 186.84 200.40 186.95 196.60 186.80 192.77 C 186.86 192.35 186.96 191.52 187.01 191.10 L 187.17 190.26 C 187.44 189.76 187.97 188.76 188.24 188.26 C 189.14 187.00 190.00 185.72 190.80 184.40 C 191.85 183.65 192.92 182.92 193.98 182.19 Z" />
</g>
<g id="#bfaea9ff">
<path fill="#bfaea9" opacity="1.00" d=" M 260.87 194.79 C 261.01 189.11 261.06 183.41 261.77 177.77 C 262.32 202.50 261.82 227.25 262.01 251.99 L 262.02 253.05 L 260.98 252.99 C 260.96 233.59 261.14 214.19 260.87 194.79 Z" />
</g>
<g id="#373332ff">
<path fill="#373332" opacity="1.00" d=" M 118.75 180.79 C 119.02 180.50 119.56 179.92 119.83 179.63 C 123.64 179.84 127.44 180.21 131.22 180.74 C 127.06 180.77 122.90 180.79 118.75 180.79 Z" />
</g>
<g id="#040303ff">
<path fill="#040303" opacity="1.00" d=" M 160.90 180.93 C 163.68 179.33 167.03 180.20 170.09 179.99 C 171.41 180.01 172.73 180.02 174.05 180.03 L 174.10 181.08 C 174.06 197.48 173.67 213.89 174.30 230.29 C 174.13 231.78 173.97 233.28 173.82 234.78 C 172.57 237.03 171.34 239.29 170.15 241.58 C 169.94 241.85 169.51 242.37 169.29 242.64 C 165.55 246.73 160.83 249.56 155.55 251.12 C 150.73 251.86 145.85 252.06 140.98 251.89 C 139.30 250.61 137.23 249.51 135.08 250.30 C 126.32 248.60 120.64 240.51 118.75 232.25 C 118.98 215.10 119.36 197.93 118.75 180.79 C 122.90 180.79 127.06 180.77 131.22 180.74 L 132.09 180.91 C 132.01 182.87 131.92 184.83 131.80 186.78 C 131.18 199.78 129.59 213.36 131.80 226.21 C 132.00 226.73 132.41 227.79 132.62 228.32 C 133.83 233.74 137.47 238.58 142.87 240.33 C 145.18 241.72 148.47 242.69 150.12 240.13 C 156.23 238.98 159.31 234.13 160.48 228.42 C 160.62 228.07 160.90 227.37 161.04 227.01 C 162.81 213.09 162.33 198.72 161.36 184.71 C 161.19 183.45 161.04 182.19 160.90 180.93 Z" />
</g>
<g id="#f5b179ff">
<path fill="#f5b179" opacity="1.00" d=" M 236.04 180.04 C 237.86 179.61 239.92 180.33 240.30 182.36 L 240.00 183.01 C 238.33 182.56 236.77 181.68 236.04 180.04 Z" />
</g>
<g id="#030303ff">
<path fill="#030303" opacity="1.00" d=" M 240.66 181.68 C 241.26 179.21 244.34 180.19 246.21 179.68 C 248.82 180.08 251.53 180.04 254.06 180.91 C 254.09 203.35 253.69 225.79 254.30 248.22 C 254.01 248.45 253.44 248.91 253.16 249.14 C 249.34 249.08 245.56 249.05 241.76 249.28 L 240.94 249.02 C 240.89 226.58 241.36 204.12 240.66 181.68 Z" />
</g>
<g id="#f9b37dff">
<path fill="#f9b37d" opacity="1.00" d=" M 38.03 181.06 L 39.09 180.85 C 38.85 189.50 39.01 198.15 39.10 206.80 C 39.08 221.17 38.77 235.55 39.07 249.92 C 39.01 251.39 40.55 252.23 41.86 251.99 C 58.98 252.39 76.15 251.36 93.25 252.35 C 75.25 253.70 56.40 253.34 38.70 252.30 C 37.04 229.01 38.45 204.73 38.03 181.06 Z" />
</g>
<g id="#737672ff">
<path fill="#737672" opacity="1.00" d=" M 118.75 232.25 C 117.48 215.23 117.47 197.77 118.75 180.79 C 119.36 197.93 118.98 215.10 118.75 232.25 Z" />
</g>
<g id="#bcab99ff">
<path fill="#bcab99" opacity="1.00" d=" M 132.09 180.91 C 134.96 185.63 131.96 193.97 133.29 199.72 C 132.98 209.25 133.10 218.79 132.62 228.32 C 132.41 227.79 132.00 226.73 131.80 226.21 C 132.04 213.06 132.17 199.92 131.80 186.78 C 131.92 184.83 132.01 182.87 132.09 180.91 Z" />
</g>
<g id="#c1af9dff">
<path fill="#c1af9d" opacity="1.00" d=" M 159.79 181.85 C 160.07 181.62 160.63 181.16 160.90 180.93 C 161.04 182.19 161.19 183.45 161.36 184.71 C 160.67 198.80 161.13 212.91 161.04 227.01 C 160.90 227.37 160.62 228.07 160.48 228.42 C 159.86 219.55 160.06 210.66 159.86 201.79 C 160.12 195.14 159.88 188.49 159.79 181.85 Z" />
</g>
<g id="#49372cff">
<path fill="#49372c" opacity="1.00" d=" M 174.10 181.08 L 175.14 180.71 C 174.29 197.20 176.17 213.89 174.30 230.29 C 173.67 213.89 174.06 197.48 174.10 181.08 Z" />
</g>
<g id="#ac9d94ff">
<path fill="#ac9d94" opacity="1.00" d=" M 175.14 180.71 C 177.68 204.73 174.70 228.86 175.07 252.93 C 174.83 253.23 174.36 253.84 174.12 254.15 L 174.11 253.16 C 174.08 247.03 173.93 240.90 173.82 234.78 C 173.97 233.28 174.13 231.78 174.30 230.29 C 176.17 213.89 174.29 197.20 175.14 180.71 Z" />
</g>
<g id="#5d656fff">
<path fill="#5d656f" opacity="1.00" d=" M 254.06 180.91 C 256.84 184.90 254.02 192.68 255.34 197.72 C 253.87 214.46 256.54 231.66 254.30 248.22 C 253.69 225.79 254.09 203.35 254.06 180.91 Z" />
</g>
<g id="#96887bff">
<path fill="#96887b" opacity="1.00" d=" M 240.30 182.36 L 240.66 181.68 C 241.36 204.12 240.89 226.58 240.94 249.02 C 238.66 237.76 240.74 224.00 239.81 211.79 C 240.18 202.20 239.94 192.60 240.00 183.01 L 240.30 182.36 Z" />
</g>
<g id="#3f3e3aff">
<path fill="#3f3e3a" opacity="1.00" d=" M 225.37 182.51 L 226.06 183.05 C 226.07 186.47 226.33 190.00 225.25 193.31 C 225.08 189.71 225.22 186.10 225.37 182.51 Z" />
</g>
<g id="#c1b6aaff">
<path fill="#c1b6aa" opacity="1.00" d=" M 226.06 183.05 C 227.26 185.24 229.28 194.42 225.03 194.22 L 225.25 193.31 C 226.33 190.00 226.07 186.47 226.06 183.05 Z" />
</g>
<g id="#c3aa98f6">
<path fill="#c3aa98" opacity="0.96" d=" M 110.59 194.16 C 109.76 191.07 110.23 187.87 110.85 184.77 C 110.84 187.91 110.67 191.02 110.59 194.16 Z" />
</g>
<g id="#524941ff">
<path fill="#524941" opacity="1.00" d=" M 161.36 184.71 C 162.33 198.72 162.81 213.09 161.04 227.01 C 161.13 212.91 160.67 198.80 161.36 184.71 Z" />
</g>
<g id="#37322eff">
<path fill="#37322e" opacity="1.00" d=" M 131.80 226.21 C 129.59 213.36 131.18 199.78 131.80 186.78 C 132.17 199.92 132.04 213.06 131.80 226.21 Z" />
</g>
<g id="#a39e94ff">
<path fill="#a39e94" opacity="1.00" d=" M 204.83 189.78 C 208.24 188.69 211.67 188.73 215.11 189.92 C 211.68 189.87 208.24 189.81 204.83 189.78 Z" />
</g>
<g id="#ffe1c5ff">
<path fill="#ffe1c5" opacity="1.00" d=" M 46.40 196.41 C 49.14 193.78 51.98 189.60 56.35 191.55 C 65.83 194.43 78.82 186.59 85.78 196.21 C 89.64 201.38 88.13 208.50 91.00 214.12 C 91.68 213.40 92.35 212.66 92.99 211.90 C 93.03 224.66 92.91 237.41 93.11 250.17 C 91.40 250.79 88.02 251.84 88.12 248.92 C 89.38 238.56 90.56 224.96 80.62 218.27 C 70.67 217.97 60.45 217.32 50.63 218.62 C 42.06 225.44 41.10 239.95 44.23 249.27 C 43.48 250.20 42.67 251.09 41.86 251.99 C 40.55 252.23 39.01 251.39 39.07 249.92 C 38.77 235.55 39.08 221.17 39.10 206.80 C 39.76 208.26 40.42 209.73 41.21 211.13 C 45.53 207.50 42.07 200.08 46.40 196.41 Z" />
</g>
<g id="#fde6ccff">
<path fill="#fde6cc" opacity="1.00" d=" M 136.03 215.96 C 139.65 208.97 136.32 190.02 149.87 191.93 C 154.21 199.56 156.48 208.36 156.18 217.15 C 161.03 214.86 158.08 206.13 159.86 201.79 C 160.06 210.66 159.86 219.55 160.48 228.42 C 159.31 234.13 156.23 238.98 150.12 240.13 C 148.30 240.18 144.68 240.28 142.87 240.33 C 137.47 238.58 133.83 233.74 132.62 228.32 C 133.10 218.79 132.98 209.25 133.29 199.72 C 135.28 204.65 133.67 212.47 136.03 215.96 Z" />
</g>
<g id="#61656cff">
<path fill="#61656c" opacity="1.00" d=" M 186.76 204.24 C 185.72 200.49 186.08 196.52 186.80 192.77 C 186.95 196.60 186.84 200.40 186.76 204.24 Z" />
</g>
<g id="#a2988cff">
<path fill="#a2988c" opacity="1.00" d=" M 200.61 200.09 C 198.94 198.32 198.95 196.28 200.63 193.96 C 201.46 195.92 201.48 198.13 200.61 200.09 Z" />
</g>
<g id="#b0afb0ff">
<path fill="#b0afb0" opacity="1.00" d=" M 110.65 211.24 C 109.75 205.82 110.03 200.33 110.64 194.91 C 111.31 200.33 110.78 205.79 110.65 211.24 Z" />
</g>
<g id="#bcd8ecff">
<path fill="#bcd8ec" opacity="1.00" d=" M 256.14 249.36 C 262.84 232.97 252.45 211.00 260.87 194.79 C 261.14 214.19 260.96 233.59 260.98 252.99 C 257.70 252.98 254.47 252.99 251.22 253.14 C 251.17 252.41 251.09 250.94 251.05 250.21 C 251.58 249.94 252.63 249.41 253.16 249.14 C 253.44 248.91 254.01 248.45 254.30 248.22 C 256.54 231.66 253.87 214.46 255.34 197.72 C 256.91 214.88 255.42 232.15 256.14 249.36 Z" />
</g>
<g id="#ffe9d1ff">
<path fill="#ffe9d1" opacity="1.00" d=" M 277.59 198.53 C 287.01 197.14 296.94 197.83 306.34 198.65 C 318.26 205.14 312.08 222.56 316.82 233.22 C 317.10 239.11 317.08 245.01 316.94 250.91 C 300.32 251.09 283.70 251.07 267.09 250.94 C 266.77 240.07 266.98 229.18 267.17 218.31 C 272.47 212.60 268.51 200.82 277.59 198.53 M 279.34 219.30 C 274.48 221.15 271.23 225.49 270.60 230.67 C 269.90 235.97 265.83 243.57 271.24 247.79 C 285.31 248.36 299.56 249.45 313.32 247.30 C 315.44 240.52 313.68 232.21 311.66 225.31 C 305.10 214.21 289.74 220.30 279.34 219.30 Z" />
</g>
<g id="#c39577ff">
<path fill="#c39577" opacity="1.00" d=" M 187.15 205.81 C 187.51 206.79 187.87 207.77 188.22 208.75 C 188.02 216.79 188.00 224.83 187.91 232.87 L 186.95 232.59 C 186.99 223.66 187.05 214.74 187.15 205.81 Z" />
</g>
<g id="#dd500bff">
<path fill="#dd500b" opacity="1.00" d=" M 188.22 208.75 C 189.11 209.67 189.98 210.62 190.85 211.56 C 189.28 219.25 191.81 227.26 190.89 235.10 C 189.89 234.35 188.91 233.60 187.91 232.87 C 188.00 224.83 188.02 216.79 188.22 208.75 Z" />
</g>
<g id="#f0a25eff">
<path fill="#f0a25e" opacity="1.00" d=" M 190.89 235.10 C 191.81 227.26 189.28 219.25 190.85 211.56 C 191.53 212.26 192.20 212.97 192.87 213.68 C 191.69 221.05 191.91 228.53 192.04 235.97 C 191.75 235.75 191.17 235.31 190.89 235.10 Z" />
</g>
<g id="#fbe5caff">
<path fill="#fbe5ca" opacity="1.00" d=" M 238.96 239.06 C 239.14 229.97 238.53 220.83 239.81 211.79 C 240.74 224.00 238.66 237.76 240.94 249.02 L 241.76 249.28 C 243.46 249.85 245.27 249.92 247.06 250.06 C 249.53 253.61 243.63 252.97 241.25 252.79 C 233.79 252.00 226.11 251.19 218.70 252.71 C 217.52 252.83 216.33 252.90 215.15 252.93 C 214.84 252.51 214.22 251.67 213.91 251.25 C 214.24 250.97 214.88 250.41 215.20 250.13 C 219.61 248.44 224.14 246.33 226.56 242.06 C 230.86 244.75 231.40 237.15 234.21 235.11 C 235.89 236.31 237.34 237.78 238.96 239.06 Z" />
</g>
<g id="#bfa99af9">
<path fill="#bfa99a" opacity="0.98" d=" M 110.66 241.29 C 109.02 231.92 110.09 222.25 110.69 212.83 C 111.18 222.31 111.10 231.81 110.66 241.29 Z" />
</g>
<g id="#fae9d4ff">
<path fill="#fae9d4" opacity="1.00" d=" M 192.04 235.97 C 191.91 228.53 191.69 221.05 192.87 213.68 C 199.78 219.24 209.29 220.89 215.19 227.85 C 215.21 229.67 215.23 233.29 215.24 235.10 C 213.40 237.38 211.12 239.41 208.28 240.33 C 205.44 240.31 202.60 240.27 199.77 240.22 C 196.98 239.24 194.43 237.67 192.04 235.97 Z" />
</g>
<g id="#ffdcbcff">
<path fill="#ffdcbc" opacity="1.00" d=" M 50.63 218.62 C 60.45 217.32 70.67 217.97 80.62 218.27 C 90.56 224.96 89.38 238.56 88.12 248.92 C 88.02 251.84 91.40 250.79 93.11 250.17 C 93.15 250.72 93.21 251.80 93.25 252.35 C 76.15 251.36 58.98 252.39 41.86 251.99 C 42.67 251.09 43.48 250.20 44.23 249.27 C 41.10 239.95 42.06 225.44 50.63 218.62 Z" />
</g>
<g id="#ffdfc1ff">
<path fill="#ffdfc1" opacity="1.00" d=" M 279.34 219.30 C 289.74 220.30 305.10 214.21 311.66 225.31 C 313.68 232.21 315.44 240.52 313.32 247.30 C 299.56 249.45 285.31 248.36 271.24 247.79 C 265.83 243.57 269.90 235.97 270.60 230.67 C 271.23 225.49 274.48 221.15 279.34 219.30 Z" />
</g>
<g id="#413732ff">
<path fill="#413732" opacity="1.00" d=" M 229.28 222.72 C 231.02 226.98 229.90 231.83 229.18 236.20 C 229.22 231.70 229.21 227.20 229.28 222.72 Z" />
</g>
<g id="#4b4138ff">
<path fill="#4b4138" opacity="1.00" d=" M 215.19 227.85 C 217.47 229.47 217.16 233.16 215.24 235.10 C 215.23 233.29 215.21 229.67 215.19 227.85 Z" />
</g>
<g id="#fcd1a9ff">
<path fill="#fcd1a9" opacity="1.00" d=" M 115.33 231.71 C 116.78 237.96 115.65 244.45 116.09 250.80 C 120.46 251.29 124.86 251.33 129.24 251.77 C 124.46 251.89 119.69 252.04 114.91 252.07 C 114.94 245.28 115.10 238.49 115.33 231.71 Z" />
</g>
<g id="#df5f14ff">
<path fill="#df5f14" opacity="1.00" d=" M 170.15 241.58 C 171.34 239.29 172.57 237.03 173.82 234.78 C 173.93 240.90 174.08 247.03 174.11 253.16 C 158.26 257.97 140.93 252.80 124.68 255.75 L 123.72 255.88 C 123.08 255.88 121.81 255.86 121.18 255.85 C 119.82 255.44 117.12 254.63 115.76 254.22 L 115.75 253.34 C 130.79 251.97 145.95 255.77 160.91 253.37 C 164.07 253.02 167.42 253.45 170.46 252.30 C 171.03 248.71 170.93 245.14 170.15 241.58 Z" />
</g>
<g id="#776355ff">
<path fill="#776355" opacity="1.00" d=" M 142.87 240.33 C 144.68 240.28 148.30 240.18 150.12 240.13 C 148.47 242.69 145.18 241.72 142.87 240.33 Z" />
</g>
<g id="#6c5c4eff">
<path fill="#6c5c4e" opacity="1.00" d=" M 199.77 240.22 C 202.60 240.27 205.44 240.31 208.28 240.33 C 205.58 241.59 202.55 240.82 199.77 240.22 Z" />
</g>
<g id="#f4ae68ff">
<path fill="#f4ae68" opacity="1.00" d=" M 169.29 242.64 C 169.51 242.37 169.94 241.85 170.15 241.58 C 170.93 245.14 171.03 248.71 170.46 252.30 C 170.18 249.05 170.13 245.79 169.29 242.64 Z" />
</g>
<g id="#f1e2caff">
<path fill="#f1e2ca" opacity="1.00" d=" M 155.55 251.12 C 160.83 249.56 165.55 246.73 169.29 242.64 C 170.13 245.79 170.18 249.05 170.46 252.30 C 167.29 252.44 163.36 250.75 160.91 253.37 C 159.04 252.82 157.27 252.01 155.55 251.12 Z" />
</g>
<g id="#cfa280ff">
<path fill="#cfa280" opacity="1.00" d=" M 187.08 247.15 C 187.35 247.32 187.89 247.66 188.15 247.83 C 188.27 249.55 188.08 251.28 187.69 252.96 L 187.10 252.92 C 186.78 251.01 186.87 249.07 187.08 247.15 Z" />
</g>
<g id="#cf641dff">
<path fill="#cf641d" opacity="1.00" d=" M 188.15 247.83 C 189.84 248.43 191.53 249.02 193.22 249.63 C 190.06 248.99 188.86 251.80 191.87 253.10 C 192.33 253.39 193.26 253.97 193.73 254.26 C 194.56 254.80 195.39 255.35 196.22 255.90 C 194.42 255.92 190.83 255.96 189.03 255.98 C 188.57 254.98 188.12 253.97 187.69 252.96 C 188.08 251.28 188.27 249.55 188.15 247.83 Z" />
</g>
<g id="#554037ff">
<path fill="#554037" opacity="1.00" d=" M 241.76 249.28 C 245.56 249.05 249.34 249.08 253.16 249.14 C 252.63 249.41 251.58 249.94 251.05 250.21 C 249.72 250.15 248.39 250.11 247.06 250.06 C 245.27 249.92 243.46 249.85 241.76 249.28 Z" />
</g>
<g id="#897562ff">
<path fill="#897562" opacity="1.00" d=" M 135.08 250.30 C 137.23 249.51 139.30 250.61 140.98 251.89 C 139.26 252.09 137.53 251.99 135.87 251.51 C 135.68 251.21 135.28 250.60 135.08 250.30 Z" />
</g>
<g id="#f2c793ff">
<path fill="#f2c793" opacity="1.00" d=" M 191.87 253.10 C 188.86 251.80 190.06 248.99 193.22 249.63 C 194.49 250.06 195.75 250.53 196.99 251.05 C 197.91 252.41 199.66 252.43 201.08 251.93 C 202.74 251.90 206.06 251.85 207.72 251.83 C 209.80 251.87 211.89 251.79 213.91 251.25 C 214.22 251.67 214.84 252.51 215.15 252.93 C 207.39 253.05 199.63 253.06 191.87 253.10 Z" />
</g>
<g id="#7b6b5eff">
<path fill="#7b6b5e" opacity="1.00" d=" M 207.72 251.83 C 210.15 250.99 212.64 250.36 215.20 250.13 C 214.88 250.41 214.24 250.97 213.91 251.25 C 211.89 251.79 209.80 251.87 207.72 251.83 Z" />
</g>
<g id="#f9993bff">
<path fill="#f9993b" opacity="1.00" d=" M 247.06 250.06 C 248.39 250.11 249.72 250.15 251.05 250.21 C 251.09 250.94 251.17 252.41 251.22 253.14 C 240.29 254.82 229.20 253.63 218.21 254.14 C 210.05 254.00 201.88 253.87 193.73 254.26 C 193.26 253.97 192.33 253.39 191.87 253.10 C 199.63 253.06 207.39 253.05 215.15 252.93 C 216.33 252.90 217.52 252.83 218.70 252.71 C 226.21 253.01 233.73 253.03 241.25 252.79 C 243.63 252.97 249.53 253.61 247.06 250.06 Z" />
</g>
<g id="#f6a450ff">
<path fill="#f6a450" opacity="1.00" d=" M 135.87 251.51 C 137.53 251.99 139.26 252.09 140.98 251.89 C 145.85 252.06 150.73 251.86 155.55 251.12 C 157.27 252.01 159.04 252.82 160.91 253.37 C 145.95 255.77 130.79 251.97 115.75 253.34 C 115.54 253.02 115.12 252.39 114.91 252.07 C 119.69 252.04 124.46 251.89 129.24 251.77 C 131.45 251.73 133.66 251.64 135.87 251.51 Z" />
</g>
<g id="#6b594bff">
<path fill="#6b594b" opacity="1.00" d=" M 196.99 251.05 C 198.39 250.60 200.17 250.51 201.08 251.93 C 199.66 252.43 197.91 252.41 196.99 251.05 Z" />
</g>
<g id="#fbb56dff">
<path fill="#fbb56d" opacity="1.00" d=" M 160.91 253.37 C 163.36 250.75 167.29 252.44 170.46 252.30 C 167.42 253.45 164.07 253.02 160.91 253.37 Z" />
</g>
<g id="#fdbf87ff">
<path fill="#fdbf87" opacity="1.00" d=" M 218.70 252.71 C 226.11 251.19 233.79 252.00 241.25 252.79 C 233.73 253.03 226.21 253.01 218.70 252.71 Z" />
</g>
<g id="#86492dff">
<path fill="#86492d" opacity="1.00" d=" M 262.01 251.99 L 262.92 252.21 C 282.45 253.75 302.44 253.39 322.02 252.17 L 322.03 253.10 L 322.02 254.10 C 302.71 256.35 283.17 254.02 263.79 255.36 C 263.39 255.34 262.61 255.30 262.22 255.28 C 262.17 254.72 262.07 253.61 262.02 253.05 L 262.01 251.99 Z" />
</g>
<g id="#608ed5ff">
<path fill="#608ed5" opacity="1.00" d=" M 322.91 252.15 C 333.60 253.37 344.46 253.60 355.15 252.23 L 355.91 252.14 C 356.21 252.56 356.81 253.40 357.11 253.82 C 357.59 253.88 358.55 254.00 359.02 254.06 C 358.87 256.69 356.94 257.36 353.24 256.07 L 352.36 255.81 C 343.59 251.10 332.30 256.19 322.83 253.32 L 322.91 252.15 Z" />
</g>
<g id="#9b5734ff">
<path fill="#9b5734" opacity="1.00" d=" M 124.68 255.75 C 140.93 252.80 158.26 257.97 174.11 253.16 L 174.12 254.15 C 174.08 254.60 174.00 255.51 173.96 255.96 C 173.48 255.97 172.53 255.99 172.06 256.01 C 160.30 256.03 148.54 255.91 136.78 256.06 C 134.82 256.02 132.85 256.02 130.89 256.02 C 128.81 255.94 126.74 255.83 124.68 255.75 Z" />
</g>
<g id="#4f78b1ff">
<path fill="#4f78b1" opacity="1.00" d=" M 175.07 252.93 C 179.08 252.93 183.09 252.93 187.10 252.92 L 187.69 252.96 C 188.12 253.97 188.57 254.98 189.03 255.98 C 187.08 256.01 185.13 256.02 183.18 256.07 C 180.09 256.02 177.03 255.99 173.96 255.96 C 174.00 255.51 174.08 254.60 174.12 254.15 C 174.36 253.84 174.83 253.23 175.07 252.93 Z" />
</g>
<g id="#9d5529ff">
<path fill="#9d5529" opacity="1.00" d=" M 218.21 254.14 C 229.20 253.63 240.29 254.82 251.22 253.14 C 250.80 254.11 250.37 255.07 249.95 256.04 C 239.55 256.07 229.16 255.90 218.77 256.06 C 216.78 255.98 214.78 255.90 212.79 255.86 C 214.15 255.43 216.86 254.57 218.21 254.14 Z" />
</g>
<g id="#476ea4fe">
<path fill="#476ea4" opacity="1.00" d=" M 251.22 253.14 C 254.47 252.99 257.70 252.98 260.98 252.99 L 262.02 253.05 C 262.07 253.61 262.17 254.72 262.22 255.28 C 258.14 255.73 254.04 255.98 249.95 256.04 C 250.37 255.07 250.80 254.11 251.22 253.14 Z" />
</g>
<g id="#5070a4ff">
<path fill="#5070a4" opacity="1.00" d=" M 322.03 253.10 L 322.83 253.32 C 332.30 256.19 343.59 251.10 352.36 255.81 C 347.96 255.87 343.58 255.92 339.20 255.97 C 334.83 255.95 330.49 255.98 326.14 256.04 C 324.76 256.02 323.39 255.99 322.02 255.97 C 322.02 255.50 322.02 254.57 322.02 254.10 L 322.03 253.10 Z" />
</g>
<g id="#7d7d7da7">
<path fill="#7d7d7d" opacity="0.65" d=" M 359.15 253.02 C 361.21 258.36 358.97 263.76 357.80 268.99 C 356.96 271.05 355.05 272.97 352.98 273.79 C 345.42 277.53 333.36 271.86 329.63 280.99 C 317.84 280.87 306.05 281.25 294.27 280.86 C 293.92 280.58 293.22 280.00 292.87 279.71 C 292.11 279.02 291.23 278.78 290.21 278.98 C 287.04 278.78 284.41 281.09 281.25 280.86 C 261.51 279.53 241.49 279.44 221.76 280.58 C 220.85 280.45 219.97 280.26 219.10 280.01 C 215.99 279.00 211.89 277.84 209.61 280.90 C 203.27 283.22 197.14 277.20 191.11 280.03 C 187.50 281.74 183.72 280.73 180.08 279.96 C 177.26 278.68 174.54 278.41 172.61 280.85 C 157.88 280.85 143.10 281.47 128.40 280.78 C 128.56 274.16 120.33 275.60 115.84 273.90 C 115.67 273.68 115.34 273.23 115.17 273.01 L 115.54 272.25 C 118.18 267.22 111.12 261.87 112.82 256.25 C 114.87 256.11 116.92 255.99 118.98 255.94 C 116.98 269.62 132.35 275.24 143.09 276.84 C 167.25 279.28 190.58 269.61 214.77 272.36 C 225.18 276.38 236.84 278.60 247.86 275.76 C 259.76 271.71 272.15 278.50 283.99 274.05 C 295.49 270.30 306.83 278.64 318.46 275.54 C 328.12 272.39 338.04 270.04 347.63 266.62 C 351.74 264.86 353.21 260.21 353.24 256.07 C 356.94 257.36 358.87 256.69 359.02 254.06 L 359.15 253.02 Z" />
</g>
<g id="#d53d01ff">
<path fill="#d53d01" opacity="1.00" d=" M 45.46 254.26 C 59.40 253.60 73.47 253.93 87.44 254.25 C 87.66 254.67 88.09 255.50 88.31 255.92 C 73.75 256.02 59.19 256.09 44.64 255.88 C 44.84 255.48 45.25 254.66 45.46 254.26 Z" />
</g>
<g id="#c0855eff">
<path fill="#c0855e" opacity="1.00" d=" M 111.04 253.94 L 112.01 253.97 C 113.26 254.03 114.51 254.12 115.76 254.22 C 117.12 254.63 119.82 255.44 121.18 255.85 C 120.63 255.87 119.53 255.92 118.98 255.94 C 116.92 255.99 114.87 256.11 112.82 256.25 C 111.47 256.05 110.88 255.28 111.04 253.94 Z" />
</g>
<g id="#bf8555ff">
<path fill="#bf8555" opacity="1.00" d=" M 193.73 254.26 C 201.88 253.87 210.05 254.00 218.21 254.14 C 216.86 254.57 214.15 255.43 212.79 255.86 C 207.26 255.98 201.74 256.00 196.22 255.90 C 195.39 255.35 194.56 254.80 193.73 254.26 Z" />
</g>
<g id="#645e60fd">
<path fill="#645e60" opacity="1.00" d=" M 263.79 255.36 C 283.17 254.02 302.71 256.35 322.02 254.10 C 322.02 254.57 322.02 255.50 322.02 255.97 C 313.25 256.04 304.49 255.90 295.72 256.08 C 292.88 256.03 290.08 256.02 287.26 256.09 C 279.44 255.88 271.55 256.52 263.79 255.36 Z" />
</g>
<g id="#4f4f50ab">
<path fill="#4f4f50" opacity="0.67" d=" M 262.22 255.28 C 262.61 255.30 263.39 255.34 263.79 255.36 C 271.55 256.52 279.44 255.88 287.26 256.09 C 284.98 267.83 270.68 269.79 262.11 263.88 C 253.68 258.00 247.18 270.47 238.38 269.55 C 229.54 271.25 220.19 265.06 218.77 256.06 C 229.16 255.90 239.55 256.07 249.95 256.04 C 254.04 255.98 258.14 255.73 262.22 255.28 Z" />
</g>
<g id="#44444453">
<path fill="#444444" opacity="0.33" d=" M 33.98 256.00 L 34.94 256.03 C 33.37 264.77 40.44 271.64 47.08 276.05 L 46.17 275.91 C 40.35 274.70 36.82 269.56 34.21 264.67 C 34.02 261.78 34.00 258.86 33.98 256.00 Z" />
</g>
<g id="#7e7e7ea9">
<path fill="#7e7e7e" opacity="0.66" d=" M 34.94 256.03 C 37.87 256.00 40.79 255.94 43.72 255.93 C 41.79 264.17 51.79 269.31 58.85 268.29 C 69.24 269.01 90.39 271.61 90.15 256.04 C 92.21 255.99 94.27 255.91 96.34 255.80 C 98.72 261.32 94.81 266.09 92.88 270.89 C 93.68 270.93 95.29 270.99 96.09 271.02 C 95.08 271.61 94.07 272.21 93.04 272.77 L 92.08 273.15 C 90.18 273.60 87.97 273.96 87.15 276.01 C 73.79 276.00 60.43 276.00 47.08 276.05 C 40.44 271.64 33.37 264.77 34.94 256.03 Z" />
</g>
<g id="#6d6e6eab">
<path fill="#6d6e6e" opacity="0.67" d=" M 43.72 255.93 L 44.64 255.88 C 59.19 256.09 73.75 256.02 88.31 255.92 C 88.77 255.95 89.69 256.01 90.15 256.04 C 90.39 271.61 69.24 269.01 58.85 268.29 C 51.79 269.31 41.79 264.17 43.72 255.93 Z" />
</g>
<g id="#6f6f6fab">
<path fill="#6f6f6f" opacity="0.67" d=" M 118.98 255.94 C 119.53 255.92 120.63 255.87 121.18 255.85 C 121.81 255.86 123.08 255.88 123.72 255.88 C 124.13 262.60 128.66 268.67 135.00 270.97 C 150.61 277.69 167.28 273.30 182.59 268.61 C 195.76 269.20 210.50 261.75 222.31 270.68 C 231.27 275.65 241.72 274.12 251.00 271.10 C 260.13 267.53 269.30 273.91 278.56 271.52 C 285.89 270.08 293.47 265.51 300.70 270.37 C 311.68 275.75 324.06 271.07 333.22 264.19 C 335.54 261.98 340.79 260.03 339.20 255.97 C 343.58 255.92 347.96 255.87 352.36 255.81 L 353.24 256.07 C 353.21 260.21 351.74 264.86 347.63 266.62 C 338.04 270.04 328.12 272.39 318.46 275.54 C 306.83 278.64 295.49 270.30 283.99 274.05 C 272.15 278.50 259.76 271.71 247.86 275.76 C 236.84 278.60 225.18 276.38 214.77 272.36 C 190.58 269.61 167.25 279.28 143.09 276.84 C 132.35 275.24 116.98 269.62 118.98 255.94 Z" />
</g>
<g id="#606060ab">
<path fill="#606060" opacity="0.67" d=" M 123.72 255.88 L 124.68 255.75 C 126.74 255.83 128.81 255.94 130.89 256.02 C 130.06 264.62 139.23 270.00 146.84 270.28 C 160.29 273.45 176.07 268.32 183.18 256.07 C 185.13 256.02 187.08 256.01 189.03 255.98 C 190.83 255.96 194.42 255.92 196.22 255.90 C 201.74 256.00 207.26 255.98 212.79 255.86 C 214.78 255.90 216.78 255.98 218.77 256.06 C 220.19 265.06 229.54 271.25 238.38 269.55 C 247.18 270.47 253.68 258.00 262.11 263.88 C 270.68 269.79 284.98 267.83 287.26 256.09 C 290.08 256.02 292.88 256.03 295.72 256.08 C 299.08 264.47 307.90 271.09 317.33 267.37 C 322.46 265.85 325.12 260.95 326.14 256.04 C 330.49 255.98 334.83 255.95 339.20 255.97 C 340.79 260.03 335.54 261.98 333.22 264.19 C 324.06 271.07 311.68 275.75 300.70 270.37 C 293.47 265.51 285.89 270.08 278.56 271.52 C 269.30 273.91 260.13 267.53 251.00 271.10 C 241.72 274.12 231.27 275.65 222.31 270.68 C 210.50 261.75 195.76 269.20 182.59 268.61 C 167.28 273.30 150.61 277.69 135.00 270.97 C 128.66 268.67 124.13 262.60 123.72 255.88 Z" />
</g>
<g id="#545454ab">
<path fill="#545454" opacity="0.67" d=" M 130.89 256.02 C 132.85 256.02 134.82 256.02 136.78 256.06 C 139.04 272.72 168.75 271.09 172.06 256.01 C 172.53 255.99 173.48 255.97 173.96 255.96 C 177.03 255.99 180.09 256.02 183.18 256.07 C 176.07 268.32 160.29 273.45 146.84 270.28 C 139.23 270.00 130.06 264.62 130.89 256.02 Z" />
</g>
<g id="#464747ab">
<path fill="#464747" opacity="0.67" d=" M 136.78 256.06 C 148.54 255.91 160.30 256.03 172.06 256.01 C 168.75 271.09 139.04 272.72 136.78 256.06 Z" />
</g>
<g id="#515151ab">
<path fill="#515151" opacity="0.67" d=" M 295.72 256.08 C 304.49 255.90 313.25 256.04 322.02 255.97 C 323.39 255.99 324.76 256.02 326.14 256.04 C 325.12 260.95 322.46 265.85 317.33 267.37 C 307.90 271.09 299.08 264.47 295.72 256.08 Z" />
</g>
<g id="#48484855">
<path fill="#484848" opacity="0.33" d=" M 100.12 267.95 C 104.61 265.08 112.63 266.70 115.54 272.25 L 115.17 273.01 C 111.35 268.18 105.92 267.67 100.12 267.95 Z" />
</g>
<g id="#3535353f">
<path fill="#353535" opacity="0.25" d=" M 96.09 271.02 C 96.56 270.87 97.49 270.58 97.96 270.43 C 98.56 272.97 94.81 273.82 93.04 272.77 C 94.07 272.21 95.08 271.61 96.09 271.02 Z" />
</g>
<g id="#49494958">
<path fill="#494949" opacity="0.35" d=" M 87.15 276.01 C 87.97 273.96 90.18 273.60 92.08 273.15 C 92.37 275.36 89.22 275.54 87.72 276.12 L 87.15 276.01 Z" />
</g>
<g id="#3a3a3a48">
<path fill="#3a3a3a" opacity="0.28" d=" M 115.84 273.90 C 120.33 275.60 128.56 274.16 128.40 280.78 C 143.10 281.47 157.88 280.85 172.61 280.85 C 160.60 283.44 141.80 281.40 127.20 281.92 C 128.44 274.64 119.04 278.25 115.84 273.90 Z" />
</g>
<g id="#50505061">
<path fill="#505050" opacity="0.38" d=" M 329.63 280.99 C 333.36 271.86 345.42 277.53 352.98 273.79 C 346.88 280.05 335.55 273.85 329.63 280.99 Z" />
</g>
<g id="#1c1c1c22">
<path fill="#1c1c1c" opacity="0.13" d=" M 46.17 275.91 L 47.08 276.05 C 60.31 277.68 73.90 277.55 87.15 276.01 L 87.72 276.12 C 87.81 276.56 87.99 277.46 88.08 277.90 C 74.05 278.07 60.01 278.07 45.99 277.94 C 46.03 277.44 46.12 276.42 46.17 275.91 Z" />
</g>
<g id="#53535365">
<path fill="#535353" opacity="0.40" d=" M 47.08 276.05 C 60.43 276.00 73.79 276.00 87.15 276.01 C 73.90 277.55 60.31 277.68 47.08 276.05 Z" />
</g>
<g id="#36363641">
<path fill="#363636" opacity="0.25" d=" M 191.11 280.03 C 197.14 277.20 203.27 283.22 209.61 280.90 C 210.19 282.84 200.81 282.64 198.79 281.19 C 193.95 278.09 181.45 286.71 180.08 279.96 C 183.72 280.73 187.50 281.74 191.11 280.03 Z" />
</g>
<g id="#34343442">
<path fill="#343434" opacity="0.26" d=" M 281.25 280.86 C 284.41 281.09 287.04 278.78 290.21 278.98 C 289.99 279.48 289.55 280.48 289.33 280.98 C 286.95 278.36 285.63 283.68 283.03 282.90 C 261.78 280.80 240.34 282.68 219.02 281.91 C 219.04 281.44 219.08 280.48 219.10 280.01 C 219.97 280.26 220.85 280.45 221.76 280.58 C 241.56 281.44 261.42 280.94 281.25 280.86 Z" />
</g>
<g id="#151515f2">
<path fill="#151515" opacity="0.95" d=" M 290.21 278.98 C 291.23 278.78 292.11 279.02 292.87 279.71 C 292.53 280.92 289.65 283.18 289.33 280.98 C 289.55 280.48 289.99 279.48 290.21 278.98 Z" />
</g>
<g id="#7070708b">
<path fill="#707070" opacity="0.55" d=" M 221.76 280.58 C 241.49 279.44 261.51 279.53 281.25 280.86 C 261.42 280.94 241.56 281.44 221.76 280.58 Z" />
</g>
<g id="#35353541">
<path fill="#353535" opacity="0.25" d=" M 294.27 280.86 C 306.05 281.25 317.84 280.87 329.63 280.99 C 320.77 283.23 305.30 281.54 293.94 281.88 L 294.27 280.86 Z" />
</g>
<g id="#000000ab">
<path fill="#000000" opacity="0.67" d=" M 17.98 300.02 C 16.58 298.22 14.91 280.64 19.72 284.55 C 16.12 288.24 18.58 294.98 17.98 300.02 Z" />
</g>
<g id="#000000ae">
<path fill="#000000" opacity="0.68" d=" M 29.35 298.33 C 30.78 294.40 25.26 283.48 31.99 283.79 L 31.92 284.71 C 27.64 287.19 31.47 294.09 29.35 298.33 Z" />
</g>
<g id="#00000070">
<path fill="#000000" opacity="0.44" d=" M 31.99 283.79 C 33.71 286.58 33.82 296.61 32.02 299.02 C 32.02 294.23 31.99 289.48 31.92 284.71 L 31.99 283.79 Z" />
</g>
<g id="#00000074">
<path fill="#000000" opacity="0.45" d=" M 49.80 298.09 C 51.49 293.97 46.17 282.14 53.95 284.03 C 53.30 290.22 55.55 299.44 52.98 304.02 C 52.93 297.69 53.28 291.36 52.92 285.05 C 47.38 283.89 53.71 300.18 49.80 298.09 Z" />
<path fill="#000000" opacity="0.45" d=" M 59.01 303.99 C 57.22 299.72 57.28 288.50 59.02 283.81 L 59.10 284.71 C 59.02 291.13 58.99 297.56 59.01 303.99 Z" />
<path fill="#000000" opacity="0.45" d=" M 105.06 284.03 C 107.55 284.26 112.53 284.72 115.02 284.95 C 101.13 280.36 106.97 295.84 106.01 303.96 C 103.47 299.58 105.68 290.15 105.06 284.03 Z" />
<path fill="#000000" opacity="0.45" d=" M 176.01 303.99 C 174.22 299.72 174.28 288.50 176.02 283.81 L 176.10 284.71 C 176.02 291.13 175.99 297.56 176.01 303.99 Z" />
<path fill="#000000" opacity="0.45" d=" M 30.01 337.99 C 28.23 333.72 28.28 322.50 30.02 317.81 L 30.10 318.71 C 30.02 325.13 29.99 331.56 30.01 337.99 Z" />
<path fill="#000000" opacity="0.45" d=" M 50.50 320.54 C 46.63 316.96 63.39 316.95 65.00 318.99 C 60.51 320.11 53.99 316.67 50.50 320.54 Z" />
<path fill="#000000" opacity="0.45" d=" M 150.06 318.03 C 152.55 318.26 157.53 318.72 160.02 318.95 C 146.13 314.36 151.96 329.84 151.01 337.96 C 148.47 333.58 150.68 324.15 150.06 318.03 Z" />
<path fill="#000000" opacity="0.45" d=" M 213.80 332.09 C 215.49 327.97 210.17 316.14 217.95 318.03 C 217.30 324.22 219.55 333.44 216.98 338.02 C 216.92 331.69 217.28 325.36 216.92 319.05 C 211.38 317.89 217.71 334.18 213.80 332.09 Z" />
</g>
<g id="#000000b1">
<path fill="#000000" opacity="0.69" d=" M 59.02 283.81 C 66.00 284.31 60.96 300.58 60.99 303.99 C 59.21 298.41 64.44 288.28 59.10 284.71 L 59.02 283.81 Z" />
<path fill="#000000" opacity="0.69" d=" M 176.02 283.81 C 183.00 284.31 177.96 300.58 177.99 303.99 C 176.21 298.41 181.44 288.28 176.10 284.71 L 176.02 283.81 Z" />
<path fill="#000000" opacity="0.69" d=" M 30.02 317.81 C 37.00 318.31 31.96 334.58 31.99 337.99 C 30.21 332.40 35.44 322.28 30.10 318.71 L 30.02 317.81 Z" />
</g>
<g id="#00000077">
<path fill="#000000" opacity="0.47" d=" M 67.09 285.01 C 66.28 283.14 75.54 283.24 76.05 284.98 C 73.06 284.96 70.08 285.00 67.09 285.01 Z" />
<path fill="#000000" opacity="0.47" d=" M 372.50 297.05 C 373.30 299.13 373.48 301.36 373.04 303.75 C 370.85 302.91 371.54 298.82 372.50 297.05 Z" />
</g>
<g id="#1212128a">
<path fill="#121212" opacity="0.54" d=" M 133.09 285.01 C 132.28 283.14 141.54 283.24 142.05 284.98 C 139.05 284.96 136.08 285.00 133.09 285.01 Z" />
</g>
<g id="#0707077d">
<path fill="#070707" opacity="0.49" d=" M 153.05 284.03 C 157.77 283.15 161.42 283.47 164.00 284.98 C 160.68 284.97 157.37 284.84 154.07 285.12 C 153.89 291.38 153.97 297.65 154.01 303.91 C 151.48 299.67 153.67 290.12 153.05 284.03 Z" />
</g>
<g id="#03030378">
<path fill="#030303" opacity="0.47" d=" M 183.05 284.05 C 184.13 284.39 187.34 282.92 186.93 284.82 C 180.20 286.31 185.35 298.05 184.01 303.99 C 181.46 299.48 183.69 290.21 183.05 284.05 Z" />
</g>
<g id="#010101f7">
<path fill="#010101" opacity="0.97" d=" M 196.82 299.29 C 198.85 295.18 193.58 285.13 199.93 283.90 C 197.55 288.92 205.11 305.43 196.25 303.80 C 193.55 299.38 190.85 294.96 187.76 290.80 C 187.26 290.07 186.74 289.36 186.19 288.68 C 186.02 293.78 185.98 298.90 185.97 304.00 C 185.48 304.00 184.50 303.99 184.01 303.99 C 185.35 298.05 180.20 286.31 186.93 284.82 C 191.01 288.60 193.07 294.88 196.82 299.29 Z" />
</g>
<g id="#0808087b">
<path fill="#080808" opacity="0.48" d=" M 205.08 284.96 C 205.86 282.29 219.61 283.47 215.48 286.57 C 213.08 283.63 208.42 285.53 205.08 284.96 Z" />
</g>
<g id="#020202e6">
<path fill="#020202" opacity="0.90" d=" M 224.33 284.25 C 238.77 279.01 242.28 305.90 226.99 304.05 C 216.23 304.59 214.84 287.34 224.33 284.25 M 225.31 287.20 C 220.55 289.75 219.67 300.44 225.98 301.04 C 236.60 304.46 236.02 283.11 225.31 287.20 Z" />
</g>
<g id="#0505057a">
<path fill="#050505" opacity="0.48" d=" M 240.05 284.02 C 242.53 284.26 247.47 284.72 249.94 284.96 C 236.10 280.40 241.98 295.91 241.02 303.99 C 238.45 299.49 240.69 290.19 240.05 284.02 Z" />
</g>
<g id="#0f0f0f81">
<path fill="#0f0f0f" opacity="0.51" d=" M 258.26 284.95 C 258.24 283.12 262.79 283.12 262.65 285.02 C 261.18 285.06 259.71 285.05 258.26 284.95 Z" />
<path fill="#0f0f0f" opacity="0.51" d=" M 274.35 285.02 C 274.21 283.13 278.75 283.12 278.76 284.94 C 277.29 285.05 275.82 285.06 274.35 285.02 Z" />
</g>
<g id="#000000e5">
<path fill="#000000" opacity="0.90" d=" M 289.27 284.16 C 290.43 283.95 291.60 283.93 292.77 284.11 C 295.08 290.78 297.71 297.34 300.08 303.99 C 293.49 306.74 297.29 295.23 289.96 298.97 C 284.95 297.58 287.61 306.38 281.96 304.00 C 283.91 297.23 286.51 290.63 289.27 284.16 M 290.21 289.10 C 288.80 292.85 285.28 299.31 293.93 296.09 C 292.61 293.92 292.46 290.17 290.21 289.10 Z" />
<path fill="#000000" opacity="0.90" d=" M 330.33 284.25 C 333.23 283.18 338.95 283.26 338.12 287.73 C 332.39 284.78 324.99 289.19 326.97 296.02 C 327.00 301.69 333.94 301.81 338.07 300.24 C 340.09 306.71 329.11 304.81 326.67 302.28 C 319.88 297.30 322.93 286.78 330.33 284.25 Z" />
<path fill="#000000" opacity="0.90" d=" M 347.27 284.16 C 348.43 283.95 349.59 283.93 350.77 284.11 C 353.08 290.78 355.71 297.34 358.08 303.99 C 351.49 306.74 355.29 295.23 347.96 298.97 C 342.95 297.58 345.61 306.38 339.96 304.00 C 341.91 297.23 344.51 290.63 347.27 284.16 M 348.21 289.10 C 346.80 292.85 343.28 299.31 351.93 296.09 C 350.61 293.92 350.46 290.17 348.21 289.10 Z" />
<path fill="#000000" opacity="0.90" d=" M 306.27 318.16 C 307.43 317.94 308.59 317.93 309.77 318.11 C 312.08 324.78 314.71 331.34 317.08 337.99 C 310.49 340.74 314.29 329.23 306.96 332.97 C 301.95 331.58 304.61 340.38 298.96 338.00 C 300.91 331.23 303.51 324.63 306.27 318.16 M 307.21 323.10 C 305.80 326.85 302.28 333.31 310.93 330.09 C 309.61 327.92 309.46 324.17 307.21 323.10 Z" />
</g>
<g id="#0f0f0f85">
<path fill="#0f0f0f" opacity="0.52" d=" M 299.00 284.99 C 300.60 282.96 317.40 282.93 313.49 286.56 C 309.75 283.40 303.74 285.49 299.00 284.99 Z" />
</g>
<g id="#010101f9">
<path fill="#010101" opacity="0.98" d=" M 315.97 289.00 C 309.98 284.88 319.39 282.13 319.00 285.00 C 318.99 291.33 319.01 297.66 318.98 303.99 C 311.86 305.17 318.04 292.75 315.97 289.00 Z" />
</g>
<g id="#000000f8">
<path fill="#000000" opacity="0.97" d=" M 17.98 300.02 C 18.58 294.98 16.12 288.24 19.72 284.55 C 20.34 289.08 19.16 293.94 20.65 298.35 C 21.74 302.75 28.28 302.74 29.35 298.33 C 31.47 294.09 27.64 287.19 31.92 284.71 C 31.99 289.48 32.02 294.23 32.02 299.02 C 31.63 305.77 18.93 306.15 17.98 300.02 Z" />
</g>
<g id="#00000078">
<path fill="#000000" opacity="0.47" d=" M 19.72 284.55 C 22.61 287.57 20.77 293.95 20.65 298.35 C 19.16 293.94 20.34 289.08 19.72 284.55 Z" />
</g>
<g id="#000000f9">
<path fill="#000000" opacity="0.98" d=" M 37.05 303.98 C 39.28 298.94 32.18 283.86 40.88 285.06 C 44.07 289.25 46.48 294.00 49.80 298.09 C 53.71 300.18 47.38 283.89 52.92 285.05 C 53.28 291.36 52.93 297.69 52.98 304.02 C 45.89 303.80 45.06 292.71 40.19 288.71 C 37.74 292.44 44.19 305.11 37.05 303.98 Z" />
<path fill="#000000" opacity="0.98" d=" M 201.05 337.98 C 203.28 332.94 196.18 317.86 204.88 319.06 C 208.07 323.25 210.48 328.00 213.80 332.09 C 217.71 334.18 211.38 317.89 216.92 319.05 C 217.28 325.36 216.92 331.69 216.98 338.02 C 209.89 337.80 209.06 326.71 204.19 322.71 C 201.74 326.44 208.19 339.11 201.05 337.98 Z" />
<path fill="#000000" opacity="0.98" d=" M 367.01 337.99 C 368.34 332.05 363.19 320.31 369.93 318.82 C 374.02 322.60 376.06 328.89 379.82 333.29 C 382.01 329.67 376.40 318.25 382.95 319.01 C 380.72 323.89 387.74 339.22 379.26 337.80 C 376.55 333.38 373.85 328.96 370.76 324.80 C 370.26 324.07 369.73 323.36 369.19 322.68 C 369.01 327.77 368.98 332.90 368.97 338.00 C 368.48 338.00 367.50 337.99 367.01 337.99 Z" />
</g>
<g id="#000000ff">
<path fill="#000000" opacity="1.00" d=" M 59.10 284.71 C 64.44 288.28 59.21 298.41 60.99 303.99 C 60.49 303.99 59.50 303.99 59.01 303.99 C 58.99 297.56 59.02 291.13 59.10 284.71 Z" />
<path fill="#000000" opacity="1.00" d=" M 176.10 284.71 C 181.44 288.28 176.21 298.41 177.99 303.99 C 177.49 303.99 176.50 303.99 176.01 303.99 C 175.99 297.56 176.02 291.13 176.10 284.71 Z" />
<path fill="#000000" opacity="1.00" d=" M 30.10 318.71 C 35.44 322.28 30.21 332.40 31.99 337.99 C 31.49 337.99 30.50 337.99 30.01 337.99 C 29.99 331.56 30.02 325.13 30.10 318.71 Z" />
<path fill="#000000" opacity="1.00" d=" M 50.50 320.54 C 53.99 316.67 60.51 320.11 65.00 318.99 C 64.99 319.46 64.99 320.41 64.99 320.88 C 54.07 318.04 60.74 332.19 58.98 337.99 C 50.02 338.31 62.88 317.84 50.50 320.54 Z" />
<path fill="#000000" opacity="1.00" d=" M 68.08 318.96 C 71.43 319.53 76.12 317.63 78.51 320.62 C 76.63 320.75 72.87 321.01 71.00 321.14 C 67.87 328.40 73.77 326.98 77.99 327.07 C 77.99 327.53 77.99 328.45 77.98 328.90 C 72.15 327.16 69.82 328.85 70.97 333.99 C 69.98 338.37 76.40 335.33 79.00 336.06 C 79.96 341.29 70.39 336.23 68.04 337.97 C 68.01 331.63 67.75 325.29 68.08 318.96 Z" />
<path fill="#000000" opacity="1.00" d=" M 192.95 328.00 C 194.39 325.71 190.37 317.27 195.99 319.01 C 195.99 325.33 196.01 331.66 195.98 337.99 C 189.91 339.83 194.41 330.73 192.95 328.00 Z" />
<path fill="#000000" opacity="1.00" d=" M 336.95 328.00 C 338.38 325.71 334.37 317.27 339.99 319.01 C 339.99 325.33 340.01 331.66 339.98 337.99 C 333.91 339.83 338.40 330.73 336.95 328.00 Z" />
</g>
<g id="#000000f7">
<path fill="#000000" opacity="0.97" d=" M 67.09 285.01 C 70.08 285.00 73.06 284.96 76.05 284.98 C 83.39 285.02 84.90 294.49 81.68 299.68 C 78.62 304.63 72.14 304.08 67.05 303.96 C 67.01 297.64 66.75 291.32 67.09 285.01 M 71.00 301.01 C 79.65 305.31 83.79 289.18 76.02 287.92 C 68.04 281.10 68.58 298.29 71.00 301.01 Z" />
</g>
<g id="#000000ee">
<path fill="#000000" opacity="0.93" d=" M 91.25 285.13 C 96.09 282.02 95.70 286.14 96.66 288.34 C 98.22 293.63 101.15 298.56 102.05 304.00 C 96.24 306.08 99.33 294.49 91.98 298.95 C 87.18 297.80 89.71 306.31 84.09 304.07 C 86.74 297.86 88.89 291.45 91.25 285.13 M 93.25 288.45 C 91.84 291.52 87.79 299.42 96.06 295.99 C 95.13 293.78 94.58 288.70 93.25 288.45 Z" />
<path fill="#000000" opacity="0.93" d=" M 113.25 319.13 C 118.09 316.01 117.70 320.14 118.66 322.34 C 120.22 327.63 123.15 332.56 124.05 338.00 C 118.24 340.08 121.33 328.49 113.98 332.95 C 109.18 331.80 111.71 340.31 106.09 338.07 C 108.74 331.86 110.89 325.45 113.25 319.13 M 115.25 322.45 C 113.84 325.52 109.79 333.42 118.06 329.99 C 117.13 327.78 116.58 322.70 115.25 322.45 Z" />
</g>
<g id="#000000e9">
<path fill="#000000" opacity="0.91" d=" M 106.01 303.96 C 106.97 295.84 101.13 280.36 115.02 284.95 C 121.03 285.36 124.17 293.11 121.03 298.04 C 118.93 304.34 111.51 304.28 106.01 303.96 M 109.09 287.00 C 109.79 292.36 104.95 304.54 114.68 300.79 C 121.61 296.91 117.90 284.33 109.09 287.00 Z" />
<path fill="#000000" opacity="0.91" d=" M 151.01 337.96 C 151.96 329.84 146.13 314.36 160.02 318.95 C 166.03 319.36 169.17 327.11 166.03 332.04 C 163.93 338.34 156.51 338.28 151.01 337.96 M 154.09 321.00 C 154.79 326.36 149.95 338.54 159.68 334.79 C 166.61 330.91 162.90 318.33 154.09 321.00 Z" />
</g>
<g id="#010101f8">
<path fill="#010101" opacity="0.97" d=" M 133.09 285.01 C 136.08 285.00 139.05 284.96 142.05 284.98 C 149.38 285.02 150.90 294.49 147.68 299.68 C 144.62 304.63 138.14 304.08 133.05 303.96 C 133.01 297.64 132.75 291.32 133.09 285.01 M 137.00 301.01 C 145.65 305.31 149.79 289.18 142.02 287.92 C 134.04 281.10 134.58 298.29 137.00 301.01 Z" />
</g>
<g id="#010101f3">
<path fill="#010101" opacity="0.95" d=" M 154.07 285.12 C 157.37 284.84 160.68 284.97 164.00 284.98 C 165.12 289.06 159.51 286.47 157.01 287.10 C 155.43 292.61 157.57 294.72 163.45 293.43 C 161.86 295.53 157.52 293.58 157.04 296.06 C 153.80 303.91 165.48 297.66 163.99 303.95 C 160.65 303.97 157.33 304.19 154.01 303.91 C 153.97 297.65 153.89 291.38 154.07 285.12 Z" />
</g>
<g id="#010101fa">
<path fill="#010101" opacity="0.98" d=" M 205.08 284.96 C 208.42 285.53 213.08 283.63 215.48 286.57 C 213.61 286.71 209.87 286.99 208.00 287.13 C 204.85 294.49 210.76 292.84 214.97 293.09 C 217.38 300.20 203.00 291.17 208.02 301.01 C 208.52 303.45 207.56 304.67 205.05 303.99 C 205.01 297.64 204.75 291.29 205.08 284.96 Z" />
</g>
<g id="#010101f1">
<path fill="#010101" opacity="0.95" d=" M 241.02 303.99 C 241.98 295.91 236.10 280.40 249.94 284.96 C 254.62 286.34 253.46 292.72 250.01 295.07 C 250.95 297.72 258.66 305.04 252.18 303.88 C 249.33 301.40 248.81 295.13 244.11 295.96 C 242.88 298.21 246.28 305.72 241.02 303.99 M 244.04 286.99 C 244.04 288.76 244.04 292.31 244.03 294.08 C 250.69 295.77 253.05 283.75 244.04 286.99 Z" />
</g>
<g id="#000000f6">
<path fill="#000000" opacity="0.96" d=" M 258.26 284.95 C 259.71 285.05 261.18 285.06 262.65 285.02 C 264.57 289.57 266.10 294.28 268.19 298.76 C 271.25 295.44 272.10 289.37 274.35 285.02 C 275.82 285.06 277.29 285.05 278.76 284.94 C 276.84 289.81 283.50 304.05 276.04 303.98 C 275.96 298.89 276.22 293.80 275.79 288.73 C 275.11 289.97 274.53 291.27 274.06 292.60 C 271.35 295.93 272.04 303.96 267.28 303.85 C 264.84 299.31 263.86 294.08 261.15 289.71 C 258.94 293.31 264.62 304.76 258.05 303.99 C 258.10 297.64 257.52 291.26 258.26 284.95 Z" />
</g>
<g id="#020202f1">
<path fill="#020202" opacity="0.95" d=" M 299.00 284.99 C 303.74 285.49 309.75 283.40 313.49 286.56 C 301.22 283.90 314.15 304.47 305.02 303.98 C 302.96 298.49 310.35 283.56 299.01 286.89 C 299.01 286.41 299.00 285.46 299.00 284.99 Z" />
</g>
<g id="#00000044">
<path fill="#000000" opacity="0.27" d=" M 319.00 285.00 C 320.12 288.70 321.63 300.21 318.98 303.99 C 319.01 297.66 318.99 291.33 319.00 285.00 Z" />
</g>
<g id="#000000ef">
<path fill="#000000" opacity="0.94" d=" M 366.91 285.00 C 371.68 283.79 371.61 290.20 374.10 292.89 C 377.37 291.58 375.94 283.52 381.09 284.99 C 380.14 288.69 377.79 291.83 376.41 295.37 C 374.74 297.49 378.41 306.00 373.04 303.75 C 373.48 301.36 373.30 299.13 372.50 297.05 C 370.75 292.98 368.11 289.28 366.91 285.00 Z" />
<path fill="#000000" opacity="0.94" d=" M 83.01 337.99 C 84.54 332.02 78.53 318.85 86.78 318.86 C 89.70 322.65 89.91 328.92 93.00 331.89 C 96.09 328.92 96.29 322.65 99.22 318.86 C 107.96 318.43 100.66 332.79 102.99 337.98 C 96.38 338.87 101.31 328.33 99.94 323.84 C 97.30 328.16 96.38 333.50 93.84 337.96 C 89.12 336.94 89.32 329.47 86.94 325.67 C 86.59 324.54 85.94 323.55 85.26 322.60 C 85.02 327.72 84.97 332.87 84.97 338.00 C 84.48 338.00 83.50 337.99 83.01 337.99 Z" />
<path fill="#000000" opacity="0.94" d=" M 276.01 337.99 C 277.54 332.02 271.53 318.85 279.78 318.86 C 282.70 322.65 282.91 328.92 286.00 331.89 C 289.09 328.92 289.29 322.65 292.22 318.86 C 300.96 318.43 293.66 332.79 295.99 337.98 C 289.37 338.87 294.30 328.33 292.94 323.84 C 290.30 328.16 289.38 333.50 286.84 337.96 C 282.12 336.94 282.32 329.47 279.94 325.67 C 279.59 324.54 278.94 323.55 278.26 322.60 C 278.01 327.72 277.97 332.87 277.97 338.00 C 277.48 338.00 276.50 337.99 276.01 337.99 Z" />
</g>
<g id="#00000049">
<path fill="#000000" opacity="0.29" d=" M 71.00 301.01 C 68.58 298.29 68.04 281.10 76.02 287.92 C 67.85 285.94 71.64 295.81 71.00 301.01 Z" />
<path fill="#000000" opacity="0.29" d=" M 137.00 301.01 C 134.58 298.29 134.04 281.10 142.02 287.92 C 133.85 285.94 137.64 295.81 137.00 301.01 Z" />
<path fill="#000000" opacity="0.29" d=" M 71.00 321.14 C 72.87 321.01 76.63 320.75 78.51 320.62 C 76.21 323.14 70.06 320.23 72.04 325.87 C 73.53 326.17 76.50 326.77 77.99 327.07 C 73.77 326.98 67.87 328.40 71.00 321.14 Z" />
</g>
<g id="#0000001a">
<path fill="#000000" opacity="0.10" d=" M 244.04 286.99 C 253.05 283.75 250.69 295.77 244.03 294.08 C 244.04 292.31 244.04 288.76 244.04 286.99 Z" />
</g>
<g id="#0000006d">
<path fill="#000000" opacity="0.43" d=" M 299.01 286.89 C 310.35 283.56 302.96 298.49 305.02 303.98 C 301.07 300.27 308.85 285.24 299.01 286.89 Z" />
</g>
<g id="#00000016">
<path fill="#000000" opacity="0.09" d=" M 93.25 288.45 C 94.58 288.70 95.13 293.78 96.06 295.99 C 87.79 299.42 91.84 291.52 93.25 288.45 Z" />
<path fill="#000000" opacity="0.09" d=" M 115.25 322.45 C 116.58 322.70 117.13 327.78 118.06 329.99 C 109.79 333.42 113.84 325.52 115.25 322.45 Z" />
</g>
<g id="#00000075">
<path fill="#000000" opacity="0.46" d=" M 186.19 288.68 C 186.74 289.36 187.26 290.07 187.76 290.80 C 186.07 294.48 188.80 301.84 185.97 304.00 C 185.98 298.90 186.02 293.78 186.19 288.68 Z" />
<path fill="#000000" opacity="0.46" d=" M 83.01 337.99 C 82.05 334.55 78.65 313.12 86.78 318.86 C 78.53 318.85 84.54 332.02 83.01 337.99 Z" />
<path fill="#000000" opacity="0.46" d=" M 99.22 318.86 C 107.35 313.11 103.94 334.58 102.99 337.98 C 100.66 332.79 107.96 318.43 99.22 318.86 Z" />
<path fill="#000000" opacity="0.46" d=" M 170.05 318.03 C 174.77 317.15 178.42 317.47 181.00 318.98 C 177.68 318.97 174.37 318.84 171.07 319.12 C 170.89 325.38 170.97 331.65 171.01 337.91 C 168.48 333.67 170.67 324.12 170.05 318.03 Z" />
<path fill="#000000" opacity="0.46" d=" M 222.06 318.03 C 226.77 317.15 230.42 317.47 233.00 318.98 C 229.67 318.97 226.37 318.84 223.07 319.12 C 222.89 325.40 222.96 331.70 223.02 337.99 C 220.45 333.49 222.69 324.19 222.06 318.03 Z" />
<path fill="#000000" opacity="0.46" d=" M 276.01 337.99 C 275.05 334.55 271.64 313.12 279.78 318.86 C 271.53 318.85 277.54 332.02 276.01 337.99 Z" />
<path fill="#000000" opacity="0.46" d=" M 292.22 318.86 C 300.35 313.11 296.94 334.58 295.99 337.98 C 293.66 332.79 300.96 318.43 292.22 318.86 Z" />
<path fill="#000000" opacity="0.46" d=" M 366.05 318.05 C 367.12 318.39 370.34 316.92 369.93 318.82 C 363.19 320.31 368.34 332.05 367.01 337.99 C 364.46 333.48 366.69 324.21 366.05 318.05 Z" />
<path fill="#000000" opacity="0.46" d=" M 369.19 322.68 C 369.73 323.36 370.26 324.07 370.76 324.80 C 369.06 328.48 371.80 335.84 368.97 338.00 C 368.98 332.90 369.01 327.77 369.19 322.68 Z" />
</g>
<g id="#00000048">
<path fill="#000000" opacity="0.28" d=" M 274.06 292.60 C 274.53 291.27 275.11 289.97 275.79 288.73 C 276.22 293.80 275.96 298.89 276.04 303.98 C 272.85 302.62 276.49 295.60 274.06 292.60 Z" />
</g>
<g id="#00000017">
<path fill="#000000" opacity="0.09" d=" M 290.21 289.10 C 292.46 290.17 292.61 293.92 293.93 296.09 C 285.28 299.31 288.80 292.85 290.21 289.10 Z" />
<path fill="#000000" opacity="0.09" d=" M 348.21 289.10 C 350.46 290.17 350.61 293.92 351.93 296.09 C 343.28 299.31 346.80 292.85 348.21 289.10 Z" />
<path fill="#000000" opacity="0.09" d=" M 307.21 323.10 C 309.46 324.17 309.61 327.92 310.93 330.09 C 302.28 333.31 305.80 326.85 307.21 323.10 Z" />
</g>
<g id="#00000071">
<path fill="#000000" opacity="0.44" d=" M 163.45 293.43 C 166.42 295.33 160.38 297.05 157.04 296.06 C 157.52 293.58 161.86 295.53 163.45 293.43 Z" />
<path fill="#000000" opacity="0.44" d=" M 180.45 327.43 C 183.42 329.33 177.38 331.05 174.04 330.06 C 174.51 327.58 178.86 329.53 180.45 327.43 Z" />
</g>
<g id="#000000e0">
<path fill="#000000" opacity="0.88" d=" M 354.24 312.20 C 359.57 310.27 354.58 316.42 351.94 316.06 C 351.75 314.32 353.06 313.21 354.24 312.20 Z" />
</g>
<g id="#000000e4">
<path fill="#000000" opacity="0.89" d=" M 17.33 318.25 C 19.98 314.06 28.65 321.15 23.59 321.56 C 17.34 317.15 14.13 326.38 20.92 327.12 C 27.64 328.88 26.04 341.06 18.01 338.02 C 11.79 341.53 13.15 336.82 12.95 334.16 C 15.90 334.76 19.04 336.78 21.90 334.81 C 23.62 329.06 15.36 329.80 13.15 325.72 C 10.93 321.71 14.61 319.59 17.33 318.25 Z" />
<path fill="#000000" opacity="0.89" d=" M 325.33 318.25 C 328.23 317.18 333.95 317.27 333.12 321.73 C 327.39 318.78 319.99 323.19 321.97 330.02 C 322.00 335.69 328.94 335.81 333.07 334.24 C 335.09 340.71 324.11 338.81 321.67 336.28 C 314.88 331.30 317.93 320.78 325.33 318.25 Z" />
</g>
<g id="#000000df">
<path fill="#000000" opacity="0.87" d=" M 40.33 318.28 C 43.73 317.99 49.67 316.39 48.05 321.73 C 44.73 320.87 38.92 319.71 40.01 324.85 C 44.16 327.37 51.81 328.84 48.94 335.83 C 45.49 338.74 35.30 340.49 35.97 333.96 C 39.05 335.05 44.49 336.97 45.96 333.00 C 44.27 328.62 35.70 329.11 36.01 323.07 C 36.57 320.86 38.06 318.90 40.33 318.28 Z" />
<path fill="#000000" opacity="0.87" d=" M 130.33 318.28 C 133.72 317.99 139.67 316.39 138.05 321.73 C 134.73 320.87 128.92 319.71 130.01 324.85 C 134.16 327.37 141.81 328.84 138.94 335.83 C 135.49 338.74 125.30 340.49 125.97 333.96 C 129.05 335.05 134.49 336.97 135.96 333.00 C 134.27 328.62 125.70 329.11 126.01 323.07 C 126.57 320.86 128.06 318.90 130.33 318.28 Z" />
</g>
<g id="#00000073">
<path fill="#000000" opacity="0.45" d=" M 68.08 318.96 C 68.88 316.35 82.56 317.38 78.51 320.62 C 76.12 317.63 71.43 319.53 68.08 318.96 Z" />
</g>
<g id="#000000e6">
<path fill="#000000" opacity="0.90" d=" M 241.33 318.25 C 255.77 313.01 259.28 339.90 243.99 338.05 C 233.23 338.59 231.84 321.34 241.33 318.25 M 242.31 321.20 C 237.55 323.75 236.67 334.44 242.98 335.04 C 253.60 338.46 253.02 317.11 242.31 321.20 Z" />
</g>
<g id="#00000076">
<path fill="#000000" opacity="0.46" d=" M 258.09 319.01 C 257.23 317.15 266.62 317.23 267.03 318.99 C 264.02 318.96 261.07 319.00 258.09 319.01 Z" />
</g>
<g id="#000000f0">
<path fill="#000000" opacity="0.94" d=" M 350.33 318.25 C 356.30 316.46 363.91 321.02 362.01 328.00 C 364.65 337.99 349.22 341.97 344.94 334.05 C 342.15 328.40 344.10 320.53 350.33 318.25 M 350.26 321.11 C 343.88 324.92 347.52 338.05 355.04 335.08 C 362.90 332.78 358.91 317.25 350.26 321.11 Z" />
<path fill="#000000" opacity="0.94" d=" M 223.07 319.12 C 226.37 318.84 229.67 318.97 233.00 318.98 C 234.12 323.06 228.51 320.46 226.01 321.10 C 224.41 326.54 226.39 328.54 231.97 327.11 C 233.22 331.13 229.19 330.17 226.10 330.12 C 224.96 332.41 228.20 339.70 223.02 337.99 C 222.96 331.70 222.89 325.40 223.07 319.12 Z" />
</g>
<g id="#000000f3">
<path fill="#000000" opacity="0.95" d=" M 171.07 319.12 C 174.37 318.84 177.68 318.97 181.00 318.98 C 182.12 323.06 176.51 320.46 174.01 321.10 C 172.42 326.61 174.57 328.72 180.45 327.43 C 178.86 329.53 174.51 327.58 174.04 330.06 C 170.80 337.91 182.48 331.66 180.99 337.95 C 177.65 337.96 174.33 338.19 171.01 337.91 C 170.97 331.65 170.89 325.38 171.07 319.12 Z" />
<path fill="#000000" opacity="0.95" d=" M 258.09 319.01 C 261.07 319.00 264.02 318.96 267.03 318.99 C 272.58 319.49 271.21 326.98 267.30 329.27 C 269.02 332.30 271.35 334.96 273.05 338.03 C 267.18 339.81 267.49 331.36 262.95 330.06 C 257.46 328.38 264.57 340.38 258.05 337.99 C 258.01 331.66 257.75 325.33 258.09 319.01 M 261.00 321.00 C 260.19 323.56 260.55 329.62 264.36 327.42 C 269.50 326.47 266.77 317.25 261.00 321.00 Z" />
</g>
<g id="#00000043">
<path fill="#000000" opacity="0.26" d=" M 195.99 319.01 C 197.12 322.67 198.63 334.21 195.98 337.99 C 196.01 331.66 195.99 325.33 195.99 319.01 Z" />
<path fill="#000000" opacity="0.26" d=" M 339.99 319.01 C 341.12 322.67 342.63 334.21 339.98 337.99 C 340.01 331.66 339.99 325.33 339.99 319.01 Z" />
</g>
<g id="#00000046">
<path fill="#000000" opacity="0.27" d=" M 58.98 337.99 C 60.74 332.19 54.07 318.04 64.99 320.88 C 55.18 319.32 63.16 334.48 58.98 337.99 Z" />
</g>
<g id="#00000015">
<path fill="#000000" opacity="0.08" d=" M 261.00 321.00 C 266.77 317.25 269.50 326.47 264.36 327.42 C 260.55 329.62 260.19 323.56 261.00 321.00 Z" />
</g>
<g id="#0000007a">
<path fill="#000000" opacity="0.48" d=" M 85.26 322.60 C 85.94 323.55 86.59 324.54 86.94 325.67 C 84.95 328.93 88.00 336.33 84.97 338.00 C 84.97 332.87 85.02 327.72 85.26 322.60 Z" />
<path fill="#000000" opacity="0.48" d=" M 278.26 322.60 C 278.94 323.55 279.59 324.54 279.94 325.67 C 277.94 328.93 281.00 336.33 277.97 338.00 C 277.97 332.87 278.01 327.72 278.26 322.60 Z" />
</g>
<g id="#00000088">
<path fill="#000000" opacity="0.53" d=" M 70.97 333.99 C 69.82 328.85 72.15 327.16 77.98 328.90 C 73.27 328.26 71.27 330.24 72.01 334.86 C 75.52 334.03 77.85 334.43 79.00 336.06 C 76.40 335.33 69.98 338.37 70.97 333.99 Z" />
</g>
</svg>
